<svg width="785" height="704" viewBox="0 0 785 704" fill="none" xmlns="http://www.w3.org/2000/svg">
<g opacity="0.6">
<path opacity="0.39" d="M435.54 351.38C429.43 337.92 418.97 344.96 417.28 335.5C415.98 329.1 418.36 323.58 421 318.03C424.28 310.15 424.64 302.39 423.44 293.32C423.17 291.3 422.97 289.24 423.18 287.24C423.48 283.78 425.37 280.98 426.32 277.57C427.26 274.36 427.66 270.99 427.53 267.64C426.89 255.75 420.11 244.8 421.1 232.73C422.23 214.09 416.68 217.31 412.47 202.83C411.49 193.42 405.8 184.83 401.38 176.38C397.92 170.32 391.99 165.35 389.12 158.81C387.04 152.56 383.83 146.44 380.64 140.89C377.67 133.19 372.14 127.13 366.36 121.43C359.38 113.86 355.45 103.3 348.59 95.4399C345.89 92.1999 342.91 89.1899 340.5 85.7299C336.42 79.8499 332.89 73.5799 331.04 66.6299C327.59 55.5799 321.25 45.8099 316.4 35.6799C311.63 25.0799 309.62 12.8599 300.43 4.79994C292.34 -2.96006 277.75 -0.92006 272.3 8.93994C268.69 14.6099 269.57 22.9099 267.99 28.6999C265.67 35.1799 258.25 39.4299 251.74 40.6399C246.62 41.1599 241.3 40.2399 236.11 40.8899C231.25 41.3399 226.49 40.8599 221.61 40.2799C212.64 39.0899 203.38 39.4599 194.35 39.9199C180.34 38.1499 167.24 39.4599 153.11 43.3399C144.69 45.4499 136.95 50.9999 130.93 56.7499C126.11 60.8099 123 66.1599 119.99 71.6299C116.76 76.1499 113.79 81.6399 110.36 86.2599C107.9 89.2699 104.15 90.3199 100.86 92.0999C94.87 95.1499 91.46 100.81 90.57 107.11C89.81 110.59 87.56 110.47 83.99 109.39C79.33 107.92 74.37 108.38 69.55 108.67C64.46 108.94 59.41 108.51 54.46 109.89C40.22 113.79 39.32 126.18 33.78 137.89C28.99 155.12 44.35 158.91 54.62 166.84C56.39 169.2 55.29 173.34 56.11 176.74C58.78 186.69 48.73 184.16 42.65 183.49C37.46 183.23 32.13 185.61 28.75 189.93C24.3 195.38 24.87 202.65 24.2 209.24C23.54 214.85 21.6 220.59 23.28 226.21C26.89 239.63 40.06 235.31 36.93 243C34.8 248.93 31.27 254.24 29.33 260.19C28.42 266.52 27.58 274.07 30.37 280.1C33.28 286 38.47 289.68 44.01 292.91C49.36 295.87 50.56 301.79 51.58 307.32C52.78 313.3 55.09 318.3 58.16 323.77C60.69 327.74 62.66 332.11 64.93 336.18C66.39 338.41 68.57 339.69 69.32 341.7C70.38 345.14 68.93 349.62 70.43 353.34C71.24 356.02 73.08 357.96 74.55 360.18C76.8 363.9 74.08 367.71 74.07 372.15C74.03 373.91 74.37 375.67 75 377.3C76.51 382.55 82.6 385.6 83.28 391.09C83.14 394.81 77.55 398.33 74.11 400.38C68.98 403.28 63 401.19 57.58 403.12C47.84 406.23 42.33 416.12 43.31 425.51C45.51 444.23 67.22 434.42 54.93 452.21C53.15 454.53 52.47 453.29 51.98 451.22C51.5 449.12 50.67 446.81 49.53 444.89C44.48 435.7 31.2 432.02 23.23 439.39C14.1 447.97 15.29 464.07 27.26 469.42C29.17 470.77 28.44 472.1 27.13 473.77C22.75 478.53 19.84 485.22 21.23 491.76C21.86 494.87 22.93 498.04 21.92 501.18C19.77 507.29 16.23 512.98 10.84 516.66C-0.719964 525.19 3.08003 542.73 11.21 552.44C15.58 556.85 20.24 557.35 22.17 564.15C25.31 570.5 22.17 571.85 18.2 576.09C12.2 583.04 14.13 592.99 20.21 599.25C26.26 606.91 37.2 611.05 46.27 606.54C52.71 603.98 56.02 595.4 63.64 595.91C66.48 595.85 69.86 595.14 71.82 596.81C74.36 599.32 76.04 605.09 74.32 607.87C73.52 609.12 72.13 609.85 70.76 610.45C55.52 616.26 36.72 626.7 33.56 645.9C31.32 662.22 49 680.7 65.42 677.46C68.77 676.66 71.95 674.9 75.44 674.78C77.64 674.65 79.83 674.99 82.02 675.11C88.3 675.21 94.92 674.33 101.12 672.99C104.22 672.16 107.1 670.64 110.07 669.45C118.88 666.36 129.4 665.43 135.51 657.32C142.22 648.31 148.75 638.71 152.21 627.93C154.54 617.45 146.75 607.18 136.22 605.87C132.41 605.05 134.29 605.21 136.69 605.2C145.46 605.46 154.24 601.4 160.3 595.17C164.49 589.32 169.16 587.34 176.16 585.91C185.22 582.78 183.83 593.58 197.87 592.4C212.99 590.92 211.48 578.33 219.44 579.5C223.37 580.13 227.65 580.19 231.33 578.4C236.94 575.9 240.84 570.2 241.03 563.95C241.71 557.08 234.1 549.25 246.37 552.79C250.37 554.09 255.48 553.29 258.98 554.69C263.45 557.33 266.55 562.12 271.88 563.39C284.33 567.72 299.91 557.43 295.79 543.41C294.17 535.65 297.03 538.95 298.33 543.74C302.16 552.51 315.67 557.04 324.07 552.36C330.56 548.89 333.93 542.13 338.27 536.56C340.33 533.83 342.21 531.54 343.67 528.27C350.02 515.9 342.95 508.24 346.29 506.99C347.85 506.58 351.79 508.75 354.61 509.03C364.32 509.84 374.61 506.4 381.04 499.19C386.52 492.91 395.46 487.62 399.16 479.65C400.89 476.38 401.99 472.77 403.91 469.42C405.9 465.81 408.91 462.97 411.12 459.51C412.84 456.83 414.06 453.77 415.62 450.99C418.17 446.71 421.21 442.93 422.47 438.01C424.98 429.96 425.61 421.91 426.75 413.64C428.89 404.37 430.73 395.17 432.46 385.79C435.07 374.58 440.91 362.92 435.59 351.54L435.5 351.34L435.54 351.38ZM48.18 465.15C48.58 464.7 49.34 463.73 49.75 463.31C49.78 463.49 49.45 464.28 49.34 464.59C49.2 465.2 48.76 465.28 48.22 465.2L48.18 465.14V465.15Z" fill="#264755"/>
<path d="M74.0302 317.71C70.9202 318.86 80.2001 323.36 80.4901 319.17C80.7601 315.3 75.9902 316.99 74.0302 317.71Z" fill="#264755" stroke="#ECF0B7" stroke-linecap="round" stroke-linejoin="round"/>
<path d="M70.42 320.39C72.92 320.22 71.9101 324.86 69.9001 324.66C67.8601 324.45 68.74 320.5 70.42 320.39Z" fill="#264755" stroke="#ECF0B7" stroke-linecap="round" stroke-linejoin="round"/>
<path d="M212.11 361.82C210.29 362.64 208.44 363.9 206.56 365.11C202.19 366.84 196.61 368.63 194.8 368.91C194.79 368.92 194.78 368.92 194.77 368.91C190.79 368.84 187.68 367.28 184.52 363.82C184.1 363.35 183.62 362.91 183.11 362.49C182.14 361.47 181.15 360.41 180.06 359.4C178.68 358.14 177.71 357.91 176.74 356.28C176.32 355.58 176.8 353.58 176.33 353.12C176.28 353.08 176.24 353.03 176.2 353C176.06 352.34 175.66 351.82 174.6 351.56C173.54 351.31 170.56 353.4 168.63 354.42C167 354.92 165.13 355.35 163.24 355.58H163.22C161.4 355.71 159.53 355.66 157.99 355.38C154.23 354.68 152.92 352.3 151.23 350.37C150.77 349.44 150.24 348.62 149.38 348.15C148.85 347.86 148.13 347.81 147.36 347.86C145.02 347.33 140.32 347.4 137.89 347.19C135.23 346.95 133.3 346.79 130.97 348.49C125.97 352.15 125.65 359.34 119.71 362.85C117.95 363.54 115.37 363.3 113.3 364.2C111.12 365.14 110.48 366.59 107.89 366.68C101.59 366.91 102.24 360.9 100.64 357.06C99.3501 353.97 97 352.74 94.79 351.15C93.32 350.1 91.97 349 90.29 348.63C88.59 348.27 86.4701 350.49 85.3801 348.4C84.4401 346.62 90.1801 342.92 90.4001 341.25C90.6801 339.13 88.3 338.64 88.35 336.39C88.39 334.73 90.8601 334.26 90.8301 332.38C90.7901 329.84 87.55 329.31 86.98 327.36C85.8 323.32 87.8601 325.22 88.8901 322.71C89.8101 320.49 91.5901 323.31 89.4601 319.91C88.5401 318.43 85.7301 318.78 85.0101 316.71C84.2601 314.55 86.2801 311.49 86.0701 309.15C85.8901 307.28 84.6901 305.01 84.4001 302.96C83.5601 297 81.37 292.53 82.04 286.16C82.36 283.06 81.3201 272.28 79.4001 280.29C78.4001 284.48 80.7301 289.14 74.5801 285.69C72.0201 284.25 71.5401 283.44 70.6401 280.47C70.2601 279.2 70.7401 274.4 68.8701 273.96C65.8901 273.27 71.9201 286.71 72.3901 288C74.1501 292.89 75.57 297.96 77.36 302.89C79.03 307.51 81.34 314.37 74.42 313.92C68.52 313.55 67.7801 306.66 67.0301 301.96C66.6001 299.23 67.4701 294.8 66.3901 292.32C65.5401 290.4 62.96 289.89 62.36 288.44C61.36 286.01 63.76 285.16 63.73 282.84C63.68 279.63 62.4701 280.99 61.3401 278.7C60.3801 278.66 59.7201 278.18 59.3801 277.28C59.2101 276.36 59.3101 275.48 59.6901 274.63C58.9301 273.13 61.22 271.98 58.48 271.77C55.44 271.55 53.64 280 49.22 277.79C44.68 275.51 53.5801 273.18 53.5601 271.52C53.5201 269.09 50.2801 267.56 48.2001 268.63C46.6901 269.4 47.79 272.45 45.97 273.16C42.94 274.34 44.9301 271.46 44.5701 270.73C44.9701 271.55 44.1901 266.21 44.0601 266.83C44.4901 264.68 45.9601 262.51 47.4301 260.78C49.9001 257.87 45.6001 258.62 49.8101 257.72C50.5701 257.56 52.6001 261.43 53.9901 259.21C54.2101 258.85 49.7701 246.25 54.0201 246.75C56.8701 247.09 55.1801 254.15 59.6301 252.41C61.4201 251.71 62.4401 236.48 64.4901 237.67C64.5701 241.53 66.9901 246.05 66.5301 249.8C66.3201 251.57 61.78 256.86 64.8 258.34C67.18 259.51 66.6701 257.01 68.2001 255.56C69.2301 254.6 70.6401 254.45 71.5901 253.31C72.3401 252.41 71.2901 251.25 72.2701 250.55C74.1701 249.2 78.4601 250.38 78.5101 247.06C78.5801 243.34 74.7601 245.14 73.0101 243.45C72.7101 243.17 67.5801 236.13 67.4301 236.34C67.4301 233.13 71.7601 232.85 74.2801 232.8C77.1701 232.74 79.3201 233.16 81.5601 234.96C82.1601 235.43 83.55 238.59 83.86 238.65C86.54 239.14 85.6101 238.83 85.3901 236.57C85.0801 233.34 81.0201 231.89 83.9401 228.18C85.5401 226.14 87.2701 226.56 89.3901 227.32C89.1901 227.32 93.2001 230.19 93.4501 230.36C93.9901 230.75 95.5 230.82 96.22 231.23C100.22 233.5 99.2401 234.66 104.09 235.28C105.27 235.43 106.7 234.85 107.87 234.98C109.16 235.13 113.21 236.6 114.8 237.23C123.52 240.69 119.03 249.21 122.09 255.3C123.19 257.48 123.55 256.82 124.61 255.39C126.69 252.59 124.47 250.56 129.21 248.54C135.17 245.99 140.96 244.79 147.05 242.84C148.07 242.55 149.09 242.22 150.12 241.8C150.2 241.78 150.27 241.75 150.34 241.71C150.62 241.61 150.92 241.49 151.21 241.35C151.31 241.32 151.4 241.27 151.5 241.23C151.53 241.22 151.56 241.2 151.59 241.19C154.92 239.7 157.68 240.45 160.31 241.93C161.11 242.79 161.88 243.69 162.81 244.19C163.82 244.75 164.68 245.06 165.47 245.34C165.47 245.34 165.47 245.35 165.48 245.35C166.74 246.19 168.04 246.96 169.43 247.52C169.73 247.8 170.05 248.12 170.38 248.49C170.86 249.02 171.29 249.56 171.73 250.13C172.69 254.57 180.69 258.27 183.35 261.08C183.93 261.69 184.85 263.03 185.48 264.48C185.52 264.62 185.56 264.76 185.59 264.91C185.91 266.39 186.45 268.61 184.84 269.5C183.2 270.41 182.92 268.43 181.63 268.46H181.57C180.93 268.04 180.19 267.74 179.23 267.97C177.82 268.3 176.63 270.33 175.69 272.45C175.68 272.47 175.67 272.49 175.67 272.51C174.3 274.85 174.18 276.4 172.22 276.28C172.82 276.49 173.42 276.67 174.01 276.76C173.95 276.92 173.89 277.06 173.84 277.18C173.69 277.51 173.55 277.83 173.43 278.12C173.37 278.27 173.31 278.41 173.25 278.54C173.19 278.68 173.14 278.81 173.09 278.94C173.03 279.07 172.99 279.19 172.94 279.32C172.87 279.5 172.81 279.68 172.75 279.84C172.7 279.96 172.66 280.09 172.63 280.2C172.55 280.44 172.49 280.66 172.44 280.87C172.38 281.09 172.34 281.29 172.3 281.49C172.14 282.38 172.17 283.15 172.35 283.99C172.44 284.61 172.56 285.34 172.71 286.23C172.9 287.3 174.05 292.54 174.8 293.38C175.19 293.82 175.72 294.07 176.32 294.24C176.34 294.26 176.37 294.28 176.4 294.31C177.34 295.16 179.05 294.58 180.27 295.07C180.31 295.09 180.35 295.11 180.39 295.13C180.46 295.17 180.54 295.22 180.61 295.26C180.61 295.26 180.613 295.26 180.62 295.26C180.69 295.31 180.76 295.37 180.83 295.43C180.97 295.55 181.08 295.69 181.18 295.86C181.26 295.98 181.33 296.13 181.39 296.29C181.26 296.33 181.15 296.38 181.04 296.43C179.82 296.97 179.75 297.85 180.07 298.8C180.26 300.03 180.99 301.44 181.61 302.5C181.62 302.53 181.64 302.55 181.66 302.58C181.77 302.78 181.88 302.96 181.98 303.13H181.99C182.36 304.35 182.89 306.5 183.48 306.94C184.26 307.51 184.8 307.22 185.31 306.85C185.34 306.86 185.37 306.87 185.4 306.88C186.33 307.15 186.69 306.69 187.14 306.35C188.93 306.83 189.45 306.64 190.77 308.32C191.05 309.16 191.21 310.07 191.65 310.68C191.71 310.76 191.76 310.84 191.81 310.91C192.18 312.14 192.66 313.35 193.92 313.58C194.79 313.74 195.38 313.57 195.79 313.22C196.01 313.15 196.25 313.06 196.52 312.95C197.81 312.44 197.66 306.85 199.66 311.72C199.87 312.22 199.97 312.72 199.99 313.21C199.66 315.19 198.59 317.53 197.96 318.86C197.95 318.88 197.95 318.89 197.94 318.9C197.58 319.55 197.24 320.18 196.98 320.79C196.22 322.58 194.15 327.25 194.48 329.41C194.55 329.86 194.64 330.24 194.74 330.55C195.47 332.77 197.08 331.94 199.23 333.76C199.3 333.81 199.38 333.88 199.46 333.95C199.55 334.03 199.64 334.12 199.72 334.21C199.86 334.38 199.99 334.54 200.1 334.72C200.56 335.5 200.71 336.38 201.16 337.19C201.39 337.78 201.66 338.36 202.1 338.87C203.07 340.01 204.07 340.17 204.9 340.63C206.76 343.23 205.58 344.1 205.77 348.11C205.85 349.78 207.63 354.04 209.42 357.38C210.16 359.13 211 360.84 212.11 361.81V361.82Z" fill="#264755" stroke="#ECF0B7" stroke-linecap="round" stroke-linejoin="round"/>
<path d="M147.36 347.86C145.92 347.95 144.28 348.39 143.2 348.34C137.1 348.04 133.32 345.04 128.99 351.06C126.15 355.02 124.82 360.84 119.71 362.85C125.65 359.34 125.97 352.15 130.97 348.49C133.3 346.79 135.23 346.95 137.89 347.19C140.32 347.4 145.02 347.33 147.36 347.86Z" fill="#264755" stroke="#ECF0B7" stroke-linecap="round" stroke-linejoin="round"/>
<path d="M150.12 241.8C149.09 242.22 148.07 242.55 147.05 242.84C148.06 242.52 149.09 242.17 150.12 241.8Z" fill="#264755" stroke="#ECF0B7" stroke-linecap="round" stroke-linejoin="round"/>
<path d="M160.31 241.93C157.68 240.45 154.92 239.7 151.59 241.19C153.5 240.33 155.63 239.3 157.6 239.89C158.66 240.21 159.5 241.05 160.31 241.93Z" fill="#264755" stroke="#ECF0B7" stroke-linecap="round" stroke-linejoin="round"/>
<path d="M163.22 355.58C159.87 355.99 156.43 355.79 154 354.29C152.56 353.4 151.96 351.78 151.23 350.37C152.92 352.3 154.23 354.68 157.99 355.38C159.53 355.66 161.4 355.71 163.22 355.58Z" fill="#264755" stroke="#ECF0B7" stroke-linecap="round" stroke-linejoin="round"/>
<path d="M169.43 247.52C168.04 246.96 166.74 246.19 165.48 245.35C166.83 245.82 167.99 246.2 169.43 247.52Z" fill="#264755" stroke="#ECF0B7" stroke-linecap="round" stroke-linejoin="round"/>
<path d="M176.2 353C173.85 350.71 174.25 352.27 171.01 353.58C170.3 353.87 169.5 354.15 168.63 354.42C170.56 353.4 173.54 351.31 174.6 351.56C175.66 351.82 176.06 352.34 176.2 353Z" fill="#264755" stroke="#ECF0B7" stroke-linecap="round" stroke-linejoin="round"/>
<path d="M181.57 268.46C178.72 268.52 178.93 268.16 176.9 270.71C176.41 271.33 176.02 271.91 175.69 272.45C176.63 270.33 177.82 268.3 179.23 267.97C180.19 267.74 180.93 268.04 181.57 268.46Z" fill="#264755" stroke="#ECF0B7" stroke-linecap="round" stroke-linejoin="round"/>
<path d="M185.48 264.48C184.85 263.03 183.93 261.69 183.35 261.08C180.69 258.27 172.69 254.57 171.73 250.14C172.45 251.09 173.17 252.12 174.07 253.27C176.95 256.96 184.03 259.52 185.48 264.48Z" fill="#264755" stroke="#ECF0B7" stroke-linecap="round" stroke-linejoin="round"/>
<path d="M194.77 368.91C194.6 368.93 194.47 368.94 194.38 368.94C189.11 368.73 186.22 365.77 183.11 362.49C183.62 362.91 184.1 363.35 184.52 363.82C187.68 367.28 190.79 368.84 194.77 368.91Z" fill="#264755" stroke="#ECF0B7" stroke-linecap="round" stroke-linejoin="round"/>
<path d="M201.16 337.2C200.71 336.39 200.56 335.51 200.1 334.73C200.58 335.48 200.83 336.36 201.16 337.2Z" fill="#264755" stroke="#ECF0B7" stroke-linecap="round" stroke-linejoin="round"/>
<path d="M209.42 357.39C207.63 354.05 205.85 349.79 205.77 348.12C205.58 344.11 206.76 343.24 204.9 340.64C205.62 341.02 206.21 341.62 206.58 343.25C207.49 347.33 205.56 349.31 207.66 353.34C208.25 354.46 208.81 355.94 209.42 357.39Z" fill="#264755" stroke="#ECF0B7" stroke-linecap="round" stroke-linejoin="round"/>
<path d="M206.56 365.11C208.44 363.9 210.29 362.64 212.11 361.82C212.14 361.85 212.16 361.88 212.19 361.9C212.78 362.39 210.05 363.73 206.56 365.11Z" fill="#264755" stroke="#ECF0B7" stroke-linecap="round" stroke-linejoin="round"/>
<path d="M78.0402 224.85C80.2302 225.29 82.6402 229.27 79.0602 229.09C76.6302 228.97 75.9202 224.43 78.0402 224.85Z" fill="#264755" stroke="#ECF0B7" stroke-linecap="round" stroke-linejoin="round"/>
<path d="M60.2802 424.44C58.0302 425.72 58.8601 419.06 62.0401 418.05C68.7301 415.94 62.7502 423.03 60.2802 424.44Z" fill="#264755" stroke="#ECF0B7" stroke-linecap="round" stroke-linejoin="round"/>
<path d="M35.98 452.59C38.53 455.69 32.83 454.43 33.07 454.31C32.49 454.59 32.41 448.25 35.98 452.59Z" fill="#264755" stroke="#ECF0B7" stroke-linecap="round" stroke-linejoin="round"/>
<path d="M44.1102 488.66C45.0802 494.42 33.7702 491.76 37.4502 486.14C38.0402 485.23 44.5202 479.06 45.8502 480.7C46.6602 481.7 43.8102 486.86 44.1102 488.66Z" fill="#264755" stroke="#ECF0B7" stroke-linecap="round" stroke-linejoin="round"/>
<path d="M49.47 494.03C48.37 493.44 41.58 492.74 47.69 491.08C52.38 489.8 53.52 496.2 49.47 494.03Z" fill="#264755" stroke="#ECF0B7" stroke-linecap="round" stroke-linejoin="round"/>
<path d="M44.9201 498.6C40.8801 498.15 45.9002 493.6 49.1502 497.02C50.3302 498.27 51.5702 499.54 49.4602 500.81C47.6302 501.91 46.7301 498.8 44.9101 498.6H44.9201Z" fill="#264755" stroke="#ECF0B7" stroke-linecap="round" stroke-linejoin="round"/>
<path d="M60.27 498.45C61.99 498.95 61.65 501.08 60 501.36C56.95 501.88 58.06 497.81 60.27 498.45Z" fill="#264755" stroke="#ECF0B7" stroke-linecap="round" stroke-linejoin="round"/>
<path d="M28.5601 529.29C27.2801 530.08 25.4901 529.54 24.3801 530.62C23.4901 531.49 24.8901 533.51 23.6301 534.5C20.3301 537.08 17.9501 531.48 20.3001 528.95C21.3201 527.84 22.8501 528.77 23.8601 528.09C24.4001 527.73 25.8801 526.12 26.4301 525.9C28.0801 525.25 28.7901 522.47 30.2001 524.78C30.8201 525.79 29.3801 528.79 28.5601 529.29Z" fill="#264755" stroke="#ECF0B7" stroke-linecap="round" stroke-linejoin="round"/>
<path d="M26.1701 537.24C25.0601 538.25 23.5702 537.4 22.7602 538.9C21.2502 541.69 24.0001 542.59 26.0501 542.53C31.8701 542.35 31.4201 532.48 26.1701 537.25V537.24Z" fill="#264755" stroke="#ECF0B7" stroke-linecap="round" stroke-linejoin="round"/>
<path d="M34.8402 554.82C31.5602 555.27 30.7501 546.69 34.5401 546.99C33.6901 546.92 35.9901 551.1 35.9201 550.71C36.1501 551.95 38.7602 554.28 34.8402 554.81V554.82Z" fill="#264755" stroke="#ECF0B7" stroke-linecap="round" stroke-linejoin="round"/>
<path d="M39.4602 551.61C39.8202 554.19 33.3002 562.23 40.1902 556.81C42.1202 555.29 43.7702 554.06 42.7402 550.99C42.9002 551.46 38.4102 546.8 38.8202 546.97C35.5202 545.58 39.5002 551.89 39.4602 551.62V551.61Z" fill="#264755" stroke="#ECF0B7" stroke-linecap="round" stroke-linejoin="round"/>
<path d="M46.3403 543.82C45.2603 545.52 43.3602 546.35 45.7002 548.19C45.1402 547.75 50.2202 547.63 49.7602 548.01C52.6902 545.61 48.6202 540.16 46.3302 543.83L46.3403 543.82Z" fill="#264755" stroke="#ECF0B7" stroke-linecap="round" stroke-linejoin="round"/>
<path d="M39.41 514.76C38.86 516.92 36.33 517.28 34.73 515.91C32.32 513.86 35.1201 511.25 35.8301 510.36C40.4601 504.54 40.65 509.9 39.42 514.76H39.41Z" fill="#264755" stroke="#ECF0B7" stroke-linecap="round" stroke-linejoin="round"/>
<path d="M48.0502 514.34C49.8602 515.2 45.7802 520.06 43.9402 516.34C42.4102 513.24 46.3502 513.53 48.0502 514.34Z" fill="#264755" stroke="#ECF0B7" stroke-linecap="round" stroke-linejoin="round"/>
<path d="M42.2301 518.63C41.5001 518.86 35.5101 518.26 38.6201 521.69C41.8001 525.2 45.7201 517.55 42.2301 518.63Z" fill="#264755" stroke="#ECF0B7" stroke-linecap="round" stroke-linejoin="round"/>
<path d="M44.21 527.73C39.54 529.35 45.77 523.4 47.38 523.76C48.99 524.12 49.8 525.12 49.29 526.99C48.4 530.24 46.05 527.09 44.21 527.73Z" fill="#264755" stroke="#ECF0B7" stroke-linecap="round" stroke-linejoin="round"/>
<path d="M40.62 533.97C41.39 535.89 42.83 534.43 43.96 534.89C42.99 534.5 48.14 536.54 47.26 536.61C48.91 536.48 50.8 536.95 50.02 533.53C49.12 529.6 38.34 528.27 40.63 533.97H40.62Z" fill="#264755" stroke="#ECF0B7" stroke-linecap="round" stroke-linejoin="round"/>
<path d="M58.2202 507.94C60.4402 509.8 56.2203 510.81 55.0303 509.8C54.7603 509.58 52.2603 505.83 54.5103 506.21C54.5903 506.22 58.1602 507.89 58.2202 507.93V507.94Z" fill="#264755" stroke="#ECF0B7" stroke-linecap="round" stroke-linejoin="round"/>
<path d="M62.7202 504.78C61.3102 499.7 58.8903 507.48 62.0803 507.64C62.9203 506.92 63.1402 505.96 62.7202 504.78Z" fill="#264755" stroke="#ECF0B7" stroke-linecap="round" stroke-linejoin="round"/>
<path d="M64.7103 510.1C63.8403 510.34 61.8202 514.44 60.5502 515.41C58.8202 516.74 53.0702 518.22 58.6102 519.36C60.2902 519.7 66.0103 517.21 66.9403 516.04C68.5503 514.03 68.6903 508.99 64.7103 510.1Z" fill="#264755" stroke="#ECF0B7" stroke-linecap="round" stroke-linejoin="round"/>
<path d="M70.52 520.58C71 517.85 70.82 513.43 68.13 517.68C66 521.05 69.42 526.8 70.52 520.58Z" fill="#264755" stroke="#ECF0B7" stroke-linecap="round" stroke-linejoin="round"/>
<path d="M64.44 528.14C64.68 526.31 67.76 526.93 67.44 528.63C67.16 530.14 64.21 529.83 64.44 528.14Z" fill="#264755" stroke="#ECF0B7" stroke-linecap="round" stroke-linejoin="round"/>
<path d="M63.5602 491.93C62.7702 492.26 59.3702 492.87 59.2002 492.92C58.2102 493.16 59.1102 495.07 57.1602 494.88C56.5002 494.81 56.4702 492.19 55.9802 491.8C54.5902 490.67 52.7102 491.34 51.0802 489.91C48.6302 487.76 48.8402 485.63 52.2402 484.86C53.5902 484.55 55.8002 486.6 56.9002 486.02C58.1302 485.38 57.5502 483.78 58.1902 483.21C59.9702 481.63 56.7002 481.89 60.7402 480.2C61.7002 479.8 62.4202 480.26 63.3402 480.18C65.7102 479.98 67.2702 480.03 68.5002 481.84C70.1502 484.29 67.9302 486.51 67.5402 487.28C67.7602 486.84 65.9802 487.44 65.7202 487.72C64.4002 489.2 66.3902 490.73 63.5602 491.93Z" fill="#264755" stroke="#ECF0B7" stroke-linecap="round" stroke-linejoin="round"/>
<path d="M30.6501 585.34C28.8901 587.04 34.0301 587.29 34.5701 587.84C36.5701 589.87 33.3601 591.84 37.5601 592.43C40.4701 592.83 42.9101 590.71 41.4901 588.33C40.6801 586.97 31.6501 584.38 30.6501 585.34Z" fill="#264755" stroke="#ECF0B7" stroke-linecap="round" stroke-linejoin="round"/>
<path d="M63.9401 556.17C63.3101 554.17 59.9701 552.39 58.2801 554.26C57.4001 555.24 59.3901 557.3 58.6101 558.72C58.0101 559.81 54.1201 561.24 52.8901 562.23C51.1001 563.67 49.19 565.55 47.22 567.1C43.47 570.05 38.62 575.03 43.54 579.29C43.9 579.6 48.49 581.7 48.79 581.75C51.69 582.23 51.3401 581.27 53.8901 580.78C55.3201 580.5 56.8201 579.91 58.5501 579.96C58.0001 579.95 63.3101 580.32 62.1101 580.56C65.1001 579.97 66.25 577.78 68.6 574.97C69.42 573.99 70.8 572.81 71.35 571.55C71.62 570.94 72.5301 564.44 72.4001 563.89C71.6301 560.48 68.1301 557.65 63.9301 556.16L63.9401 556.17Z" fill="#264755" stroke="#ECF0B7" stroke-linecap="round" stroke-linejoin="round"/>
<path d="M95.9001 603.92C97.4801 602.69 98.9801 604.84 98.7101 601.18C98.5101 598.47 94.1001 597.68 92.4001 599.28C89.2101 602.3 92.2801 606.71 95.9001 603.91V603.92Z" fill="#264755" stroke="#ECF0B7" stroke-linecap="round" stroke-linejoin="round"/>
<path d="M107.4 589.29C97.5002 584.4 102.67 570.76 109.82 577.43C111.55 579.04 110.61 580.62 111.25 582.61C111.79 584.26 113.54 586.03 113.91 587.65C115.13 593.04 110.7 590.92 107.41 589.29H107.4Z" fill="#264755" stroke="#ECF0B7" stroke-linecap="round" stroke-linejoin="round"/>
<path d="M115.2 585.36C114.27 587.18 118.41 586.97 118.88 587.17C119.74 587.15 120.59 587.04 121.43 586.85C122.55 587.04 123.01 587.62 122.84 588.58C124.26 588.89 123.54 589.95 126.13 588.86C125.63 589.07 128.21 585.5 127.92 586.46C128.23 585.45 128.72 582.7 125.25 582.59C123.29 582.53 123.05 584.57 121.35 584.95C119.56 585.36 116.43 582.96 115.2 585.36Z" fill="#264755" stroke="#ECF0B7" stroke-linecap="round" stroke-linejoin="round"/>
<path d="M121.59 580.09C111.38 581.55 112.5 574.95 119.97 572.76C123.03 571.86 123.98 572.42 124.09 575.83C124.13 577.05 125.42 579.55 121.59 580.09Z" fill="#264755" stroke="#ECF0B7" stroke-linecap="round" stroke-linejoin="round"/>
<path d="M126.53 579.76C127.5 582.05 133.32 583.58 134.66 580.93C136.83 576.64 124.67 575.38 126.53 579.76Z" fill="#264755" stroke="#ECF0B7" stroke-linecap="round" stroke-linejoin="round"/>
<path d="M142.15 587.32C141.37 584.09 135.26 583.97 136.12 587.81C136.68 590.32 142.61 589.21 142.15 587.32Z" fill="#264755" stroke="#ECF0B7" stroke-linecap="round" stroke-linejoin="round"/>
<path d="M148.82 583.58C148.57 582 140.23 578.82 141.74 582.85C142.29 584.32 149.41 587.36 148.82 583.58Z" fill="#264755" stroke="#ECF0B7" stroke-linecap="round" stroke-linejoin="round"/>
<path d="M147.07 569.51C149.71 570.56 148.77 574.72 146.19 573.86C143.14 572.84 143.4 568.05 147.07 569.51Z" fill="#264755" stroke="#ECF0B7" stroke-linecap="round" stroke-linejoin="round"/>
<path d="M163.17 572.77C160.29 573.63 153.79 573.85 152.13 570.78C150.41 567.58 152.9 566.14 155.84 565.31C156.21 565.2 159.58 565.24 160.29 565.24C161.96 565.25 162.67 564.07 164.41 565.36C166.9 567.2 166.11 571.9 163.16 572.78L163.17 572.77Z" fill="#264755" stroke="#ECF0B7" stroke-linecap="round" stroke-linejoin="round"/>
<path d="M195.91 569.09C203.82 570.91 198.87 579.29 193.61 575.7C193.9 575.9 191.69 570.34 191.61 571C191.87 568.98 192.27 568.26 195.91 569.09Z" fill="#264755" stroke="#ECF0B7" stroke-linecap="round" stroke-linejoin="round"/>
<path d="M190.1 559.38C190.48 559.22 190.87 559.06 191.25 558.9C192.81 559.61 190.79 562.42 191.73 563.52C192.36 564.25 194.83 562.55 195.77 564.16C196.46 565.33 184.09 566.59 190.09 559.38H190.1Z" fill="#264755" stroke="#ECF0B7" stroke-linecap="round" stroke-linejoin="round"/>
<path d="M220.5 562.49C218.52 561.17 217.5 558.02 220.18 556.71C223.27 555.19 222.1 557.84 223.37 559.15C227.01 562.9 226.08 566.21 220.5 562.49Z" fill="#264755" stroke="#ECF0B7" stroke-linecap="round" stroke-linejoin="round"/>
<path d="M219.06 512.02C223.74 511.93 218.6 515.27 218.61 515.1C218.63 514.7 215.39 512.09 219.06 512.02Z" fill="#264755" stroke="#ECF0B7" stroke-linecap="round" stroke-linejoin="round"/>
<path d="M218.62 508.19C218.42 509.21 223.21 511.62 224.25 510.28C225.41 508.78 219.31 504.68 218.62 508.19Z" fill="#264755" stroke="#ECF0B7" stroke-linecap="round" stroke-linejoin="round"/>
<path d="M223.54 539.86C223.13 544.14 216.04 543.8 219.18 550.03C218.63 548.93 222.48 551.62 222.1 551.41C224.05 552.45 224.75 555.83 227.19 552.87C227.91 552 228.54 543.91 228.31 543.14C228.24 542.91 223.35 539.24 223.86 538.6C223.76 539.02 223.65 539.43 223.55 539.85L223.54 539.86Z" fill="#264755" stroke="#ECF0B7" stroke-linecap="round" stroke-linejoin="round"/>
<path d="M223.69 536.08C224.62 536.2 229.9 539.48 226.46 535.29C223.25 531.37 222.22 535.9 223.69 536.08Z" fill="#264755" stroke="#ECF0B7" stroke-linecap="round" stroke-linejoin="round"/>
<path d="M224.33 524.84C223.5 527.72 223.28 530.95 220.71 533.24C214.97 538.34 216.72 530.4 213.73 530.87C214.21 530.87 208.42 537.46 208.39 537.57C207.62 540.53 214.38 547.6 207.92 547.46C206.2 547.42 201.02 543.35 200.53 541.74C198.9 536.29 206.74 534.56 203.73 528.51C202.77 526.58 200.7 525.94 199.51 524.33C198.26 522.63 198.13 520.64 197.19 518.89C194.45 513.81 196.64 517.19 193.43 519.21C191.27 520.57 186.11 520.3 184.1 521.09C182.1 521.88 182.91 519.27 181.26 521.78C181.34 521.78 182.97 525.13 183.06 525.52C183.82 528.56 181.6 531.85 182.67 534.99C184.46 540.26 203.68 550.32 190.54 552.66C187.59 553.18 188.4 553.37 185.14 552.37C182.94 551.69 174.28 552.09 179.13 555.41C179.51 555.66 181.14 553.89 181.53 554.06C182.06 554.29 183.39 555.52 183.44 555.53C183.47 555.54 186.81 557.2 186.89 557.37C188.19 560.25 183.34 564.15 180.99 565.34C179.27 566.21 177.87 565.86 176.25 566.88C175.33 567.45 176.29 569.84 174.33 569.9C173.54 569.93 170.8 564.77 170.38 564.27C166.97 560.26 165.36 561.64 160.21 561.39C157.19 561.24 153.04 560.27 153.48 556.06C153.72 553.72 156.54 553.09 157.57 551.68C158.09 550.97 158.79 549.62 159.23 549.03C160.12 547.84 158.97 546.63 160.87 545.66C162.28 544.93 163.43 547.05 164.42 546.52C167.16 545.04 165.69 536.97 168.9 536.45C172.29 535.9 170.53 542.86 174.68 541.32C178.64 539.85 177.24 531.76 173.55 531.72C173.49 531.72 172.14 533.6 171.02 533.63C169.14 533.69 167.62 531.08 167.28 531.06C163.68 530.93 164.16 537.18 159.61 538.61C154.54 540.21 155.91 537.48 151.76 540.96C148.41 543.77 141.91 546.14 140.37 550.22C139.61 552.21 139.95 555.07 139.37 557.15C139.1 558.13 137.82 558.99 137.52 560.05C137.18 561.22 138.39 562.47 137.86 563.74C136.79 566.36 135.38 565.68 133.8 567.29C132.93 568.18 133.21 570.49 132.05 570.98C130.89 571.48 129.85 569.59 128.91 569.88C127.07 570.45 127.7 572.2 125.35 572.27C124.58 572.3 120.38 569.52 119.87 569.03C117.44 566.71 117.55 565.66 117.33 562.1C117.25 560.86 118.09 549.39 116.3 549.18C114.97 549.02 115.25 559.84 114.94 560.95C113.86 564.79 110.8 569.16 107.71 571.71C103.53 575.16 100.2 574.39 98.9302 580.26C97.8002 585.5 98.4602 585.11 94.2402 587.24C93.7702 587 93.3002 586.77 92.8302 586.53C91.9402 586.89 91.3202 587.53 90.9702 588.44C89.9302 588.68 89.5202 591.62 87.7002 589.78C85.8402 587.9 90.6702 583.48 88.1002 581.94C85.6002 580.45 83.7202 586.82 83.1402 581.11C82.9902 579.6 86.1002 576.74 86.3402 575.63C87.2902 571.16 85.5402 575.38 82.9802 572.43C80.3602 569.41 83.2302 565.03 80.2302 561.42C77.2702 557.86 72.7002 557.38 68.8802 555.62C64.4902 553.59 62.8802 550.6 61.3502 545.61C60.2702 542.11 59.2202 536.82 61.5102 533.49C65.7702 527.32 66.5902 533.35 67.8402 536.71C69.7502 541.82 71.9802 554.16 80.3102 551.22C78.0102 545.47 67.7802 546.71 73.3202 538.32C78.2702 530.81 79.2502 540.12 83.0802 542.29C89.4302 545.89 88.5602 538.11 83.2602 535.68C80.4302 534.39 68.3902 534.87 73.4602 529.78C76.1202 527.11 86.5502 529.77 87.3802 528.09C89.7602 523.23 77.2002 525.94 76.1302 526.07C67.3502 527.18 73.8502 521.71 74.2502 516.44C74.4002 514.48 75.2402 501.1 73.3402 501.29C70.3402 501.59 72.3202 505.47 70.2802 507.02C67.8802 508.83 64.6402 506.96 65.0702 504.01C65.4002 501.76 70.5502 498.34 71.6502 496.76C72.2402 495.91 74.4902 495.81 73.3102 493.42C72.3802 491.51 70.5802 493.88 69.5402 492.39C68.4902 490.86 68.4602 489.12 70.4602 488.23C75.0402 486.17 73.7302 491.49 75.4102 492.79C79.9202 496.28 80.7102 488.15 78.1402 485.02C75.7902 482.16 73.5302 478.06 70.7402 475.58C67.3102 472.52 64.6002 471.93 65.2302 466.71C65.7602 462.32 69.5702 461.13 71.7702 458.08C73.9002 455.12 74.2102 443.61 78.0302 442C79.9702 441.18 81.8602 442.83 83.4202 445.05C83.5102 445.18 83.5902 445.3 83.6802 445.43C85.3202 447.88 86.5602 450.87 87.0502 452.04C87.7902 453.83 88.8802 457.68 90.6902 459.44C90.6902 459.44 90.7002 459.44 90.7002 459.45H90.7102C90.7202 459.45 90.7202 459.46 90.7302 459.46C91.9702 460.63 93.5502 460.81 95.5902 458.69C96.0902 458.17 96.1802 457.52 96.2202 456.86C96.2602 455.76 96.1402 454.64 97.4502 454.04C98.0902 453.74 98.6702 453.75 99.1802 453.96H99.1902C100.02 454.28 100.68 455.09 101.2 455.94C101.3 456.11 101.39 456.29 101.49 456.48C101.55 456.59 101.61 456.71 101.67 456.83C101.71 456.91 101.76 457 101.8 457.09C101.97 456.81 102.14 456.56 102.33 456.33C102.4 456.23 102.48 456.14 102.56 456.05C103.74 454.72 104.98 454.41 106.34 453.21C106.34 453.21 106.347 453.207 106.36 453.2C107.3 453.88 107.94 454.03 108.27 453.67H108.28C108.46 453.47 108.55 453.12 108.56 452.62C108.62 452.25 108.72 451.9 108.85 451.57C109.12 450.87 109.53 450.25 110.08 449.68C111.78 446.57 113.11 441.5 115.52 439.04C119.58 434.91 122.64 435.7 125.27 437.87C125.28 437.87 125.28 437.88 125.29 437.88C129.06 441.01 131.95 446.97 135.63 445.37C138.35 444.19 138.27 436.15 143.22 439.18C144.7 440.09 144.86 440.9 144.61 441.7C144.62 441.71 144.61 441.72 144.61 441.72C144.29 442.74 143.33 443.76 143.71 444.97C143.75 445.09 143.78 445.19 143.81 445.29C144.36 446.95 144.53 446.69 145.64 448.24C145.66 448.26 145.67 448.29 145.7 448.31C146.79 449.75 148.12 448.96 148.5 450.82C148.54 451.05 148.57 451.32 148.59 451.64C148.61 452.17 148.27 452.66 147.86 453.11C147.3 453.74 146.62 454.3 146.67 454.81C146.71 455.22 146.79 455.58 146.91 455.89C147.03 456.2 147.19 456.47 147.38 456.71C147.89 457.35 148.65 457.73 149.53 457.92C150.89 458.24 152.52 458.13 153.98 457.93H153.99C153.99 457.93 154 457.93 154.01 457.92C154.66 457.84 155.28 457.73 155.81 457.64C158.06 457.25 158.88 456.81 160.68 456.97C160.74 456.98 160.81 456.98 160.87 456.99C161.31 457.04 161.67 458.1 162.53 458.47C162.69 458.55 162.86 458.59 163.05 458.61C164.31 458.7 165.5 458.4 166.76 458.17H166.78C167.86 457.96 169.01 457.81 170.31 457.99C171.44 458.14 172.22 458.28 172.91 458.36H172.92C174.07 458.5 174.96 458.46 176.73 458C176.8 457.98 176.88 457.96 176.95 457.93C178.05 457.57 179.27 456.63 180.43 456.4C180.73 456.34 181 456.33 181.24 456.35C181.24 456.36 181.25 456.36 181.25 456.36H181.26C182.41 456.48 182.98 457.36 184.71 456.44C186.72 455.35 186.69 452.95 189.25 451.94C189.89 451.69 190.6 451.54 191.34 451.48C191.37 451.48 191.41 451.47 191.44 451.47C191.46 451.47 191.48 451.46 191.51 451.46C192.49 451.4 193.51 451.49 194.45 451.7C194.59 451.73 194.74 451.77 194.88 451.82C194.9 451.82 194.93 451.83 194.95 451.84C195.22 451.91 195.47 452 195.71 452.09C199.81 453.68 201.57 456.76 202.62 460.32C202.64 460.41 202.67 460.5 202.69 460.59C202.81 461.01 202.92 461.43 203.02 461.85C204.25 467 204.49 472.81 208.17 476.45C209.4 477.66 210.79 478.42 212.14 479.2C213.7 480.1 215.22 481.03 216.41 482.73C217.98 484.97 218.05 486.66 220.16 488.62C221.85 490.2 224.03 490.62 225.03 492.95C225.82 494.79 225.27 498.36 224.38 500.84C224.14 501.51 223.87 502.1 223.6 502.56C221.96 505.31 223.44 503.57 220.3 505.23C219.17 505.83 218.26 505.32 217.11 506.17C215.23 507.58 215.76 510.41 213.15 511.43C210.2 512.59 208.74 509.06 206.47 509.52C203.53 510.11 206.15 516.14 207.29 517.82C211.84 524.5 213.97 518.14 218.96 517.09C225.35 515.74 225.47 520.87 224.33 524.83V524.84Z" fill="#264755" stroke="#ECF0B7" stroke-linecap="round" stroke-linejoin="round"/>
<path d="M65.3701 130.34C65.2001 130.5 57.2401 133.31 57.2201 133.31C53.7601 132.87 53.5501 129.82 55.5701 127.18C58.2101 123.75 72.0601 124.21 65.3601 130.34H65.3701Z" fill="#264755" stroke="#ECF0B7" stroke-linecap="round" stroke-linejoin="round"/>
<path d="M53.6301 145.4C53.1501 145.75 48.9001 145.06 48.6701 144.32C47.5201 140.74 57.9401 142.25 53.6301 145.4Z" fill="#264755" stroke="#ECF0B7" stroke-linecap="round" stroke-linejoin="round"/>
<path d="M60.0399 149.91C61.2199 146.83 55.39 146.02 55.59 148.24C55.67 149.13 59.5299 151.25 60.0399 149.91Z" fill="#264755" stroke="#ECF0B7" stroke-linecap="round" stroke-linejoin="round"/>
<path d="M67.6302 140.43C69.3002 142.05 74.4502 142.49 71.0902 146.25C67.8302 149.91 67.8302 145.36 66.4902 144.01C64.7602 142.27 62.8802 141.81 62.6202 138.91C62.5402 138.08 63.9402 131.74 66.1802 133.06C68.2002 134.25 65.9102 138.75 67.6302 140.42V140.43Z" fill="#264755" stroke="#ECF0B7" stroke-linecap="round" stroke-linejoin="round"/>
<path d="M74.6701 164.01C74.5401 162.65 65.8601 158.04 65.3601 161.7C65.4701 160.9 68.9501 166.3 68.4601 166.09C69.3601 166.47 74.8101 165.44 74.6701 164.01Z" fill="#264755" stroke="#ECF0B7" stroke-linecap="round" stroke-linejoin="round"/>
<path d="M82.7801 163.24C82.9101 161.4 79.2401 161.65 78.6301 162.03C77.5601 162.69 78.25 164.16 77.97 164.48C77.93 164.53 76.97 167.39 76.47 168.14C75.59 169.47 72.1501 170.27 71.6701 171.91C70.4701 175.99 75.0301 176.94 78.4201 177.75C80.2901 178.2 81.1701 179.63 83.1301 178.46C85.1501 177.25 83.56 174.21 84.91 173.07C87.1 171.21 88.3101 172.94 90.8201 171.68C91.8901 171.14 94.4801 168.41 93.4801 166.68C92.1501 164.39 90.5701 166.34 89.0101 166.06C87.6101 165.8 86.8201 164.12 85.2001 164.79C83.9201 165.32 84.05 166.99 83.35 167.32C77.58 170.05 82.5901 165.67 82.7701 163.25L82.7801 163.24Z" fill="#264755" stroke="#ECF0B7" stroke-linecap="round" stroke-linejoin="round"/>
<path d="M76.59 185.49C78.5 188.17 80.69 182.22 77.26 180.41C73.5 178.43 75.32 183.7 76.59 185.49Z" fill="#264755" stroke="#ECF0B7" stroke-linecap="round" stroke-linejoin="round"/>
<path d="M62.74 197.97C58.26 200.24 68.04 203.65 69.11 202.92C72.75 200.46 63.84 197.41 62.74 197.97Z" fill="#264755" stroke="#ECF0B7" stroke-linecap="round" stroke-linejoin="round"/>
<path d="M79.2501 197.61C81.3001 195.05 87.8301 196.83 83.9301 201.45C80.2501 205.8 75.9701 201.73 79.2501 197.61Z" fill="#264755" stroke="#ECF0B7" stroke-linecap="round" stroke-linejoin="round"/>
<path d="M45.0402 201.37C42.2502 197.53 39.6702 199.36 41.3602 203.52C43.5202 208.83 45.4802 205.37 48.1202 205.25C48.5202 205.23 53.6102 209.81 51.6202 204.79C50.7502 202.6 46.0202 202.72 45.0402 201.37Z" fill="#264755" stroke="#ECF0B7" stroke-linecap="round" stroke-linejoin="round"/>
<path d="M43.3401 209.71C44.8301 211.2 44.6601 214.42 41.7801 212.66C39.2701 211.13 40.9601 207.32 43.3401 209.71Z" fill="#264755" stroke="#ECF0B7" stroke-linecap="round" stroke-linejoin="round"/>
<path d="M89.2901 146.79C90.0601 148.29 89.6801 153.95 88.1701 154.99C86.5001 156.14 80.9101 154.47 78.7801 154.31C76.6501 154.16 73.4401 154.93 72.3401 152.3C70.8801 148.8 74.0501 150.38 74.5601 148.24C75.6301 143.72 73.8701 143.56 71.2601 140.3C67.3601 135.43 67.7701 126.75 74.9401 124.73C79.2901 123.5 84.5501 126.31 86.8901 130.4C89.7701 135.44 86.5901 141.48 89.3001 146.79H89.2901Z" fill="#264755" stroke="#ECF0B7" stroke-linecap="round" stroke-linejoin="round"/>
<path d="M62.5301 212.22C61.1101 209.27 55.3901 209.96 57.9101 213.07C58.7401 214.1 63.8301 214.93 62.5301 212.22Z" fill="#264755" stroke="#ECF0B7" stroke-linecap="round" stroke-linejoin="round"/>
<path d="M38.3901 221.85C38.1601 219.36 41.2401 219.01 42.4301 220.6C43.5901 222.14 38.6601 224.81 38.3901 221.85Z" fill="#264755" stroke="#ECF0B7" stroke-linecap="round" stroke-linejoin="round"/>
<path d="M231.8 161.21C231.71 161.68 231.57 162.07 231.38 162.39C231.38 162.39 231.38 162.41 231.36 162.42C230.46 163.91 228.57 164.13 227.23 164.96C227.2 164.98 227.18 164.99 227.16 165.01C226.44 165.47 225.9 166.12 225.78 167.26C225.77 167.32 225.76 167.37 225.76 167.43C225.71 167.96 225.76 168.59 225.91 169.35C226.63 172.95 229.12 174.98 228.65 178.38C228.6 178.79 228.51 179.22 228.37 179.67C228.32 179.83 228.26 180 228.2 180.18C228.13 180.35 228.06 180.52 227.98 180.7C227.86 180.96 227.75 181.2 227.63 181.43C225.43 185.95 223.93 185.9 224.35 191.98C224.46 193.54 224.56 195.16 224.39 196.7C224.39 196.75 224.39 196.8 224.38 196.86C224.12 199.02 223.35 200.99 221.36 202.34C221.36 202.36 221.33 202.37 221.32 202.37C221.23 202.44 221.13 202.5 221.03 202.55C221 202.57 220.97 202.59 220.94 202.6C220.89 202.63 220.83 202.66 220.78 202.69C220.63 202.78 220.48 202.85 220.32 202.93C221.01 202.6 221.06 203.98 220.88 205.64C220.73 207.05 220.41 208.67 220.2 209.62C220.17 209.72 220.15 209.82 220.12 209.91C220.08 210.07 220.05 210.2 220.02 210.29C218.79 214.12 216.93 216.29 214.12 215.53C213.99 215.49 213.87 215.45 213.74 215.41C213.56 215.35 213.39 215.28 213.21 215.2C213.07 215.14 212.93 215.07 212.79 214.99C212.1 214.62 211.37 214.11 210.58 213.41C210.49 213.46 210.41 213.52 210.34 213.59C209.99 213.94 209.84 214.53 209.78 215.26C209.61 217.36 210.21 220.59 209.13 222.65C208.94 223.01 208.7 223.33 208.41 223.6C207.32 224.61 206.06 224.6 204.83 224.71C204.04 224.78 203.25 224.89 202.53 225.37C201.03 226.36 201 228.09 199.47 228.82C197.69 229.68 195.72 228.52 193.98 229.23C192.8 229.71 192.25 230.52 191.77 231.36C191.32 232.11 190.94 232.89 190.19 233.49C190.19 233.49 190.183 233.493 190.17 233.5C188.62 234.73 186.88 235.24 185.33 235.91H185.32C184.33 236.34 183.42 236.83 182.7 237.62C182.68 237.64 182.67 237.66 182.65 237.68C181.93 238.54 182.36 239.84 181.95 241.04C181.8 241.46 181.56 241.86 181.14 242.23C180.17 243.09 178.92 243 177.79 243.24C177.45 243.31 177.12 243.41 176.81 243.58C176.68 243.65 176.56 243.72 176.44 243.81C175.03 244.74 174.19 246.31 173.07 246.96C171.01 248.14 172.16 248.76 171.7 248.5C171.49 248.39 170.96 248.11 169.68 247.62C169.6 247.59 169.51 247.56 169.43 247.52C168.04 246.96 166.74 246.19 165.48 245.35C165.47 245.35 165.47 245.34 165.47 245.34C163.71 244.18 162.04 242.9 160.31 241.93C157.68 240.45 154.92 239.7 151.59 241.19C151.56 241.2 151.53 241.22 151.5 241.23C151.4 241.27 151.31 241.32 151.21 241.35C150.92 241.48 150.63 241.6 150.34 241.71C150.27 241.75 150.2 241.78 150.12 241.8C149.09 242.22 148.07 242.55 147.05 242.84C143.96 243.71 140.87 244.14 137.53 244.74C138.66 243.02 138.99 240.5 138.14 238.6C135.27 239.6 136.9 244.31 132.83 245.24C129.91 245.91 125.79 242.86 124.04 240.74C123.18 239.69 122.85 237.42 121.82 236.61C121.17 236.1 119.43 236.15 119.09 235.85C116.6 233.56 116.85 234.93 120.38 232.62C119.45 229.91 116.1 232.3 114.54 231.35C110.48 228.88 114.4 229.34 114.86 226.16C115.1 224.5 113.91 221.77 114.4 220.37C115.28 217.87 118.03 217.85 118.77 215.88C120.04 212.5 116.93 211.3 114.23 211.84C111.89 212.31 110.75 215.71 109.62 217.21C102.75 226.37 107.81 214.07 106.91 213.29C106 213.27 105.18 213.56 104.46 214.15C103.25 213.73 102.72 212.86 102.86 211.53C100.84 208.83 102.69 205.19 98.3001 204.64C96.5401 204.42 91.6201 211.32 89.8501 206.33C89.8501 206.23 91.3001 200.79 91.4201 200.51C92.9401 196.76 91.6901 195.77 96.3101 196.44C95.7201 196.44 100.01 198.71 100.01 198.44C100.91 199.6 100.42 202.98 101.88 203.25C104.89 199.8 100.41 197.03 105.8 195.86C106.46 195.72 115.01 199.46 115.27 195.08C115.49 191.36 105.71 193.29 105.12 189.84C104.69 187.35 110.41 185.67 108.8 183.91C108.48 184 108.14 184.09 107.79 184.17C107.24 184.3 105.06 183.74 104.16 183.73C102.92 183.73 102.98 185.91 101.38 185.71C96.1201 185.03 100.55 181.24 99.6501 178.58C98.5901 175.43 95.8501 175.46 95.3101 171.36C95.0101 169.17 94.8201 165.73 95.2701 163.5C95.5601 162.04 95.6301 161.23 95.7601 160.7C95.7001 160.73 95.6401 160.74 95.5801 160.76C94.6501 154.53 90.4002 149.92 90.0302 143.44C89.9002 141.23 89.3601 134.93 91.2401 133.29C92.4601 132.22 95.6501 133.76 97.0501 133.5C103.33 132.33 102.86 129.69 104.04 138.37C104.86 144.37 106.68 149.43 113.96 150.39C112.51 147.42 109.98 147.14 108.12 145.07C105.42 142.06 106.02 143.7 105.85 138.74C105.71 134.52 104.97 128.38 106.09 124.3C106.42 123.09 108.6 123.11 108.7 122.2C108.76 121.55 106.5 118.45 106.32 117.73C105.85 115.82 106.06 112.57 106.35 110.69C107.06 106.16 105.84 107.65 109.55 106.02C114.77 103.72 119.3 103.93 123.16 98.9799C126.26 95.0199 126.33 89.8499 129.71 86.1299C131.12 84.5699 135.94 82.4699 136.83 80.6999C137.62 79.1399 136.08 76.6399 136.56 75.0899C137.49 72.0699 140.74 70.1699 143.17 68.1099C143.32 68.2599 143.46 68.4099 143.58 68.5699C145.82 71.2199 146.19 74.7799 148.49 77.2699C149.06 77.8899 149.72 78.7499 150.41 79.6499C151.61 81.1999 152.9 82.8799 154.04 83.7399C156.77 85.7999 158.1 85.8599 158.74 84.9399C158.74 84.9299 158.75 84.9299 158.75 84.9299C159.59 83.7099 159.26 80.8599 159.37 78.5899V78.5599C159.41 77.5699 159.54 76.6999 159.88 76.1399C159.92 76.0599 159.98 75.9899 160.04 75.9199C160.14 75.9299 160.24 75.9499 160.34 75.9799C160.39 75.9899 160.45 76.0099 160.5 76.0299C160.6 76.0599 160.7 76.1099 160.8 76.1599C160.89 76.1999 160.98 76.2499 161.07 76.3099C161.17 76.3799 161.26 76.4499 161.35 76.5299L161.56 76.7399C161.66 76.8399 161.75 76.9499 161.83 77.0699C161.88 77.1299 161.92 77.1899 161.96 77.2599C162.04 77.3699 162.11 77.4899 162.18 77.6099C162.19 77.6199 162.2 77.6299 162.2 77.6399C162.32 77.8399 162.43 78.0399 162.53 78.2399C162.65 78.4499 162.76 78.6599 162.88 78.8699C162.96 79.0399 163.05 79.1999 163.15 79.3499C163.22 79.4699 163.29 79.5799 163.37 79.6899C163.43 79.7799 163.5 79.8699 163.57 79.9499C163.7 80.1199 163.85 80.2799 164.02 80.3999C164.1 80.4699 164.19 80.5299 164.28 80.5799C164.33 80.6199 164.39 80.6499 164.45 80.6799C164.56 80.7399 164.68 80.7799 164.8 80.8199C165.37 80.9899 165.89 80.9399 166.39 80.7499C166.47 80.7199 166.54 80.6899 166.61 80.6599H166.62C166.83 80.5599 167.04 80.4399 167.24 80.2999C167.24 80.2999 167.243 80.2999 167.25 80.2999C167.35 80.2299 167.45 80.1599 167.55 80.0799C167.92 79.8099 168.28 79.4699 168.64 79.1299C168.77 79.0099 168.9 78.8799 169.03 78.7599C169.34 78.4499 169.66 78.1499 169.98 77.8899C170.07 77.8099 170.17 77.7299 170.27 77.6599C170.64 77.3799 171.01 77.1599 171.4 77.0599C171.49 77.0299 171.57 77.0099 171.66 76.9999C171.77 76.9799 171.87 76.9699 171.98 76.9699C172.29 76.9699 172.61 77.0399 172.95 77.2099C172.89 77.3899 172.83 77.5899 172.75 77.7999C172 80.0799 170.92 82.3999 172.03 84.5199C172.36 85.1599 174.85 86.8399 176.34 87.5099C176.44 87.5599 176.53 87.5899 176.61 87.6199C176.7 87.6499 176.78 87.6799 176.86 87.7099C176.87 87.7099 176.89 87.7199 176.9 87.7199C176.95 87.7299 176.99 87.7399 177.03 87.7499C177.1 87.7699 177.17 87.7799 177.23 87.7799H177.28C177.66 87.7499 178.08 87.5099 178.51 87.1799C179.82 86.2199 181.22 84.3999 182.29 84.5599C182.31 84.5599 182.33 84.5599 182.36 84.5699C182.38 84.5699 182.4 84.5899 182.43 84.5999C182.48 84.6099 182.53 84.6299 182.58 84.6699C182.65 84.7099 182.71 84.7599 182.78 84.8199C182.8 84.8399 182.82 84.8599 182.85 84.8899C182.88 84.9199 182.9 84.9499 182.92 84.9799C182.97 85.0399 183.02 85.1199 183.07 85.1999C183.11 85.2599 183.14 85.3299 183.17 85.3999C183.21 85.4799 183.25 85.5599 183.28 85.6599C183.3 85.6999 183.32 85.7499 183.33 85.7999C183.35 85.8399 183.37 85.8999 183.38 85.9499C183.41 86.0199 183.43 86.0999 183.45 86.1799C183.51 86.3899 183.56 86.6199 183.61 86.8699C183.64 86.9899 183.66 87.1299 183.68 87.2699C183.7 87.3799 183.72 87.4899 183.73 87.5999C183.75 87.7099 183.77 87.8299 183.78 87.9499C184.14 87.5899 184.49 87.2799 184.82 87.0199C186.76 85.4099 187.92 85.4599 188.62 86.3699C188.64 86.3899 188.66 86.4099 188.67 86.4299C189.5 87.5399 189.7 89.8299 189.82 92.0099C190.06 96.5299 190.65 97.8099 193.41 98.9599C194.04 99.2399 194.8 99.5099 195.72 99.7999C197.54 100.4 198.66 99.4499 199.83 99.8699C199.87 99.8799 199.92 99.9099 199.96 99.9299C200.42 100.13 200.88 100.56 201.41 101.38C201.98 102.29 200.9 103.64 200.99 104.73C201 104.99 201.09 105.23 201.28 105.45C202.8 107.22 206.01 107.67 207.69 109.41H207.7C208.54 110.3 209 111.51 208.66 113.38C208.47 114.45 207.96 115.28 207.26 115.97C207.11 116.12 206.96 116.26 206.8 116.39C206.73 116.45 206.66 116.51 206.59 116.56C206.47 116.65 206.35 116.74 206.22 116.83C206.03 116.96 205.83 117.08 205.62 117.2C205.42 117.33 205.2 117.44 204.98 117.56C203.18 118.51 201.12 119.2 199.72 120.23C199.67 120.26 199.62 120.3 199.58 120.34C199.46 120.43 199.35 120.52 199.25 120.63C198.81 121.02 198.46 121.48 198.27 122.02C197.38 124.46 199.94 126.84 199.81 129.22C199.76 130.14 199.26 130.89 198.82 131.64C198.53 132.13 198.27 132.62 198.16 133.16C198.15 133.2 198.14 133.23 198.13 133.28C197.84 134.22 196.48 135.5 196.39 136.62C196.39 136.64 196.38 136.67 196.38 136.69C196.38 136.85 196.4 137 196.45 137.15C197.2 139.19 198.27 138.05 199.33 137.84H199.35C199.8 137.75 200.26 137.85 200.69 138.45C202.56 141.1 200.35 143.18 199.68 145.88C198.81 149.4 198.22 150.15 201.2 149.98C201.42 149.98 201.66 149.96 201.91 149.93C201.96 149.93 202 149.92 202.05 149.92C203.45 149.8 204.57 149.5 205.58 149.27C207.49 148.83 209.04 148.6 211.43 150.14C211.46 150.16 211.5 150.18 211.53 150.2C211.61 150.25 211.68 150.3 211.76 150.36C211.98 150.52 212.21 150.68 212.45 150.87C215.69 153.38 216.68 155.23 220.25 156.14C220.66 156.25 221.1 156.35 221.57 156.44C221.83 156.49 222.13 156.52 222.46 156.55C222.63 156.56 222.82 156.57 223.02 156.58C223.25 156.59 223.49 156.6 223.75 156.61C227.31 156.78 232.56 156.98 231.8 161.21Z" fill="#264755" stroke="#ECF0B7" stroke-linecap="round" stroke-linejoin="round"/>
<path d="M225.91 216.2C229.07 217.56 239.21 215.46 241.67 212.84C244.5 209.81 243.04 199.2 249.96 202.16C252.23 203.13 252.71 206.63 254.49 208.06C258.34 211.16 258.03 208.75 261.24 207.25C261.88 206.12 262.81 205.25 264.01 204.66C265.54 204.43 266.7 204.96 267.49 206.23C269.76 205.48 269.19 203.01 272.05 203.08C275.29 203.16 276.39 206.93 279.86 206.78C282.24 206.68 286.08 203.04 284.8 207.84C283.97 210.94 276.81 213.29 283.4 215.64C285.85 216.52 288.24 214.15 290.67 214.6C293.92 215.21 292.51 216.92 294.84 217.94C299.67 220.06 303.35 217.85 308.65 220.62C313.35 223.08 318.79 223.42 323.17 226.18C326.72 228.41 328.95 233.9 332.88 229.14C336.1 225.24 331.02 217.22 337.92 216.9C345.04 216.57 342.46 225.35 347.01 226.74C348.62 227.23 351.02 224.57 352.41 224.21C355.29 223.45 357.29 224.3 360.05 224.56C366.14 225.14 370.27 220.24 375.72 223.28C380.12 225.73 381.2 231.96 386.6 226.31C390.76 221.97 391 216.82 397.73 214.52C394.2 209.6 397.82 202.43 394.01 196.77C391.95 193.71 389.31 191.96 387.87 188.46C387.12 186.64 388.18 185.3 386.86 183.35C385.89 181.92 383.54 181.71 382.35 180.45C380.44 178.43 380.28 175.73 378.82 173.47C377.09 170.8 374.18 169.34 372.96 166.14C371.7 162.85 372.83 159.54 370.97 156.56C368.87 153.19 365.92 152.46 364.83 148.3C363.94 144.89 365.39 144.59 362.35 141C359.85 138.05 356.86 135.87 354.26 133.06C348.34 126.65 344.4 119.09 340.31 111.9C336.03 104.37 327.92 99.28 324.21 91.23C322.63 87.81 321.65 86.45 319.33 83.53C316.31 79.74 317.15 76.32 315.71 72C313.18 64.38 308.24 55.78 304.41 48.64C300.45 41.26 297.87 33.73 294.95 25.97C293.92 23.23 290.76 14.87 287.22 16.17C283.47 17.55 285.18 23.79 284.96 26.4C284.63 30.34 283.65 35.16 281.98 38.79C278.29 46.81 270.52 50.68 263.26 54.52C260.61 55.92 258.73 57.31 255.81 57.97C250.3 59.22 244.8 56.42 239.36 57C235.81 57.38 233.51 59.13 229.83 58.44C225.96 57.72 223.67 56.52 219.31 56.61C214.93 56.7 210.62 56.17 206.23 55.98C204.52 55.91 202.9 55.51 201.2 55.94C199.59 56.35 198.21 58.29 196.72 58.52C192.78 59.11 189 55.51 184.72 55.38C180.07 55.24 176.11 56.71 171.45 56.35C167.01 56.01 164.63 58.41 160.44 58.86C154.85 59.45 152.86 60.05 148.18 63.94C147.27 64.7 143.37 67.42 143.2 68.14C143.39 67.31 146.26 75.51 146.11 75.3C147.64 77.49 150.82 79.8 152.7 81.86C154.21 83.5 157.23 87.33 159.53 84.19C161.25 81.84 158.01 78.38 160.06 75.95C162.63 76.3 162.56 80.19 164.81 80.85C168.08 81.81 169.96 75.72 172.97 77.24C172.43 78.99 170.81 82.07 171.45 84.01C171.79 85.02 176.36 87.89 177.29 87.81C179.53 87.61 182.88 80.51 183.79 87.98C187.64 84.21 189.64 85.91 190 90.47C190.48 96.73 189.85 97.99 195.74 99.84C197.49 100.39 199.17 98.67 200.75 100.67C201.93 102.17 200.38 103.65 201.03 104.82C202.87 108.13 208.44 106.99 208.62 112.23C208.85 118.74 200.18 117.68 198.28 122.05C197.09 124.78 199.75 128.94 198.67 132.35C198.36 133.32 195.93 135.92 196.46 137.18C197.42 139.44 198.75 136.9 200.09 138.28C202.7 140.98 200.41 142.63 199.69 145.91C197.83 154.38 205.7 146.46 211.53 150.23C215.62 152.87 216.53 155.55 221.57 156.47C224.34 156.98 231.46 155.8 231.94 160.34C232.4 164.63 225.64 163.13 225.71 168.21C225.78 172.95 230.41 175.35 227.98 180.73C225.98 185.14 223.69 185.31 224.06 190.72C224.37 195.27 225.66 200.43 220.32 202.96C219.93 203.15 223.44 215.17 225.9 216.23L225.91 216.2Z" fill="#264755" stroke="#ECF0B7" stroke-linecap="round" stroke-linejoin="round"/>
<path d="M239.5 373.2C239.5 373.26 239.5 373.32 239.49 373.38C239.48 373.44 239.47 373.5 239.46 373.55C239.45 373.63 239.44 373.71 239.42 373.79C239.37 374.03 239.3 374.26 239.2 374.49C238.47 376.23 236.65 376.75 235.91 378.91C235.99 380.48 235.94 382.05 235.77 383.61C235.55 383.83 235.32 384.02 235.08 384.19C235.07 384.19 235.06 384.2 235.05 384.2C234.19 384.79 233.19 384.99 232.07 384.83C231.07 385.42 230.2 386.02 229.33 386.65C228.5 387.24 227.67 387.86 226.58 388.69C226.04 389.07 225.53 389.45 225.04 389.8C223.46 390.91 221.77 392.02 220.3 393.11C219.17 393.95 215.28 395.65 214.55 396.5C214.18 396.93 213.96 397.41 213.85 397.9C213.85 397.91 213.84 397.92 213.84 397.94C213.49 399.45 214.09 401.16 213.8 402.74C213.54 404.09 212.89 405.55 212.15 407C212.15 407.02 212.13 407.03 212.12 407.05C211.32 408.64 210.42 410.23 209.88 411.68C209.61 412.41 209.3 413.17 208.99 413.94C208.97 413.99 208.94 414.05 208.92 414.11C208.27 415.7 207.6 417.34 207.12 418.97C207.05 419.16 207 419.35 206.96 419.54C206.93 419.66 206.9 419.79 206.87 419.92C206.8 420.17 206.75 420.42 206.7 420.67C206.66 420.86 206.63 421.06 206.6 421.24C206.06 424.38 206.55 425.53 207.54 426.99C208.15 427.89 208.95 428.92 209.8 430.61C210.07 431.15 210.24 431.69 210.34 432.21C210.78 434.64 209.69 436.83 210.36 438.95C210.36 438.95 210.37 438.97 210.37 438.98C210.63 439.66 212.97 441.53 213.08 441.53C213.09 441.63 213.11 441.73 213.12 441.83C213.64 446.16 210.98 444.26 209.7 447.51C209.64 447.66 209.59 447.81 209.55 447.96C209.51 448.11 209.47 448.25 209.45 448.4C209.07 450.32 209.79 452.21 209.74 454.14V454.18C209.72 454.98 209.56 455.79 209.13 456.6C208.5 457.78 204.34 461.07 202.74 460.41H202.73C202.73 460.41 202.66 460.37 202.62 460.33C202.07 459.79 201.15 456.94 200.73 456.35C199.31 454.33 197.3 452.61 194.95 451.85C194.93 451.84 194.9 451.83 194.88 451.83C194.74 451.78 194.59 451.74 194.45 451.71C193.51 451.46 192.52 451.37 191.51 451.47C191.48 451.47 191.46 451.48 191.44 451.48C191.41 451.48 191.37 451.49 191.34 451.49C187.27 452.01 186.9 456.02 183.83 456.95C182.75 457.28 182.02 456.76 181.26 456.37H181.25C181.25 456.37 181.24 456.37 181.24 456.36C180.74 456.11 180.24 455.91 179.59 456.05C178.53 456.27 177.75 457.6 176.95 457.94C176.88 457.97 176.8 457.99 176.73 458.01C175.55 458.22 174.26 458.33 172.92 458.37H172.91C170.91 458.43 168.8 458.33 166.78 458.18H166.76C165.93 458.11 165.14 458.04 164.36 457.96C163.82 457.91 163.2 458.31 162.53 458.48C162.29 458.55 162.04 458.59 161.78 458.56C161.24 458.51 161.09 457.62 160.68 456.98C160.46 456.64 160.18 456.37 159.73 456.31C157.77 456.04 155.96 457.23 154.01 457.93C154.01 457.93 154.004 457.933 153.99 457.94H153.98C152.6 458.43 151.15 458.67 149.53 457.93C149.5 457.92 149.46 457.91 149.43 457.89C148.4 457.4 147.76 457.03 147.38 456.72C146.98 456.4 146.87 456.15 146.91 455.9C147.01 455.29 148.03 454.73 147.87 453.27C147.86 453.22 147.86 453.17 147.86 453.12C147.86 452.32 148.37 451.64 148.5 450.84C148.58 450.37 148.52 449.88 148.15 449.3C147.68 448.56 146.64 448.5 145.7 448.32C145.06 448.18 144.47 447.99 144.13 447.48C143.7 446.83 143.68 446.09 143.81 445.31C144.02 444.13 144.57 442.88 144.61 441.73C144.61 441.73 144.62 441.72 144.61 441.71C144.66 440.77 144.35 439.89 143.22 439.19C136.24 434.85 138.54 451.91 130.09 441.94C128.56 440.13 126.92 438.76 125.29 437.89C125.28 437.89 125.28 437.88 125.27 437.88C120.85 435.54 116.34 436.87 113.3 443.1C111.89 445.99 111.28 449.13 108.85 451.58C109.01 452.88 108.82 453.58 108.28 453.68H108.27C108.03 453.73 107.7 453.65 107.31 453.45C106.99 453.28 106.67 453.2 106.36 453.21C106.36 453.21 106.354 453.213 106.34 453.22C106.02 453.23 105.69 453.35 105.38 453.57C104.3 454.4 103.37 455.07 102.56 456.06C102.48 456.15 102.4 456.24 102.33 456.34C102.14 456.57 101.97 456.82 101.8 457.1C101.76 457.01 101.71 456.92 101.67 456.84C101.61 456.72 101.55 456.6 101.49 456.49C101.39 456.3 101.3 456.12 101.2 455.95C100.43 454.61 99.7802 454.04 99.1902 453.97H99.1802C98.1202 453.85 97.2502 455.34 96.2202 456.86C94.8902 458.8 93.3102 460.74 90.7302 459.47C90.7202 459.47 90.7203 459.46 90.7103 459.46H90.7003C90.7003 459.45 90.6902 459.45 90.6902 459.45C90.4002 459.3 90.1003 459.11 89.7803 458.88C85.8003 455.93 86.2202 449.49 83.6802 445.44C83.5902 445.31 83.5102 445.19 83.4202 445.06C82.3102 443.49 80.6703 442.35 78.0303 442.01C80.1503 436.73 82.3603 431.26 88.0303 428.93C91.9103 427.34 98.2803 427.72 100.89 423.84C101.92 422.31 104 423.74 101.05 421.51C99.1102 420.05 93.0903 421.37 91.0803 421.66C87.2403 422.22 78.6702 421.86 81.0002 415.44C81.4402 414.21 86.5803 412.21 87.8403 411.16C90.1103 409.27 91.6602 407.42 94.1002 405.82C96.4502 404.26 97.7403 404.22 99.0203 401.52C101.08 397.15 98.6702 395.5 104.66 394.66C107.48 394.26 115.11 397.55 116.2 396.71C119.21 394.4 109.41 391.28 108.69 390.04C104.95 383.64 112.64 386.98 115.6 385.89C116.7 385.49 121.67 379.87 120.58 379.04C118.48 377.44 116.18 381.59 114.43 381.97C112.36 382.42 111.24 381.42 109.3 381.35C106.46 381.25 100.87 384.45 98.7003 382.1C96.8903 380.15 99.0703 377.26 97.2603 375.42C96.0603 374.21 93.4703 375.22 91.8203 374.23C86.4003 370.95 93.3403 370.98 96.2003 370.66C101.5 370.07 108.14 370.03 112.95 367.61C112.95 367.53 117.08 364.59 117.34 364.41C116.96 364.75 122.14 364.19 119.71 362.86C125.65 359.35 125.97 352.16 130.97 348.5C133.3 346.8 135.23 346.96 137.89 347.2C140.32 347.41 145.02 347.34 147.36 347.87C147.46 347.89 147.56 347.91 147.66 347.94C149.28 348.38 150.31 349.31 151.23 350.38C152.92 352.31 154.23 354.69 157.99 355.39C159.53 355.67 161.4 355.72 163.22 355.59H163.24C164.75 355.48 166.23 355.25 167.47 354.93C167.77 354.85 168.17 354.67 168.63 354.43C170.56 353.41 173.54 351.32 174.6 351.57C175.66 351.83 176.06 352.35 176.2 353.01C176.47 354.22 175.92 355.9 177 357.31C178.49 359.25 181.04 360.74 183.11 362.5C183.62 362.92 184.1 363.36 184.52 363.83C187.68 367.29 190.79 368.85 194.77 368.92C194.78 368.93 194.79 368.93 194.8 368.92C196.27 368.96 197.87 368.78 199.63 368.42C202.03 367.93 204.32 366.56 206.56 365.12C208.44 363.91 210.29 362.65 212.11 361.83C212.19 361.79 212.27 361.76 212.35 361.72C212.74 361.55 213.14 361.4 213.54 361.28C214.2 361.07 214.87 360.94 215.53 360.91C215.72 360.91 215.92 360.91 216.12 360.91C216.27 361.45 216.38 362 216.48 362.56C216.51 362.75 216.53 362.94 216.56 363.13C217.61 364.05 218.77 364.17 220.06 363.49C220.07 363.5 220.09 363.5 220.1 363.5C220.1 363.5 220.1 363.5 220.1 363.51C220.56 363.73 225.04 366.04 225.04 366.06C226.77 366.15 228.01 365.68 229.1 365.22C230.04 364.82 230.87 364.43 231.82 364.42H231.84C232.74 364.42 233.74 364.77 235.04 365.77C235.14 365.85 235.24 365.94 235.35 366.03C235.53 366.17 235.72 366.33 235.91 366.51C235.95 366.54 235.98 366.58 236.02 366.61H236.03C237.59 368.05 239.29 370 239.48 372.22C239.51 372.59 239.52 372.92 239.49 373.21L239.5 373.2Z" fill="#264755" stroke="#ECF0B7" stroke-linecap="round" stroke-linejoin="round"/>
<path d="M322.36 225.58C322.36 225.58 322.3 225.64 322.27 225.67C321.8 226.16 321.28 226.5 320.75 226.76C320.75 226.76 320.74 226.76 320.73 226.76C319.72 227.24 318.62 227.41 317.58 227.69C317.53 227.69 317.47 227.72 317.42 227.74C316.68 227.94 315.95 228.21 315.3 228.7C313.4 230.11 313.52 230.73 312.85 232.18C312.84 232.19 312.84 232.2 312.83 232.22C312.68 232.55 312.49 232.92 312.23 233.35C309.62 237.66 307.2 238.34 302.92 241.04C296.04 245.4 298.55 246.68 298.24 253.72C298.22 254.06 298.18 254.4 298.11 254.73C297.69 256.61 296.44 258.41 294.75 259.7C294.7 259.73 294.65 259.75 294.6 259.78C292.75 261.15 290.4 261.93 288.13 261.64C288.11 261.64 288.09 261.65 288.06 261.64C287.85 261.62 287.65 261.58 287.44 261.54C284.19 260.84 283.69 257.21 281.45 255.3C281.39 255.25 281.34 255.2 281.27 255.15C280.45 254.52 279.41 254.11 277.95 254.13C277.45 254.13 276.96 254.2 276.47 254.32C276.43 254.32 276.41 254.33 276.38 254.34C273.02 255.18 269.79 258.24 266.21 258.89H266.13C266.13 258.89 266.08 258.92 266.03 258.93C264.5 259.17 262.6 259.08 260.77 259.26H260.75C258.64 259.45 256.62 259.98 255.31 261.74C254.67 262.6 254.43 263.52 254.47 264.45C254.48 265.23 254.68 266.01 254.96 266.77C254.96 266.79 254.97 266.8 254.98 266.81C256.07 269.65 258.41 272.26 257.67 273.36C257.67 273.35 257.56 273.34 257.34 273.33C257.17 273.32 256.96 273.3 256.7 273.28C256.42 273.26 256.07 273.23 255.66 273.2C255.48 273.18 255.29 273.16 255.09 273.15C254.89 273.13 254.66 273.11 254.41 273.09C254.11 273.07 253.79 273.04 253.46 273.01C253.1 272.97 252.74 272.94 252.37 272.9C251.44 272.8 250.46 272.67 249.55 272.53C249.25 272.48 248.95 272.43 248.67 272.38C247.83 272.23 247.09 272.06 246.56 271.85C246.39 271.79 246.23 271.72 246.1 271.65C246.06 271.63 246.02 271.6 245.99 271.58C245.89 271.52 245.81 271.45 245.76 271.38C245.72 271.33 245.7 271.29 245.69 271.24C245.68 271.54 245.66 271.81 245.62 272.07C245.25 274.62 243.57 274.9 241.82 275.29C241.79 275.3 241.76 275.3 241.73 275.3C240.89 275.49 240.05 275.71 239.32 276.22C236.55 278.15 238.12 278.83 236.47 281.73C236.34 281.96 236.18 282.17 235.99 282.37C235.98 282.37 235.98 282.38 235.98 282.39C235.01 283.4 233.44 284.01 231.99 284.61C231.97 284.62 231.95 284.62 231.94 284.62C229.61 285.57 227.61 286.43 229.15 288.72C229.2 288.79 229.27 288.87 229.33 288.95C229.5 289.17 229.7 289.41 229.93 289.66C231.32 291.15 233.15 292.13 234.79 293.2C234.8 293.2 234.8 293.21 234.81 293.21C235.99 293.97 237.07 294.78 237.85 295.85C237.85 295.86 237.87 295.88 237.88 295.9C238.51 296.78 238.93 297.84 239.01 299.2C239.03 299.38 239.03 299.56 239.03 299.76C239.03 300.02 239.02 300.28 239.01 300.54C238.8 304.44 237.22 308.64 236.87 312.55C236.85 312.8 236.83 313.04 236.81 313.28C236.81 313.31 236.81 313.33 236.8 313.36C236.77 313.74 236.74 314.13 236.71 314.5C236.7 314.55 236.7 314.6 236.7 314.66C236.49 317.49 236.31 320.05 235.47 322.79C235.39 323.08 235.29 323.36 235.19 323.65C232.95 330.01 233.88 330.07 236.24 329.74C236.25 329.74 236.26 329.73 236.27 329.73C237.87 329.51 240.13 329.11 242.5 330.36H242.51C242.62 330.41 242.74 330.48 242.86 330.55C243.35 330.85 243.73 331.45 244.13 332.04C244.53 332.62 244.94 333.18 245.51 333.37C245.68 333.43 245.84 333.47 245.99 333.49H246C247.22 333.71 247.86 332.95 248.95 333.14C249.15 333.18 249.33 333.18 249.49 333.17C250.3 333.13 250.77 332.65 251.56 332.76C251.9 332.8 252.3 332.95 252.8 333.29C253.28 333.61 253.74 334.5 254.1 335.45C254.3 335.97 254.48 336.52 254.62 337C254.66 337.16 254.7 337.31 254.74 337.45C254.78 337.62 254.82 337.78 254.85 337.93C254.91 338.2 255 338.41 255.12 338.59C255.72 339.76 256.92 339.73 255.11 341.15C255.01 341.23 254.9 341.31 254.78 341.4C254.05 341.93 252.47 341.4 251.59 341.36H251.57C251.34 341.35 251.16 341.38 251.05 341.46C248.45 343.36 250.13 343.39 249.71 346.61C249.26 350.06 248.08 354.01 246.09 357.05C244.7 359.2 242.9 360.89 240.68 361.63C239.91 361.89 239.1 362.64 238.35 363.51C238.34 363.51 238.33 363.51 238.33 363.52C237.4 364.6 236.57 365.86 236.04 366.6C236.03 366.6 236.03 366.61 236.03 366.61C235.79 366.39 235.57 366.19 235.36 366.01C235.25 365.92 235.15 365.83 235.05 365.75C233.45 364.4 232.75 364.19 231.85 364.4H231.83C231.18 364.55 230.41 364.91 229.11 365.2C228.92 365.24 228.72 365.28 228.5 365.32C224.94 365.94 226.53 365.37 223.4 364.36C222.35 364.02 221.21 363.74 220.11 363.49C220.11 363.48 220.11 363.48 220.11 363.48C220.1 363.48 220.08 363.48 220.07 363.47C218.77 363.17 217.52 362.89 216.49 362.54H216.48C216.48 362.54 215.95 361.39 215.54 360.89C215.46 360.8 215.39 360.73 215.33 360.7C214.67 360.33 214.06 360.81 213.55 361.26C213.14 361.61 212.8 361.94 212.53 361.81C212.48 361.78 212.42 361.75 212.36 361.7C211.65 361.18 210.54 359.45 209.43 357.38C207.64 354.04 205.86 349.78 205.78 348.11C205.59 344.1 206.77 343.23 204.91 340.63C204.72 340.36 204.49 340.07 204.22 339.75C203.59 339 202.34 338.69 201.6 337.82C201.43 337.62 201.29 337.41 201.17 337.19C200.72 336.38 200.57 335.5 200.11 334.72C200.01 334.54 199.88 334.37 199.73 334.21C199.67 334.13 199.59 334.05 199.5 333.97C199.49 333.96 199.48 333.95 199.47 333.95C199.39 333.88 199.31 333.81 199.24 333.76C197.09 331.94 195.48 332.77 194.75 330.55C194.65 330.24 194.56 329.86 194.49 329.41C194.16 327.25 196.23 322.58 196.99 320.79C197.25 320.18 197.59 319.55 197.95 318.9C197.96 318.89 197.96 318.88 197.97 318.86C198.97 317.07 200.1 315.16 200 313.21C199.98 312.72 199.88 312.22 199.67 311.72C197.67 306.85 197.82 312.44 196.53 312.95C196.26 313.06 196.02 313.15 195.8 313.22C193.62 313.92 193.29 312.97 191.82 310.91C191.77 310.84 191.72 310.76 191.66 310.68C191.22 310.07 191.06 309.16 190.78 308.32C190.55 307.62 190.24 306.97 189.6 306.61C188.18 305.78 187.61 306 187.15 306.35C186.7 306.69 186.34 307.15 185.41 306.88C185.38 306.87 185.35 306.86 185.32 306.85C182.68 306.09 184 306.49 182.41 303.81C182.31 303.65 182.17 303.42 182 303.14H181.99C181.89 302.96 181.78 302.78 181.67 302.58C181.65 302.55 181.63 302.53 181.62 302.5C181 301.44 180.27 300.03 180.08 298.8C179.92 297.79 180.13 296.9 181.05 296.43C181.16 296.38 181.27 296.33 181.4 296.29C181.34 296.13 181.27 295.98 181.19 295.86C181.09 295.69 180.98 295.55 180.84 295.43C180.77 295.37 180.7 295.31 180.63 295.26C180.63 295.26 180.627 295.26 180.62 295.26C180.55 295.22 180.47 295.17 180.4 295.13C180.36 295.11 180.32 295.09 180.28 295.07C179.19 294.52 177.61 294.59 176.33 294.24C175.73 294.07 175.2 293.82 174.81 293.38C174.06 292.54 172.91 287.3 172.72 286.23C172.57 285.34 172.45 284.61 172.36 283.99C172.23 283.02 172.19 282.29 172.31 281.49C172.35 281.29 172.39 281.09 172.45 280.87C172.5 280.66 172.57 280.43 172.64 280.2C172.68 280.08 172.72 279.96 172.76 279.84C172.82 279.68 172.88 279.5 172.95 279.32C173 279.19 173.04 279.07 173.1 278.94C173.15 278.81 173.2 278.68 173.26 278.54C173.32 278.41 173.38 278.27 173.44 278.12C173.56 277.83 173.7 277.51 173.85 277.18C173.9 277.06 173.96 276.92 174.02 276.77C174.42 275.76 174.97 274.11 175.68 272.51C175.68 272.49 175.69 272.47 175.7 272.45C176.64 270.33 177.83 268.3 179.24 267.97C180.2 267.74 180.94 268.04 181.58 268.46C182.88 269.3 183.83 270.6 185.54 269.01C186.6 268.02 186.24 266.18 185.49 264.48C184.86 263.03 183.94 261.69 183.36 261.08C180.7 258.27 172.7 254.57 171.74 250.14C171.68 249.83 171.64 249.51 171.65 249.2C171.65 248.96 171.67 248.72 171.71 248.5C172.08 246.03 174.15 244.81 176.45 243.81C176.89 243.61 177.35 243.43 177.8 243.24C179.36 242.6 180.9 241.98 181.96 241.05C182.24 240.81 182.48 240.55 182.69 240.27C182.55 239.4 182.53 238.54 182.66 237.68C182.7 237.38 182.76 237.08 182.83 236.79C183.54 236.09 184.38 235.8 185.33 235.91H185.34C185.47 235.92 185.59 235.94 185.72 235.97C186.96 236.15 188.06 235.82 189.01 235C189.43 234.52 189.82 234.02 190.18 233.5C190.18 233.5 190.187 233.497 190.2 233.49C190.58 232.94 190.93 232.35 191.24 231.75C191.43 231.6 191.61 231.47 191.78 231.36C194.51 229.43 195.31 230.46 198.61 229.27C200.36 228.65 202.87 226.05 204.5 224.93C204.62 224.85 204.73 224.78 204.84 224.71C206.54 223.68 208.03 223.69 209.14 222.66C209.71 222.13 210.18 221.33 210.53 219.99C210.82 218.88 209.87 216.85 209.79 215.27C209.75 214.58 209.88 213.98 210.35 213.59C210.42 213.52 210.5 213.46 210.59 213.41C211.38 214.11 212.11 214.62 212.8 214.99C212.94 215.07 213.08 215.14 213.22 215.2C213.4 215.28 213.57 215.35 213.75 215.41C213.88 215.45 214 215.49 214.13 215.53C217.26 216.34 219.07 213.47 220.13 209.91C220.16 209.82 220.18 209.72 220.21 209.62C220.52 208.53 220.76 207.38 220.95 206.26C221.04 206.42 221.13 206.59 221.22 206.75C221.22 206.76 221.23 206.76 221.23 206.77C224.46 212.96 223.37 217.74 232.48 216.01C234.49 215.64 237.57 215.19 239.8 214.13C239.92 214.07 240.03 214.01 240.14 213.95C240.35 213.84 240.55 213.73 240.74 213.59C240.82 213.55 240.9 213.5 240.98 213.43C241.24 213.25 241.47 213.05 241.67 212.84C241.75 212.75 241.83 212.66 241.89 212.57C242.56 211.76 242.89 210.82 243.09 209.84V209.82C243.09 209.82 243.1 209.77 243.11 209.74C243.49 207.86 243.46 205.84 244.53 204.26C244.64 204.1 244.74 203.96 244.84 203.82C244.85 203.82 244.85 203.81 244.85 203.81C247.94 199.68 250.25 202.81 252.84 205.76C254.46 207.61 256.18 209.4 258.28 209.29C258.69 209.28 259.11 209.19 259.55 209.01C260.35 208.69 260.8 207.98 261.23 207.26C261.32 207.12 261.4 206.99 261.47 206.87C261.49 206.85 261.5 206.83 261.51 206.81C261.76 206.42 262.03 206.06 262.38 205.78C262.4 205.77 262.41 205.75 262.43 205.74C262.59 205.62 262.78 205.51 262.99 205.43C264.24 204.95 266.33 205.77 266.84 205.59C266.88 205.58 266.92 205.56 266.96 205.55C267.7 205.26 268.61 204.71 269.61 204.26C270.72 203.76 271.95 203.37 273.2 203.58C275.26 203.93 276.26 206.54 278.33 206.93C278.6 206.98 279.02 206.91 279.52 206.78H279.6C281.37 206.25 284.04 204.89 284.21 204.99C285.47 205.71 285.42 206.59 284.89 207.45C284.19 208.61 282.64 209.74 282.28 210.43C282.07 210.84 281.89 211.21 281.74 211.55C279.4 216.98 284.83 214.81 289.09 214.64H289.11C290.06 214.6 290.96 214.66 291.69 214.93C291.96 215.03 292.2 215.15 292.43 215.29H292.44C292.44 215.29 292.48 215.31 292.49 215.33C293.66 216.05 294.32 217.23 295.28 218.13C295.28 218.13 295.287 218.133 295.3 218.14C295.81 218.61 296.39 219 297.17 219.21C298.46 219.55 299.61 219.31 300.83 219.02H300.92C302.53 218.65 304.15 218.19 306 218.85C307.59 219.41 308.89 220.41 310.23 221.37C310.23 221.37 310.24 221.37 310.24 221.38C311.53 222.31 312.86 223.22 314.53 223.66C316.1 224.07 317.71 224.06 319.26 224.34C320.34 224.54 321.39 224.87 322.37 225.58H322.36Z" fill="#264755" stroke="#ECF0B7" stroke-linecap="round" stroke-linejoin="round"/>
<path d="M181.98 303.14C181.88 302.97 181.77 302.79 181.66 302.59C181.64 302.56 181.62 302.54 181.61 302.51C181.63 302.46 181.66 302.42 181.69 302.37C181.77 302.49 181.87 302.77 181.98 303.14Z" fill="#264755" stroke="#ECF0B7" stroke-linecap="round" stroke-linejoin="round"/>
<path d="M187.14 306.36C186.69 306.7 186.33 307.16 185.4 306.89C185.37 306.88 185.34 306.87 185.31 306.86C185.79 306.52 186.24 306.1 186.83 306.27C186.94 306.3 187.04 306.33 187.14 306.36Z" fill="#264755" stroke="#ECF0B7" stroke-linecap="round" stroke-linejoin="round"/>
<path d="M191.81 310.92C191.76 310.85 191.71 310.77 191.65 310.69C191.21 310.08 191.05 309.17 190.77 308.33C190.83 308.39 190.87 308.45 190.92 308.51C191.34 309.05 191.55 309.99 191.81 310.92Z" fill="#264755" stroke="#ECF0B7" stroke-linecap="round" stroke-linejoin="round"/>
<path d="M197.94 318.91C197.78 319.26 197.64 319.54 197.56 319.72C195.81 323.55 195.48 327.18 194.74 330.56C194.64 330.25 194.55 329.87 194.48 329.42C194.15 327.26 196.22 322.59 196.98 320.8C197.24 320.19 197.58 319.56 197.94 318.91Z" fill="#264755" stroke="#ECF0B7" stroke-linecap="round" stroke-linejoin="round"/>
<path d="M199.99 313.22C199.97 312.73 199.87 312.23 199.66 311.73C197.66 306.86 197.81 312.45 196.52 312.96C196.25 313.07 196.01 313.16 195.79 313.23C197.05 312.19 196.75 309.54 198.1 309.67C199.97 309.85 200.29 311.38 199.99 313.22Z" fill="#264755" stroke="#ECF0B7" stroke-linecap="round" stroke-linejoin="round"/>
<path d="M174.03 276.77C173.97 276.91 173.9 277.05 173.84 277.18C173.89 277.06 173.95 276.92 174.01 276.77H174.03Z" fill="#264755" stroke="#ECF0B7" stroke-linecap="round" stroke-linejoin="round"/>
<path d="M176.32 294.24C175.72 294.07 175.19 293.82 174.8 293.38C174.05 292.54 172.9 287.3 172.71 286.23C172.56 285.34 172.44 284.61 172.35 283.99C172.6 285.2 173.16 286.56 173.94 288.64C175.02 291.51 173.95 292.08 176.32 294.24Z" fill="#264755" stroke="#ECF0B7" stroke-linecap="round" stroke-linejoin="round"/>
<path d="M181.69 302.37C181.68 302.44 181.67 302.51 181.66 302.59C181.64 302.56 181.62 302.54 181.61 302.51C180.99 301.45 180.26 300.04 180.07 298.81C180.53 300.14 181.77 301.6 181.69 302.37Z" fill="#264755" stroke="#ECF0B7" stroke-linecap="round" stroke-linejoin="round"/>
<path d="M279.51 548.48C283.56 547.5 276.82 542.39 274.8 543.88C270.97 546.71 277.38 549 279.51 548.48Z" fill="#264755" stroke="#ECF0B7" stroke-linecap="round" stroke-linejoin="round"/>
<path d="M271.54 535.88C274.34 537.42 271.03 539.1 269.15 538.41C266.79 537.54 269.52 534.77 271.54 535.88Z" fill="#264755" stroke="#ECF0B7" stroke-linecap="round" stroke-linejoin="round"/>
<path d="M269.85 516.42C273.47 515.29 271.89 522.39 268.59 520.04C266.9 518.83 268.38 516.88 269.85 516.42Z" fill="#264755" stroke="#ECF0B7" stroke-linecap="round" stroke-linejoin="round"/>
<path d="M272.87 521.33C272.59 525.26 278.84 526.6 278.37 522.64C278.33 522.26 273.08 518.41 272.87 521.33Z" fill="#264755" stroke="#ECF0B7" stroke-linecap="round" stroke-linejoin="round"/>
<path d="M252.28 511.65C253.79 506.8 246.29 511.59 245.75 514.93C245.36 517.29 246.26 520.21 248.9 520.89C249.49 521.04 255.17 520.67 255.27 520.65C257.37 520.22 257.81 521.94 258.84 519.17C259.47 517.45 256.72 518.15 256.4 517.35C256.02 516.42 257.32 514.11 256.13 513.34C253.28 511.49 253.82 515.26 251.98 515.82C249.95 516.45 252.37 511.36 252.28 511.64V511.65Z" fill="#264755" stroke="#ECF0B7" stroke-linecap="round" stroke-linejoin="round"/>
<path d="M239.94 513.67C244.88 510.29 239.49 502.64 234.38 508.55C233.34 509.76 233.36 511.68 232.45 512.9C231.62 514.02 229.9 514.45 229.14 515.76C226.99 519.48 229.4 521.48 231.03 524.52C231.59 525.56 232.77 526.16 233.12 527.36C233.38 528.28 232.05 529.79 232.32 530.81C233.14 533.91 236.04 536.17 238.89 533.49C240.28 532.18 238.58 529.82 240.6 529.08C244.73 527.57 242.45 532.34 243.51 534.06C245.59 537.43 246.76 535.23 249.78 535.77C251.71 536.12 252.79 539.67 254.9 536.95C255.64 536 254.57 533.68 254.88 532.53C255.56 529.94 258.07 528.42 256.81 525.06C254 517.53 247.49 526.05 243.3 524.13C243.93 524.42 240.44 519.72 240.54 519.92C239.66 518.19 236.9 515.75 239.94 513.67Z" fill="#264755" stroke="#ECF0B7" stroke-linecap="round" stroke-linejoin="round"/>
<path d="M288.55 520C293.05 521.47 286.27 523.46 286.78 522.55C286.95 522.24 285.22 518.91 288.55 520Z" fill="#264755" stroke="#ECF0B7" stroke-linecap="round" stroke-linejoin="round"/>
<path d="M291.69 519.28C293.42 522.03 291.79 520.5 291.89 522.27C291.99 524.09 288.58 525.38 292.78 528.31C295.73 530.37 294.54 529.61 296.25 526.84C296.76 526.02 297.73 523.81 297.95 522.75C298.14 521.83 297.01 520.03 297.09 519.72C297.42 518.46 303.54 511.72 299.42 511.85C298.88 511.87 291.89 519.59 291.7 519.28H291.69Z" fill="#264755" stroke="#ECF0B7" stroke-linecap="round" stroke-linejoin="round"/>
<path d="M303.84 524.19C303.2 522.7 300.4 527.04 300.69 526.3C300.21 527.5 299.78 527.47 299.75 529.12C299.77 528.03 302.81 533.64 301.69 532.86C303.64 534.2 302.13 534.43 303.94 533.57C302.38 534.31 305.24 528.12 305.23 529.77C305.23 528.06 304.78 526.34 303.84 524.18V524.19Z" fill="#264755" stroke="#ECF0B7" stroke-linecap="round" stroke-linejoin="round"/>
<path d="M305.06 503.77C305.85 498.83 307.57 503.32 307.8 504.27C309.25 510.3 304.79 505.48 305.06 503.77Z" fill="#264755" stroke="#ECF0B7" stroke-linecap="round" stroke-linejoin="round"/>
<path d="M339.56 498.97C339.75 497.1 335.34 486.96 341.87 490.55C343.47 491.43 342.46 495.2 342.02 496.41C342.42 495.33 339.2 502.51 339.56 498.97Z" fill="#264755" stroke="#ECF0B7" stroke-linecap="round" stroke-linejoin="round"/>
<path d="M326.44 498.46C328.69 496.28 327.45 493 324.37 494.43C322.77 495.17 322.31 500.56 320.39 502.26C318.97 503.51 315.85 503.42 314.92 504.76C312.84 507.76 320.18 508.24 317.21 511.34C313.32 506.99 314.58 511.58 311.69 511.61C309.5 511.64 310.37 509.3 307.52 509.67C306.29 509.83 304.61 511.61 303.85 512.5C300.19 516.75 301.93 518.14 304.69 520.78C307.53 523.49 306.06 522.73 308.65 521.53C309.9 520.95 311.89 517.24 313.89 518.98C317.74 522.34 312.1 523.55 311.18 524.74C306.86 530.35 312.56 526.86 313.41 527.87C314.79 529.5 313.3 530.58 313.31 532.7C313.31 532.65 315.25 534.28 315.32 534.51C315.66 535.68 312.26 535.39 313.91 537.38C316.38 540.36 318.6 536.84 319.78 534.45C321.02 531.93 321.2 529.59 322.49 527.08C322.92 526.25 322.74 524.79 323.51 524.18C324.43 523.45 326.64 525.17 327.48 524.4C329.67 522.36 326.94 521.57 327.54 519.29C327.88 518 330.82 519.03 330.73 516.57C330.68 515.31 329.06 515.01 328.93 514.67C328.81 514.36 327.04 515.96 326.35 514.84C325.23 513.04 327.82 511.77 328.17 510.08C328.75 507.29 324.52 500.28 326.43 498.44L326.44 498.46Z" fill="#264755" stroke="#ECF0B7" stroke-linecap="round" stroke-linejoin="round"/>
<path d="M406.81 431.84C406.48 433.57 407.16 437.26 404.38 437.45C400.59 437.69 404.47 432.44 401.63 432.04C400.64 431.9 397.94 444.31 398.04 445.87C398.47 452.39 398.39 449.88 395.13 453.09C393.49 454.72 392.75 457.71 389.82 457.32C385.54 456.76 387.17 462.92 386.73 465.85C385.93 471.24 384.72 474.1 380.78 477.24C379.29 478.44 377.58 478.87 376.01 480.29C375.14 481.08 373.5 483.31 373.28 483.48C371.13 485.23 372.32 485.94 368.58 485.58C367.13 485.44 366.5 482.67 364.9 483.96C362.2 486.14 369.83 488.41 366.73 490.88C365.2 492.1 364.27 488.23 363.44 488.35C360.53 488.77 362.38 489.6 360.68 491.04C358.89 492.58 358.06 494.8 355.18 492.79C353.84 491.86 354.19 487.47 352.85 487.17C350.93 486.73 350.39 489.83 349.26 489.51C348.28 489.24 348.03 487.2 347.94 487.17C348.09 487.21 346.43 485.77 346.07 485.69C346.61 485.8 344.85 487.97 344.26 488.04C343.44 488.14 342.38 487.57 341.38 486.67C341.55 486.91 341.7 487.11 341.81 487.28C339.48 487.41 337.78 486.37 335.93 486.29C335.04 486.26 333.05 486.68 332.13 486.6C329.97 486.41 328.88 486.89 327.01 485.46C325.34 484.17 326.21 481.42 324.35 480.3C322.59 479.23 320.3 481.26 318.32 480.44C316.06 479.52 318.31 476.31 314.75 476.62C309.41 477.09 316.92 483.38 317.5 484.55C319.71 489.03 317.38 491.34 313.33 491.53C308.8 491.75 311.24 491.6 310.45 488.75C310.25 488.06 312 488.32 311.05 486.72C309.95 484.88 308.81 485.19 307.28 484.94C307.39 484.95 304.19 486.25 303.68 486.24C301.66 486.21 299.81 483.43 297.88 486.12C306.16 490.92 301.82 490.48 296.21 490.63C292.04 490.74 287.55 496.4 292.85 495.7C295.58 495.33 301.66 488.12 303.26 495.44C304.79 502.49 295.69 497.61 294.64 500.36C294.9 501.19 297.38 501.32 297.8 502.3C298.13 503.07 296.76 507.02 296.6 507.9C295.74 512.6 292.46 518 286.14 515.78C279.18 513.33 289.23 510.27 286.36 505.49C283.16 500.15 283.48 510.69 279.33 509.87C276.77 509.37 278.02 506.32 274.14 506.85C270.03 507.41 273.05 509.12 271.09 510.96C265.96 515.8 261.07 509.44 257.81 507.83C255 506.44 253.98 508.02 253.22 504.41C252.86 502.72 254.25 499.58 254.51 497.87C254.67 496.77 256.62 489.55 254.19 489.86C252.72 490.04 253.18 494.02 251.11 494.67C251.17 493.22 248.17 492.13 247.92 493.53C247.66 494.97 255.52 497.89 249.07 501.21C243.61 504.01 244.86 497.48 243.03 496.83C240.25 495.84 240.56 502.52 238.8 504.07C237.38 505.32 230.83 506.42 228.92 506.3C223.81 505.98 223.83 504.52 224.38 500.85C225.27 498.37 225.82 494.8 225.03 492.96C224.03 490.63 221.85 490.21 220.16 488.63C218.05 486.67 217.98 484.98 216.41 482.74C215.22 481.04 213.7 480.11 212.14 479.21C211.76 478.88 211.34 478.55 210.88 478.21C205.83 474.49 205.42 471.71 204.02 465.71C203.86 464.59 203.63 463.48 203.34 462.39C203.21 462.2 203.1 462.02 203.02 461.86C202.92 461.44 202.81 461.02 202.69 460.6C202.69 460.53 202.71 460.47 202.74 460.41C204.34 461.07 208.5 457.78 209.13 456.6C209.56 455.79 209.72 454.98 209.74 454.18V454.14C209.76 454.05 209.78 453.96 209.79 453.87C210.09 451.88 209.11 450.31 209.45 448.4C209.48 448.25 209.51 448.11 209.55 447.96C209.59 447.81 209.64 447.66 209.7 447.51C210.36 445.79 214.11 446.27 213.85 443.2C213.79 442.53 213.51 442.12 213.12 441.83C213.11 441.73 213.09 441.63 213.08 441.53C212.97 441.53 210.63 439.66 210.37 438.98C210.43 437.78 211.08 436.52 211.01 435.38C210.93 434.17 210.68 433.14 210.34 432.22C210.24 431.69 210.07 431.15 209.8 430.61C208.95 428.92 208.15 427.89 207.54 426.99C206.75 425.43 206.23 423.7 206.6 421.24C206.63 421.06 206.66 420.86 206.7 420.67C206.75 420.42 206.8 420.17 206.87 419.92C206.9 419.79 206.93 419.66 206.96 419.54C207 419.35 207.05 419.16 207.12 418.97C207.6 417.34 208.27 415.7 208.92 414.11C208.94 414.05 208.97 413.99 208.99 413.94C210.02 411.62 211.18 409.35 212.12 407.05C212.12 407.03 212.14 407.02 212.15 407C212.89 405.55 213.54 404.09 213.8 402.74C214.09 401.16 213.49 399.45 213.84 397.94C213.84 397.92 213.85 397.91 213.85 397.9C214.9 395.95 216.07 396.99 217.62 395.66C220.29 393.38 222.44 391.7 225.04 389.8C225.53 389.45 226.04 389.07 226.58 388.69C227.58 387.98 228.45 387.3 229.33 386.65C230.2 386.02 231.07 385.42 232.07 384.83C233.19 384.99 234.19 384.79 235.05 384.2C235.06 384.2 235.07 384.19 235.08 384.19C235.75 383.94 236.18 383.39 236.02 381.94C236.63 382.1 237.16 382.33 237.64 382.6C237.87 382.8 238.12 383.02 238.41 383.25C239.06 383.77 239.61 384.08 240.11 384.24C240.11 384.24 240.11 384.25 240.12 384.25C240.7 384.6 241.33 384.91 242.08 385.09C243.13 384.42 244.29 384.07 245.53 384.03C245.66 384.08 245.78 384.14 245.89 384.2C246.03 384.27 246.16 384.36 246.28 384.44C246.91 384.9 247.33 385.54 247.54 386.37C247.77 386.54 247.98 386.71 248.16 386.88C248.9 388.26 249.65 389.69 251.61 390.37C252.08 390.53 252.6 390.58 253.15 390.55C253.36 390.57 253.6 390.59 253.85 390.61C255.6 390.72 258.26 389.17 260.24 389.29C260.44 389.34 260.64 389.42 260.82 389.52C262.87 390.74 260.86 392.14 261.91 393.48C262.01 394.81 262.68 395.4 263.94 395.24C265.27 397.17 267.69 398.72 268.92 401.9C269.92 404.48 269.16 411.31 270.08 412.85C271.04 414.47 273.4 414.76 275.57 414.76H275.61C277 414.93 278.43 414.8 279.87 414.69C282.79 414.73 284.79 414.99 287.74 416.06C288.28 416.25 288.72 416.43 289.09 416.58C290.06 417.11 290.57 417.44 291.3 417.4C291.89 417.44 292.56 417.12 294.66 416.42C297.35 415.52 300.1 414.09 302.91 413.66C306.09 413.57 309 414.77 311.29 417.74C312.13 419.67 312.71 421.95 314.06 422.67C314.08 422.68 314.11 422.69 314.14 422.7C315.47 423.25 320.7 422.01 323.52 421.99C326.77 422.89 330.51 425.49 333.37 424.89C333.6 424.84 333.81 424.77 334 424.68C335.5 424.07 338.55 422.29 339.85 421.52C340.75 421.49 341.65 421.46 342.35 421.12C342.38 421.11 342.4 421.09 342.43 421.08C342.72 420.96 343 420.79 343.26 420.57C343.28 420.55 343.3 420.54 343.32 420.53C345.85 418.68 345.6 416.25 349.8 415.93C349.86 415.93 349.92 415.92 349.99 415.93C351.86 416.21 353.73 417.06 355.58 417.42C356.04 417.51 356.5 417.56 356.94 417.6C358.05 417.89 359.13 418.07 360.13 417.95C360.25 417.94 360.36 417.92 360.47 417.9C362.15 416.17 363.82 416.06 365.24 415.16C365.92 414.75 366.53 414.15 367.06 413.11C368.26 410.8 366.61 408.86 369.3 406.52C369.52 406.33 369.75 406.15 370.01 405.99C370.12 405.92 370.23 405.85 370.34 405.79C372.79 404.49 376.04 404.45 378.66 404.65C379.93 404.75 381.31 404.79 382.58 405.14C382.67 405.16 382.76 405.2 382.85 405.23C384.45 405.86 385.43 406.88 386.19 407.99C386.59 408.81 386.88 409.67 387.71 410.5C387.71 410.5 387.71 410.51 387.72 410.51C388.54 411.84 389.51 412.97 391.4 413.33C393.72 413.78 396.3 411.71 398.64 411.44C398.72 411.43 398.81 411.42 398.9 411.41C398.99 411.4 399.08 411.4 399.16 411.4C401.05 411.34 402.73 411.72 404.78 411.83C404.81 411.83 404.84 411.83 404.87 411.84C406.05 412.08 407.23 412.42 408.39 412.8C407.31 415.32 407.54 416.91 409.49 418.71C410.8 419.93 407.22 429.69 406.81 431.84Z" fill="#264755" stroke="#ECF0B7" stroke-linecap="round" stroke-linejoin="round"/>
<path d="M203.02 461.86C202.74 461.36 202.63 460.94 202.69 460.6C202.81 461.02 202.92 461.44 203.02 461.86Z" fill="#264755" stroke="#ECF0B7" stroke-linecap="round" stroke-linejoin="round"/>
<path d="M208.92 414.11C208.27 415.7 207.6 417.34 207.12 418.97C207.57 417.31 208.21 415.7 208.92 414.11Z" fill="#264755" stroke="#ECF0B7" stroke-linecap="round" stroke-linejoin="round"/>
<path d="M209.74 454.18C209.72 454.98 209.56 455.79 209.13 456.6C208.5 457.78 204.34 461.07 202.74 460.41C202.95 459.81 203.8 459.54 205.28 459.6C207.41 457.43 209.1 457.8 209.74 454.18Z" fill="#264755" stroke="#ECF0B7" stroke-linecap="round" stroke-linejoin="round"/>
<path d="M210.34 432.21C209.59 430.19 208.4 428.69 207.54 426.99C208.15 427.89 208.95 428.92 209.8 430.61C210.07 431.15 210.24 431.69 210.34 432.21Z" fill="#264755" stroke="#ECF0B7" stroke-linecap="round" stroke-linejoin="round"/>
<path d="M213.12 441.83C212.26 441.16 210.88 441.1 210.5 440.03C210.38 439.69 210.35 439.34 210.37 438.98C210.63 439.66 212.97 441.53 213.08 441.53C213.09 441.63 213.11 441.73 213.12 441.83Z" fill="#264755" stroke="#ECF0B7" stroke-linecap="round" stroke-linejoin="round"/>
<path d="M213.8 402.74C213.54 404.09 212.89 405.55 212.15 407C212.52 406.08 212.87 405.14 213.15 404.2C213.69 402.43 213.04 399.65 213.69 398.23C213.74 398.12 213.79 398.03 213.84 397.94C213.49 399.45 214.09 401.16 213.8 402.74Z" fill="#264755" stroke="#ECF0B7" stroke-linecap="round" stroke-linejoin="round"/>
<path d="M224.66 498.93C225.67 491.49 223.72 492.83 219.29 487.95C216.1 484.43 215.47 482.05 212.14 479.21C213.7 480.11 215.22 481.04 216.41 482.74C217.98 484.98 218.05 486.67 220.16 488.63C221.85 490.21 224.03 490.63 225.03 492.96C225.82 494.8 225.27 498.37 224.38 500.85C224.47 500.27 224.57 499.63 224.66 498.93Z" fill="#264755" stroke="#ECF0B7" stroke-linecap="round" stroke-linejoin="round"/>
<path d="M235.05 384.2C234.19 384.79 233.19 384.99 232.07 384.83C232.95 384.31 234.19 384.5 235.05 384.2Z" fill="#264755" stroke="#ECF0B7" stroke-linecap="round" stroke-linejoin="round"/>
<path d="M240.11 384.24C239.61 384.08 239.06 383.77 238.41 383.25C238.12 383.02 237.87 382.8 237.64 382.6C238.54 383.1 239.28 383.72 240.11 384.24Z" fill="#264755" stroke="#ECF0B7" stroke-linecap="round" stroke-linejoin="round"/>
<path d="M253.15 390.55C252.6 390.58 252.08 390.53 251.61 390.37C249.65 389.69 248.9 388.26 248.16 386.88C250 388.55 249.98 390.15 253.15 390.55Z" fill="#264755" stroke="#ECF0B7" stroke-linecap="round" stroke-linejoin="round"/>
<path d="M261.91 393.48C260.86 392.14 262.87 390.74 260.82 389.52C260.64 389.42 260.44 389.34 260.24 389.29C260.73 389.32 261.18 389.44 261.56 389.73C262.14 390.94 262.26 392.19 261.91 393.48Z" fill="#264755" stroke="#ECF0B7" stroke-linecap="round" stroke-linejoin="round"/>
<path d="M279.87 414.69C278.43 414.8 277 414.93 275.61 414.76C276.79 414.76 277.92 414.68 278.72 414.68C279.12 414.68 279.5 414.68 279.87 414.69Z" fill="#264755" stroke="#ECF0B7" stroke-linecap="round" stroke-linejoin="round"/>
<path d="M291.3 417.4C290.57 417.44 290.06 417.11 289.09 416.58C290.34 417.09 290.79 417.38 291.3 417.4Z" fill="#264755" stroke="#ECF0B7" stroke-linecap="round" stroke-linejoin="round"/>
<path d="M311.29 417.74C309 414.77 306.09 413.57 302.91 413.66C305.11 413.31 307.33 413.59 309.58 415.23C310.33 415.77 310.84 416.7 311.29 417.74Z" fill="#264755" stroke="#ECF0B7" stroke-linecap="round" stroke-linejoin="round"/>
<path d="M333.37 424.89C330.51 425.49 326.77 422.89 323.52 421.99C323.95 421.98 324.32 422.01 324.62 422.07C327.25 422.61 330.67 425.36 333.37 424.89Z" fill="#264755" stroke="#ECF0B7" stroke-linecap="round" stroke-linejoin="round"/>
<path d="M342.35 421.12C341.65 421.46 340.75 421.49 339.85 421.52C340.05 421.41 340.2 421.31 340.31 421.25C341.07 421.39 341.74 421.35 342.35 421.12Z" fill="#264755" stroke="#ECF0B7" stroke-linecap="round" stroke-linejoin="round"/>
<path d="M349.99 415.93C349.92 415.92 349.86 415.93 349.8 415.93C345.6 416.25 345.85 418.68 343.32 420.53C343.57 420.31 343.8 420.05 344.02 419.75C344.68 418.43 345.55 417.26 346.63 416.25C347.75 415.79 348.87 415.75 349.99 415.93Z" fill="#264755" stroke="#ECF0B7" stroke-linecap="round" stroke-linejoin="round"/>
<path d="M360.13 417.95C359.13 418.07 358.05 417.89 356.94 417.6C358.11 417.69 359.21 417.68 360.13 417.95Z" fill="#264755" stroke="#ECF0B7" stroke-linecap="round" stroke-linejoin="round"/>
<path d="M416.47 380.51C415.7 385.66 415.27 390.08 413.83 395.25C412.67 399.41 412.1 407.16 409.38 410.4C407.16 413.04 408.7 412.07 404.87 411.84C404.84 411.83 404.81 411.83 404.78 411.83C402.73 411.72 401.05 411.34 399.16 411.4C399.08 411.4 398.99 411.4 398.9 411.41C398.3 411.43 397.68 411.51 397.01 411.65C392.08 412.71 391.46 414.25 387.72 410.51C387.71 410.51 387.71 410.5 387.71 410.5C386.88 409.67 386.59 408.81 386.19 407.99C385.76 407.12 385.22 406.3 383.81 405.6C383.5 405.44 383.18 405.32 382.85 405.23C382.76 405.2 382.67 405.16 382.58 405.14C381.31 404.79 379.93 404.75 378.66 404.65C376.04 404.45 372.79 404.49 370.34 405.79C370.23 405.85 370.12 405.92 370.01 405.99C369.07 406.54 368.27 407.3 367.7 408.33C366.23 410.94 366.31 413.36 365.24 415.16C363.82 416.06 362.15 416.17 360.47 417.9C360.36 417.92 360.25 417.94 360.13 417.95C359.13 418.07 358.05 417.89 356.94 417.6C354.57 416.98 352.08 415.84 349.99 415.93C349.92 415.92 349.86 415.93 349.8 415.93C345.6 416.25 345.85 418.68 343.32 420.53C343.3 420.54 343.28 420.55 343.26 420.57C343.01 420.74 342.74 420.92 342.43 421.08C342.4 421.09 342.38 421.11 342.35 421.12C341.65 421.46 340.75 421.49 339.85 421.52C338.97 421.54 338.07 421.57 337.34 421.9C335.96 422.5 335.36 424.04 334 424.68C333.81 424.77 333.6 424.84 333.37 424.89C330.51 425.49 326.77 422.89 323.52 421.99C322.99 421.84 322.47 421.74 321.97 421.7C320.7 421.6 315.14 422.98 314.14 422.7C314.11 422.69 314.08 422.68 314.06 422.67C313.43 422.33 312.19 419.04 311.98 418.72C311.76 418.37 311.52 418.04 311.29 417.74C309 414.77 306.09 413.57 302.91 413.66C300.53 413.71 298.01 414.48 295.47 415.75C293.19 416.89 292.11 417.37 291.3 417.4C290.57 417.44 290.06 417.11 289.09 416.58C288.35 416.17 287.34 415.63 285.74 415.05C283.84 414.36 281.85 414.51 279.87 414.69C278.43 414.8 277 414.93 275.61 414.76H275.57C275.43 414.74 275.3 414.72 275.17 414.7C269.31 413.7 270.99 412.24 270.5 407.36C270.14 403.79 267.93 398.03 265.32 395.44C263.82 393.95 263.54 395.56 261.91 393.48C260.86 392.14 262.87 390.74 260.82 389.52C260.64 389.42 260.44 389.34 260.24 389.29C258.43 388.88 255.53 390.42 253.15 390.55C252.6 390.58 252.08 390.53 251.61 390.37C249.65 389.69 248.9 388.26 248.16 386.88C247.66 385.96 247.16 385.05 246.28 384.44C246.16 384.36 246.03 384.27 245.89 384.2C245.78 384.14 245.66 384.08 245.53 384.03C243.2 383.07 242.19 384.93 240.12 384.25C240.11 384.25 240.11 384.24 240.11 384.24C239.61 384.08 239.06 383.77 238.41 383.25C238.12 383.02 237.87 382.8 237.64 382.6C234.41 379.75 236.78 379.89 238.32 376.42C238.67 375.62 238.99 375.06 239.2 374.49C239.3 374.26 239.37 374.03 239.42 373.79C239.44 373.71 239.45 373.63 239.46 373.55C239.47 373.5 239.48 373.44 239.49 373.38C239.5 373.32 239.5 373.26 239.5 373.2C239.53 372.91 239.52 372.58 239.49 372.21C239.31 370.14 236.07 367.97 236.03 366.62V366.6C236 365.19 237.04 364.24 238.33 363.53C238.33 363.52 238.34 363.52 238.35 363.52C239.99 362.61 242.04 362.08 242.81 361.43C244.24 360.25 245.27 358.74 246.09 357.06C247.07 355.05 247.75 352.82 248.44 350.65C249.15 348.4 248.91 342.64 250.4 341.56C250.77 341.3 251.16 341.29 251.57 341.37H251.59C252.54 341.57 253.62 342.26 254.78 341.41C254.9 341.32 255.01 341.24 255.11 341.16C257.81 339.14 255.94 339.84 255.12 338.6C255 338.42 254.91 338.21 254.85 337.94C254.82 337.79 254.78 337.63 254.74 337.46C254.71 337.31 254.67 337.16 254.62 337.01C254.59 336.88 254.55 336.76 254.51 336.63C254.46 336.44 254.4 336.25 254.32 336.06C254.31 336.02 254.29 335.99 254.28 335.96C254.24 335.79 254.17 335.62 254.1 335.46C253.61 334.28 252.88 333.21 251.77 332.83C251.7 332.8 251.63 332.78 251.56 332.77C250.71 332.55 250.08 332.83 249.49 333.18C248.77 333.6 248.1 334.11 247.18 333.92C246.75 333.83 246.36 333.69 246 333.5H245.99C245.28 333.14 244.69 332.61 244.13 332.05C243.59 331.49 243.07 330.9 242.51 330.37H242.5C241.67 329.58 240.72 328.94 239.4 328.78C238.32 328.65 237.23 329.23 236.27 329.74C236.26 329.74 236.25 329.75 236.24 329.75C234.57 330.64 233.3 331.25 233.15 327.32C233.11 326.05 234.52 324.33 235.47 322.8C235.8 322.26 236.07 321.75 236.2 321.29C236.79 319.19 236.58 316.85 236.7 314.67C236.7 314.61 236.7 314.56 236.71 314.51C236.71 314.43 236.71 314.35 236.72 314.27C236.74 313.97 236.77 313.67 236.8 313.37C236.81 313.34 236.81 313.32 236.81 313.29C237.3 309.07 238.82 304.69 239.01 300.55C239.02 300.29 239.03 300.03 239.03 299.77C239.03 299.57 239.03 299.39 239.01 299.21C238.95 297.64 238.55 296.7 237.88 295.91C237.88 295.89 237.86 295.87 237.85 295.86C237.11 295 236.07 294.32 234.81 293.22C234.8 293.22 234.8 293.21 234.79 293.21L234.76 293.18C233.63 292.18 230.82 290.61 229.33 288.96C229.27 288.88 229.2 288.8 229.15 288.73C228.53 287.99 228.21 287.23 228.44 286.51C228.88 285.13 230.41 284.85 231.94 284.63C231.95 284.63 231.97 284.63 231.99 284.62C233.15 284.46 234.3 284.32 234.96 283.72C235.42 283.3 235.74 282.86 235.98 282.4C235.98 282.4 235.98 282.38 235.99 282.38C237 280.37 236.42 278.04 238.23 276.26C239.11 275.39 240.44 275.38 241.73 275.31C241.76 275.31 241.79 275.31 241.82 275.3C243.6 275.19 245.28 274.92 245.62 272.08C245.66 271.82 245.68 271.55 245.69 271.25C245.7 271.3 245.72 271.34 245.76 271.39C245.81 271.46 245.89 271.53 245.99 271.59C246.02 271.62 246.06 271.64 246.1 271.66C246.23 271.73 246.38 271.8 246.56 271.86C246.96 272.02 247.48 272.15 248.06 272.27C248.25 272.32 248.44 272.35 248.64 272.39H248.67C248.95 272.45 249.24 272.5 249.55 272.54C249.58 272.55 249.61 272.55 249.65 272.56C250 272.61 250.36 272.66 250.72 272.71C250.8 272.72 250.87 272.73 250.95 272.74C251.43 272.8 251.9 272.86 252.37 272.91C252.74 272.95 253.1 272.98 253.46 273.02C253.78 273.05 254.1 273.08 254.41 273.1C254.65 273.12 254.89 273.14 255.11 273.16C255.3 273.17 255.49 273.19 255.66 273.21C256.06 273.24 256.41 273.26 256.7 273.29C256.83 273.3 256.95 273.31 257.05 273.32C257.16 273.32 257.26 273.32 257.34 273.34C257.56 273.35 257.67 273.36 257.67 273.37C257.96 272.95 255.95 269.47 254.98 266.82C254.97 266.81 254.96 266.8 254.96 266.78C254.61 265.85 254.39 265.01 254.47 264.47C254.47 264.47 254.47 264.39 254.48 264.35C255.21 261.1 257.16 260.22 260.34 259.37C260.48 259.33 260.61 259.3 260.75 259.27H260.77C262.57 258.87 264.35 258.95 266.12 258.9H266.21C267.55 258.86 268.88 258.73 270.21 258.24C272.59 257.36 274.13 255.16 276.38 254.35C276.41 254.34 276.43 254.33 276.47 254.33C277.2 254.07 278.02 253.98 278.97 254.13C279.96 254.29 280.7 254.66 281.27 255.16C281.34 255.21 281.39 255.26 281.45 255.31C283.26 257.05 283.43 260.06 285.48 261.24C286.11 261.6 287.02 261.72 288.06 261.65C288.09 261.66 288.11 261.65 288.13 261.65C290.23 261.52 292.82 260.7 294.6 259.79C294.65 259.76 294.7 259.74 294.75 259.71C295.4 259.36 295.94 259.01 296.28 258.67C297.71 257.27 298.12 256.02 298.11 254.75C298.09 252.71 296.99 250.66 297.3 247.95C297.74 244.19 299.85 242.89 302.92 241.05C306.14 239.13 309.38 238.56 311.61 235.28C312.41 234.09 312.62 233.11 312.83 232.23C312.84 232.21 312.84 232.2 312.85 232.19C313.14 230.98 313.45 229.93 315.3 228.71C315.75 228.41 316.52 228.08 317.42 227.75C317.47 227.73 317.53 227.71 317.58 227.7C318.59 227.34 319.73 227.01 320.73 226.77C320.74 226.77 320.75 226.77 320.75 226.77C321.94 226.49 322.94 226.33 323.29 226.44C323.45 226.49 323.6 226.55 323.75 226.62H323.76C324.56 227.01 325.17 227.69 325.76 228.42C325.78 228.44 325.8 228.45 325.81 228.47H325.82C325.82 228.47 325.83 228.48 325.83 228.49C327.01 229.93 328.13 231.5 330.44 231.12C338.43 229.79 329.26 215.59 339.04 217.2C344.22 218.04 342.41 222.12 344.58 224.46H344.59L344.73 224.61C347.49 227.28 346.92 226.24 350.56 225.21C350.6 225.2 350.63 225.19 350.67 225.18C355.27 223.91 358.05 225.18 362.64 224.96C364.38 224.88 365.98 224.01 367.55 223.18C369.13 222.34 370.7 221.56 372.39 221.69C373.66 221.79 374.72 222.42 375.69 223.27C375.7 223.27 375.7 223.27 375.7 223.27C378.65 225.85 380.74 230.4 385.12 227.93C386.17 227.33 387.13 226.06 388.06 224.53C388.06 224.52 388.07 224.52 388.07 224.52C388.08 224.52 388.09 224.49 388.09 224.48C390.51 220.51 392.78 214.9 396.3 215.07H396.31C397.1 215.11 397.94 215.42 398.86 216.12C399.8 216.83 399.41 218.99 399.94 219.96C400.94 221.81 403.19 223.22 403.95 224.97C405.33 228.16 404.63 231.7 404.53 235.36C404.26 245.3 406.49 252.03 409.75 260.91C410.94 264.16 411.7 268.58 411.22 272.04C410.68 275.88 408.61 276.5 406.78 279.43C402.49 286.33 406.41 290.41 407.59 297.21C408.98 305.14 406.71 311.28 403.02 317.62C399.01 324.53 399.89 334.25 401.33 341.64C401.93 344.73 402.35 347.15 403.49 349.95C405.01 353.65 406.8 353.72 404.27 357.58C401.55 361.72 400.64 359.52 402.36 362.68C402.68 363.26 406.51 367.64 407.36 367.78C411.1 368.38 419.09 353.44 420.7 357.24C424.02 365.08 417.64 372.75 416.47 380.51Z" fill="#264755" stroke="#ECF0B7" stroke-linecap="round" stroke-linejoin="round"/>
<path d="M382.58 405.14C381.31 404.79 379.93 404.75 378.66 404.65C376.04 404.45 372.79 404.49 370.34 405.79C373.59 403.94 379.27 403.94 382.58 405.14Z" fill="#264755" stroke="#ECF0B7" stroke-linecap="round" stroke-linejoin="round"/>
<path d="M387.71 410.5C386.88 409.67 386.59 408.81 386.19 407.99C386.76 408.81 387.21 409.69 387.71 410.5Z" fill="#264755" stroke="#ECF0B7" stroke-linecap="round" stroke-linejoin="round"/>
<path d="M404.87 411.84C404.87 411.84 404.81 411.83 404.78 411.83C402.73 411.72 401.05 411.34 399.16 411.4C401.1 411.23 403 411.42 404.87 411.84Z" fill="#264755" stroke="#ECF0B7" stroke-linecap="round" stroke-linejoin="round"/>
</g>
<g filter="url(#filter0_d_259_905)">
<path d="M159.63 614.22C161.55 619.61 155.38 618.73 153.98 615.51C152.4 611.87 158.17 610.11 159.63 614.22Z" fill="#264755" stroke="#ECF0B7" stroke-linecap="round" stroke-linejoin="round"/>
<path d="M130.3 604.13C119.47 605.24 110.5 606.98 100.37 610.53C91.84 613.53 84.05 611.59 75.29 615.13C62.11 620.45 50.31 622.67 40.06 633.26C35.07 638.41 27.49 643.79 26.69 651.02C25.7 659.96 32.98 666.51 39.59 671.18C50.31 678.74 45.15 668.18 53.82 665.77C54.51 665.58 61.3 666.69 62.17 666.76C64.69 666.97 66.56 666.59 69.53 667.15C70.7 667.37 73.1 666.97 74.45 667.07C75.32 668.25 76.47 668.95 77.9 669.17C79.39 668.21 80.97 667.43 82.63 666.82C89.19 666.15 94.99 669.12 101.2 666.18C102.61 664.6 103.99 662.98 105.34 661.34C107.02 659.94 108.81 659.77 110.72 660.82C113.01 660.03 116.43 659.13 119.15 658.31C120.28 657.97 124.28 657.37 125.14 657.18C125.4 655.12 126.64 654.24 128.86 654.56C130.8 655.43 132.75 655.51 134.71 654.79C140.11 652.5 141.07 646.35 143.98 642.3C148.27 636.33 153.07 634.97 152.04 626.89C151.28 620.88 148.96 614.05 143.94 610.93C143.24 610.49 138.36 609.5 137.13 608.91C134.09 607.47 134.97 603.66 130.3 604.13Z" fill="#264755" stroke="#ECF0B7" stroke-linecap="round" stroke-linejoin="round"/>
</g>
<path d="M159.63 614.22C161.55 619.61 155.38 618.73 153.98 615.51C152.4 611.87 158.17 610.11 159.63 614.22Z" fill="url(#paint0_linear_259_905)"/>
<path d="M130.3 604.13C119.47 605.24 110.5 606.98 100.37 610.53C91.84 613.53 84.05 611.59 75.29 615.13C62.11 620.45 50.31 622.67 40.06 633.26C35.07 638.41 27.49 643.79 26.69 651.02C25.7 659.96 32.98 666.51 39.59 671.18C50.31 678.74 45.15 668.18 53.82 665.77C54.51 665.58 61.3 666.69 62.17 666.76C64.69 666.97 66.56 666.59 69.53 667.15C70.7 667.37 73.1 666.97 74.45 667.07C75.32 668.25 76.47 668.95 77.9 669.17C79.39 668.21 80.97 667.43 82.63 666.82C89.19 666.15 94.99 669.12 101.2 666.18C102.61 664.6 103.99 662.98 105.34 661.34C107.02 659.94 108.81 659.77 110.72 660.82C113.01 660.03 116.43 659.13 119.15 658.31C120.28 657.97 124.28 657.37 125.14 657.18C125.4 655.12 126.64 654.24 128.86 654.56C130.8 655.43 132.75 655.51 134.71 654.79C140.11 652.5 141.07 646.35 143.98 642.3C148.27 636.33 153.07 634.97 152.04 626.89C151.28 620.88 148.96 614.05 143.94 610.93C143.24 610.49 138.36 609.5 137.13 608.91C134.09 607.47 134.97 603.66 130.3 604.13Z" fill="url(#paint1_linear_259_905)"/>
<defs>
<filter id="filter0_d_259_905" x="0.0991211" y="590.59" width="174.398" height="110.774" filterUnits="userSpaceOnUse" color-interpolation-filters="sRGB">
<feFlood flood-opacity="0" result="BackgroundImageFix"/>
<feColorMatrix in="SourceAlpha" type="matrix" values="0 0 0 0 0 0 0 0 0 0 0 0 0 0 0 0 0 0 127 0" result="hardAlpha"/>
<feOffset dx="-6" dy="7"/>
<feGaussianBlur stdDeviation="10"/>
<feColorMatrix type="matrix" values="0 0 0 0 0.0823529 0 0 0 0 0.266667 0 0 0 0 0.298039 0 0 0 0.6 0"/>
<feBlend mode="normal" in2="BackgroundImageFix" result="effect1_dropShadow_259_905"/>
<feBlend mode="normal" in="SourceGraphic" in2="effect1_dropShadow_259_905" result="shape"/>
</filter>
<linearGradient id="paint0_linear_259_905" x1="158.44" y1="612.47" x2="155.61" y2="617.36" gradientUnits="userSpaceOnUse">
<stop stop-color="#FFFFDC" stop-opacity="0.5"/>
<stop offset="0.69" stop-color="#FFFFBA" stop-opacity="0"/>
</linearGradient>
<linearGradient id="paint1_linear_259_905" x1="115.85" y1="594.62" x2="63.56" y2="685.18" gradientUnits="userSpaceOnUse">
<stop stop-color="#FFFFDC" stop-opacity="0.5"/>
<stop offset="0.69" stop-color="#FFFFBA" stop-opacity="0"/>
</linearGradient>
</defs>
</svg>
