<svg width="133" height="33" viewBox="0 0 133 33" fill="none" xmlns="http://www.w3.org/2000/svg">
<path d="M7.11995 6.34C7.18995 5.58 7.07996 5.25999 6.71996 5.03999H6.13995C5.16995 5.43999 3.90996 6.41 3.90996 6.41C2.17996 5.62 0.529953 4.32001 0.529953 4.32001L1.10995 3.42C1.10995 3.42 3.51996 4.17999 5.56996 4.17999H11.6199C13.6399 4.17999 14.97 2.45 14.97 2.45L18.53 3.46001L18.17 5.25999L14.14 5.12C13.74 6.7 12.9199 8.68 11.6199 10.84C13.4899 11.63 15.87 11.85 16.84 11.67L18.53 16.42L14.86 18.51L9.88995 13.07C8.01995 15.3 5.38995 17.53 2.03995 19.05L0.199951 17.93C4.51995 13.72 6.74995 8.39 7.10995 6.34H7.11995ZM16.55 19.12C22.09 19.12 27.9299 21.96 27.9299 25.74C27.9299 29.52 22.1 32.18 16.55 32.18C11 32.18 5.20996 29.52 5.20996 25.74C5.20996 21.96 11.11 19.12 16.55 19.12ZM21.55 25.71C21.55 22.43 19.0299 19.99 16.5099 19.99C13.9899 19.99 11.5399 22.44 11.5399 25.71C11.5399 28.98 14.0999 31.4 16.5099 31.4C18.9199 31.4 21.55 29.02 21.55 25.71ZM18.27 0.720001H27.67L27.56 1.69C27.34 2.01 27.16 2.45 27.16 2.45V9.28999C29.1 8.70999 29.8999 6.91 29.8999 6.91L34.1799 8.49001L32.96 12.27L29.47 11.77C29.33 11.77 28.17 11.91 27.17 12.02V12.92C27.17 14.72 26.7 17.35 26.38 18.9H21.56C21.42 18.14 21.27 15.12 21.27 15.12V3.21001C21.27 2.35001 19.04 1.95 17.99 1.77L18.28 0.729996L18.27 0.720001Z" fill="#0E2E40"/>
<path d="M35.48 3.96001H42.97V4.97C42.79 5.19 42.61 5.62 42.61 5.62V12.75H47.07V5.41C47.07 4.98 46.53 4.76 45.34 4.44L45.66 3.39999H53.04L52.9 4.34C52.68 4.66 52.61 5.13 52.61 5.13V20.97C52.43 23.09 52.21 24.5 52.03 25.47H47.17C47.06 25.18 47.06 24.71 47.06 24.35H42.38C42.31 25.18 42.31 24.71 42.06 25.47H37.09C36.95 24.82 36.84 22.63 36.84 22.63V6.32001C36.84 5.53001 36.37 5.20001 35.26 5.10001L35.48 3.98V3.96001ZM47.07 13.65H42.61V20.96C42.61 21.82 42.5 22.62 42.5 23.37H47.07V13.65ZM52.98 0.720001H62.52L62.45 1.69C62.23 1.98 62.05 2.41 62.05 2.41V13.86C63.96 13.32 64.75 11.52 64.75 11.52L69.07 13.1L67.85 16.95L64.25 16.52L62.05 16.7V22.82C62.05 24.69 61.44 30.63 61.15 32.14H56.51C56.37 31.49 56.15 26.02 56.15 26.02V3.56C56.15 2.59 53.92 1.97999 52.62 1.75999L52.98 0.720001Z" fill="#0E2E40"/>
<path d="M76.92 17.43H93.69C96.07 17.43 97.72 14.95 97.72 14.95L102.8 16.57L102.3 18.8L98.38 18.33H89.2V26.72C89.2 28.59 88.73 30.57 88.41 32.16H83.73C83.59 31.44 83.44 29.1 83.44 29.1V18.34H77.82C76.81 18.34 74.26 20.14 74.26 20.14C71.7 19.49 69.47 17.62 69.47 17.62L69.97 16.79C71.84 17.22 74.22 17.44 76.92 17.44V17.43ZM73.03 2.99001C74.29 3.31001 77.17 3.67 78.25 3.67H91.96L94.26 2.09L98.76 3.17L98.69 4.17999L98.44 4.97L98.15 10.41C98.01 11.45 97.9 13.18 97.54 14.12L92.14 14.62L92.36 11.24L92.54 4.62H79.76C78.72 4.62 76.99 5.81 76.3 6.28C74.03 5.13 72.41 3.94 72.41 3.94L73.02 3L73.03 2.99001Z" fill="#0E2E40"/>
<path d="M104.75 3.96001H112.81L112.74 4.97L112.52 5.73V22.68H116.44C117.92 22.68 119.07 19.66 119.07 19.66L124.65 21.42L124.07 24.08L119.82 23.61H112.84C112.3 23.61 107.98 24.8 107.98 24.8L105.57 22.86L106.54 21.13V6.3C106.54 5.76 105.17 5.25999 104.38 5.17999L104.74 3.96001H104.75ZM132.57 0.720001L132.5 1.69C132.28 1.98 132.1 2.41 132.1 2.41V22.82C132.1 24.69 131.52 30.63 131.06 32.14H126.56C126.42 31.49 126.2 26.02 126.2 26.02V3.56C126.2 2.59 123.82 1.97999 122.67 1.75999L123.03 0.720001H132.57Z" fill="#0E2E40"/>
</svg>
