<svg width="92" height="86" viewBox="0 0 92 86" fill="none" xmlns="http://www.w3.org/2000/svg">
<path d="M0.169922 38.83C4.86992 35.61 9.92995 30.07 12.5099 26.12C14.6199 22.9 18.8899 15.15 20.1599 12.25H13.83L9.23993 15.89L2.90991 11.67L3.43994 10.62L13.83 10.94H20.1599L23.3799 8.99001L29.8699 11.68C25.6999 19.59 21.9599 25.19 18.3699 29.41C15.3099 32.95 7.07996 37.43 0.959961 39.91L0.169922 38.86V38.83ZM36.0499 50.12C35.5199 47.48 34.3599 39.04 34.3599 34.29V7.12L29.9799 0.789993L30.5099 0L42.2199 3.42999L41.96 7.12V32.71C41.96 38.51 39.7399 47.48 38.6899 50.12H36.0499Z" fill="#0E2E40"/>
<path d="M42.1199 49.5399C42.1899 49.2199 42.3499 49.0599 42.5899 49.0599H43.3299C43.9599 49.0599 44.6798 49.1799 45.4698 49.4299C46.2598 49.6799 46.9899 50.0299 47.6599 50.4799C48.3299 50.9399 48.8899 51.4699 49.3499 52.0899C49.8099 52.7099 50.0399 53.3799 50.0399 54.1199C50.0399 55.0399 49.7199 55.7699 49.0899 56.3399C48.4599 56.8999 47.6999 57.1799 46.8199 57.1799C46.0099 57.1799 45.3499 56.8899 44.8399 56.3099C44.3299 55.7299 43.9099 55.0399 43.5699 54.2299C43.2399 53.4199 42.9599 52.5899 42.7499 51.7199C42.5399 50.8599 42.3299 50.1299 42.1199 49.5299V49.5399ZM56.6899 45.6899C56.6899 47.9099 56.3899 50.0499 55.7899 52.1299C55.1899 54.2099 54.5399 56.2699 53.8399 58.3299C53.1399 60.3899 52.4899 62.4499 51.8899 64.5299C51.2899 66.6099 50.9899 68.7499 50.9899 70.9699C50.9899 71.8099 51.0999 72.6199 51.3299 73.3999C51.5599 74.1699 51.8099 74.9599 52.0699 75.7499C52.3299 76.5399 52.5799 77.3299 52.8099 78.0999C53.0399 78.8699 53.1499 79.6799 53.1499 80.5299C53.1499 81.8699 52.8199 82.9999 52.1499 83.9299C51.4799 84.8599 50.4299 85.3299 48.9799 85.3299C48.0599 85.3299 47.2899 85.1499 46.6599 84.7999C46.0299 84.4499 45.7099 83.7599 45.7099 82.7399C45.7099 81.6499 45.7799 80.5799 45.9199 79.5199C46.0599 78.4699 46.1299 77.3899 46.1299 76.2999C46.1299 75.6699 46.1299 75.1099 46.0999 74.6399C46.0799 74.1699 46.0199 73.7099 45.9199 73.2699C45.8199 72.8299 45.6399 72.4099 45.3899 71.9999C45.1399 71.5999 44.7899 71.1599 44.3299 70.7099C44.2899 70.6799 44.2299 70.6099 44.1499 70.5299C44.0599 70.4399 43.9799 70.3499 43.9099 70.2399C43.8399 70.1299 43.7999 70.0499 43.7999 69.9799C43.7999 69.9099 43.8699 69.8699 44.0099 69.8699C44.3999 69.6599 44.7499 69.4999 45.0699 69.3899C45.3899 69.2799 45.7199 69.0699 46.0699 68.7599C46.2799 68.5499 46.6099 68.0299 47.0499 67.1999C47.4899 66.3699 47.9699 65.3799 48.4999 64.2199C49.0299 63.0599 49.5799 61.8099 50.1599 60.4699C50.7399 59.1299 51.2899 57.8499 51.8199 56.6199C52.3499 55.3899 52.8098 54.2799 53.2198 53.2999C53.6198 52.3199 53.9099 51.5899 54.0899 51.1399C54.4799 50.2299 54.8299 49.2899 55.1499 48.3399C55.4699 47.3899 55.9199 46.5099 56.5199 45.6999H56.6799L56.6899 45.6899ZM51.9399 45.5799C51.2699 45.5799 50.5999 45.2799 49.9399 44.6799C49.2699 44.0799 48.6599 43.3699 48.1199 42.5399C47.5699 41.7099 47.1199 40.8599 46.7499 39.9799C46.3799 39.0999 46.1399 38.3799 46.0399 37.8199C45.9699 37.5699 45.9699 37.3899 46.0399 37.2699C46.1099 37.1499 46.2899 37.0899 46.5699 37.0899C47.3399 37.0899 48.2099 37.1899 49.1799 37.3799C50.1499 37.5699 51.0599 37.8899 51.9199 38.3299C52.7799 38.7699 53.4999 39.3199 54.0799 39.9899C54.6599 40.6599 54.9499 41.4699 54.9499 42.4199C54.9499 43.2999 54.6799 44.0499 54.1299 44.6599C53.5799 45.2799 52.8499 45.5799 51.9399 45.5799ZM56.8399 41.5199C56.6999 41.3399 56.6899 41.1799 56.8099 41.0199C56.9299 40.8599 57.0799 40.7799 57.2599 40.7799H76.0999C77.7899 40.7799 79.1899 40.7799 80.3199 40.7499C81.4499 40.7299 82.0299 40.7099 82.0599 40.6699C82.3399 40.4899 82.5999 40.2199 82.8499 39.8499C83.0999 39.4799 83.3499 39.0699 83.6199 38.6099C83.8799 38.1499 84.1399 37.7099 84.3899 37.2899C84.6399 36.8699 84.8999 36.5199 85.1799 36.2399L85.4399 36.1299C85.6199 36.1999 86.0099 36.4799 86.6299 36.9699C87.2499 37.4599 87.8899 38.0099 88.5599 38.6099C89.2299 39.2099 89.8299 39.7699 90.3499 40.2999C90.8799 40.8299 91.1399 41.1399 91.1399 41.2499C91.1399 41.4299 91.0499 41.5099 90.8799 41.5099H80.0599C79.7099 41.5099 79.5299 41.6899 79.5299 42.0399V49.4299C79.5299 49.6099 79.5999 49.7199 79.7399 49.7699C79.8799 49.8199 80.0199 49.8499 80.1599 49.8499C80.9299 49.8499 81.6099 49.6599 82.1899 49.2699C82.7699 48.8799 83.2499 48.4499 83.6399 47.9799C84.0299 47.4999 84.3399 47.0699 84.5899 46.6899C84.8399 46.2999 85.0498 46.1099 85.2198 46.1099C85.3598 46.1099 85.7099 46.3099 86.2799 46.7199C86.8399 47.1299 87.4399 47.5799 88.0699 48.0899C88.6999 48.5999 89.2699 49.0799 89.7599 49.5399C90.2499 49.9999 90.4999 50.2799 90.4999 50.3799C90.4999 50.5199 90.3999 50.6399 90.2099 50.7499C90.0199 50.8599 89.8099 50.9599 89.5799 51.0699C89.3499 51.1799 89.1399 51.2899 88.9499 51.4099C88.7599 51.5299 88.6599 51.6799 88.6599 51.8599V83.1999C88.6599 83.6199 88.4799 83.9599 88.1099 84.1999C87.7399 84.4399 87.3099 84.6199 86.8199 84.7299C86.3299 84.8399 85.8299 84.8999 85.3199 84.9099C84.8099 84.9299 84.3999 84.9399 84.0799 84.9399C83.7299 84.9399 83.4599 84.9399 83.2899 84.9699C83.1099 84.9899 82.8899 84.8599 82.5999 84.5699C82.5599 84.5299 82.5299 84.2599 82.4899 83.7499C82.4499 83.2399 82.4299 82.6099 82.4099 81.8499C82.3899 81.0899 82.3699 80.2799 82.3599 79.3999C82.3399 78.5199 82.3299 77.6799 82.3299 76.8699V73.4899C82.3299 73.1399 82.3499 72.5999 82.3799 71.8799C82.4099 71.1599 82.4399 70.3999 82.4599 69.6099C82.4799 68.8199 82.4799 68.0899 82.4599 67.4199C82.4399 66.7499 82.3999 66.3099 82.3299 66.0999C82.2199 65.7799 82.0499 65.4999 81.7999 65.2599C81.6899 65.1499 81.3799 65.0799 80.8499 65.0499C80.3199 65.0199 79.7599 64.9999 79.1599 64.9999C78.5599 64.9999 77.9699 64.9999 77.3899 65.0299C76.8099 65.0499 76.4099 65.0599 76.1999 65.0599C76.1299 65.0599 76.0099 64.9799 75.8299 64.8199C75.6499 64.6599 75.4799 64.4799 75.2999 64.2699C75.1199 64.0599 74.9499 63.8599 74.7699 63.6599C74.5899 63.4699 74.4899 63.3399 74.4499 63.2599C74.4499 61.2499 74.4499 59.2399 74.4199 57.2199C74.3999 55.1999 74.3899 53.1799 74.3899 51.1799C74.3899 50.9299 74.2699 50.7499 74.0199 50.6299C73.7699 50.5099 73.4899 50.4399 73.1799 50.4199C72.8599 50.3999 72.5599 50.4599 72.2799 50.5799C71.9999 50.6999 71.8199 50.8699 71.7499 51.0799C71.6799 51.2599 71.6399 51.4899 71.6199 51.7899C71.5999 52.0899 71.5899 52.4099 71.5899 52.7399C71.5899 53.0699 71.5899 53.3899 71.5599 53.6899C71.5399 53.9899 71.5299 54.2399 71.5299 54.4599C71.4899 55.5499 71.4399 56.5199 71.3699 57.3599C71.2999 58.1999 71.1499 58.9999 70.9199 59.7299C70.6899 60.4699 70.3699 61.1999 69.9399 61.9199C69.5199 62.6399 68.9399 63.4199 68.1999 64.2699C68.0899 64.3799 67.9399 64.5399 67.7499 64.7699C67.5599 64.9999 67.3399 65.2299 67.1199 65.4599C66.8899 65.6899 66.6699 65.8899 66.4599 66.0699C66.2499 66.2499 66.0699 66.3299 65.9299 66.3299C65.7899 66.3299 65.6699 66.3099 65.5599 66.2799C65.4499 66.2499 65.3999 66.1399 65.3999 65.9599C65.3999 63.5299 65.5799 61.1499 65.9299 58.8099C66.2799 56.4699 66.4599 54.0899 66.4599 51.6599C66.4599 51.3399 66.3699 51.0899 66.1999 50.8899C66.0199 50.6999 65.8199 50.5699 65.5899 50.5199C65.3599 50.4699 65.1199 50.4899 64.8499 50.5699C64.5899 50.6599 64.3499 50.8099 64.1399 51.0199L63.9799 51.3899V55.9299C63.9799 57.7199 64.0399 59.5199 64.1599 61.3099C64.2799 63.0999 64.3399 64.8999 64.3399 66.6899C64.3399 66.8699 64.2899 67.1999 64.1799 67.6899C64.0699 68.1799 63.9999 68.6799 63.9399 69.1699C63.8899 69.6599 63.8998 70.0999 63.9698 70.4899C64.0398 70.8799 64.2499 71.0699 64.5999 71.0699H80.9599C81.1399 71.0699 81.2198 71.1599 81.2198 71.3299C81.2198 71.4999 81.1299 71.5899 80.9599 71.5899H64.5499L64.1799 71.6999C64.1099 71.7399 64.0599 71.8099 64.0199 71.9099C63.9799 72.0199 63.9698 72.0999 63.9698 72.1699C63.9698 72.9799 63.9999 73.7699 64.0499 74.5399C64.0999 75.3099 64.1299 76.1099 64.1299 76.9099C64.1299 77.1899 64.1299 77.7099 64.0999 78.4699C64.0799 79.2299 64.0499 80.0199 63.9899 80.8399C63.9399 81.6699 63.8699 82.4299 63.7799 83.1399C63.6899 83.8399 63.5799 84.2499 63.4399 84.3499C62.9499 84.7399 62.3099 84.9899 61.5099 85.1199C60.7199 85.2399 60.0099 85.2999 59.3699 85.2999C59.0499 85.2999 58.8399 85.2999 58.7399 85.2699C58.6299 85.2499 58.5099 85.0899 58.3699 84.7699C58.2999 84.5899 58.2599 84.3399 58.2399 83.9999C58.2199 83.6699 58.2199 83.3099 58.2399 82.9499C58.2599 82.5799 58.2699 82.2199 58.2899 81.8699C58.3099 81.5199 58.3199 81.2399 58.3199 81.0299C58.3199 75.4699 58.2699 69.9399 58.1599 64.4399C58.0499 58.9399 57.9999 53.3999 57.9999 47.8499C57.9999 47.7099 58.0299 47.5799 58.0799 47.4499C58.1299 47.3299 58.2499 47.2699 58.4199 47.2699C58.5599 47.2699 58.8699 47.3799 59.3399 47.6099C59.8099 47.8399 60.3699 48.0899 60.9999 48.3699C61.6299 48.6499 62.3099 48.9099 63.0299 49.1399C63.7499 49.3699 64.4099 49.4799 65.0099 49.4799C65.3599 49.4799 65.5799 49.4799 65.6699 49.4499C65.7599 49.4299 65.9099 49.2799 66.1199 48.9999C66.1899 48.8899 66.2399 48.5199 66.2799 47.8899C66.3099 47.2599 66.3499 46.5399 66.3899 45.7499C66.4199 44.9599 66.4399 44.1999 66.4399 43.4799V42.0799C66.4399 41.7999 66.3199 41.6599 66.0699 41.6599H57.1499L56.7799 41.4999L56.8399 41.5199ZM65.2299 80.0399H81.1099L81.2699 80.1999L81.1099 80.3599H65.2299L65.0699 80.1999L65.2299 80.0399ZM74.2599 42.0499C74.2599 41.9399 74.1299 41.8499 73.8599 41.7599C73.5999 41.6699 73.3099 41.6199 73.0199 41.5999C72.7199 41.5799 72.4399 41.6099 72.1799 41.6799C71.9199 41.7499 71.7799 41.8699 71.7799 42.0499V49.4399C71.7799 49.5499 71.9099 49.6399 72.1799 49.7299C72.4399 49.8199 72.7199 49.8599 73.0199 49.8599C73.3199 49.8599 73.5999 49.7999 73.8599 49.6799C74.1199 49.5599 74.2599 49.3599 74.2599 49.0699V42.0499ZM82.3299 50.7999C82.3299 50.6599 82.1799 50.5499 81.8799 50.4799C81.5799 50.4099 81.2599 50.3699 80.9299 50.3699C80.5999 50.3699 80.2799 50.4099 79.9799 50.4799C79.6799 50.5499 79.5299 50.6599 79.5299 50.7999V59.2399C79.5299 59.4499 79.5999 59.6099 79.7399 59.7199C79.8799 59.8299 80.0599 59.8999 80.2699 59.9299C80.4799 59.9699 80.6999 59.9799 80.9299 59.9799H81.4799C81.6199 59.9799 81.7999 59.9599 82.0099 59.9299C82.2199 59.8999 82.3299 59.7899 82.3299 59.6099V50.7999Z" fill="#B18B6C"/>
</svg>
