<svg width="50" height="48" viewBox="0 0 50 48" fill="none" xmlns="http://www.w3.org/2000/svg">
<path d="M0.309998 21.91C2.87 20.15 5.64 17.13 7.05 14.97C8.2 13.21 10.54 8.98 11.23 7.39H7.77L5.25999 9.38L1.8 7.07L2.09 6.49L7.77 6.66H11.23L12.99 5.59L16.53 7.06C14.25 11.38 12.21 14.44 10.25 16.74C8.58 18.67 4.08001 21.12 0.740005 22.47L0.309998 21.89V21.91ZM19.91 28.08C19.62 26.64 18.99 22.03 18.99 19.44V4.6L16.6 1.14L16.89 0.709999L23.29 2.58L23.15 4.6V18.58C23.15 21.75 21.94 26.65 21.36 28.09H19.92L19.91 28.08Z" fill="white"/>
<path d="M23.23 27.76C23.27 27.59 23.35 27.5 23.49 27.5H23.89C24.24 27.5 24.62 27.57 25.06 27.7C25.5 27.83 25.89 28.03 26.26 28.28C26.62 28.53 26.93 28.82 27.18 29.16C27.43 29.5 27.55 29.87 27.55 30.27C27.55 30.77 27.38 31.17 27.03 31.48C26.68 31.79 26.27 31.94 25.79 31.94C25.35 31.94 24.99 31.78 24.71 31.46C24.43 31.14 24.2 30.76 24.02 30.32C23.84 29.88 23.69 29.42 23.57 28.95C23.45 28.48 23.34 28.08 23.22 27.75L23.23 27.76ZM31.18 25.66C31.18 26.87 31.02 28.04 30.69 29.18C30.36 30.31 30.01 31.44 29.62 32.57C29.24 33.69 28.88 34.82 28.55 35.96C28.22 37.09 28.06 38.27 28.06 39.48C28.06 39.94 28.12 40.38 28.25 40.81C28.37 41.23 28.51 41.66 28.65 42.09C28.79 42.52 28.93 42.95 29.05 43.37C29.17 43.79 29.24 44.23 29.24 44.7C29.24 45.43 29.06 46.05 28.69 46.56C28.32 47.07 27.75 47.32 26.96 47.32C26.46 47.32 26.04 47.22 25.69 47.03C25.34 46.84 25.17 46.46 25.17 45.91C25.17 45.31 25.21 44.73 25.29 44.15C25.37 43.57 25.41 42.99 25.41 42.39C25.41 42.04 25.41 41.74 25.4 41.48C25.4 41.22 25.36 40.97 25.3 40.73C25.24 40.49 25.15 40.26 25.01 40.04C24.88 39.82 24.68 39.58 24.43 39.33C24.41 39.31 24.38 39.28 24.33 39.23C24.28 39.18 24.24 39.13 24.2 39.07C24.16 39.01 24.14 38.96 24.14 38.93C24.14 38.9 24.18 38.87 24.26 38.87C24.47 38.75 24.66 38.67 24.84 38.61C25.01 38.55 25.2 38.44 25.39 38.26C25.51 38.14 25.68 37.86 25.92 37.41C26.16 36.96 26.42 36.42 26.71 35.78C27 35.15 27.3 34.46 27.62 33.73C27.94 33 28.24 32.3 28.53 31.63C28.82 30.96 29.07 30.35 29.29 29.81C29.51 29.27 29.67 28.88 29.77 28.63C29.98 28.13 30.17 27.62 30.35 27.1C30.53 26.58 30.77 26.1 31.1 25.66H31.19H31.18ZM28.59 25.6C28.22 25.6 27.86 25.44 27.49 25.11C27.12 24.78 26.79 24.39 26.5 23.94C26.2 23.49 25.95 23.02 25.75 22.54C25.55 22.06 25.42 21.67 25.36 21.36C25.32 21.23 25.32 21.13 25.36 21.06C25.4 20.99 25.49 20.96 25.65 20.96C26.07 20.96 26.55 21.01 27.08 21.12C27.61 21.23 28.11 21.4 28.58 21.64C29.05 21.88 29.44 22.18 29.76 22.55C30.08 22.92 30.24 23.36 30.24 23.88C30.24 24.36 30.09 24.77 29.79 25.1C29.49 25.44 29.09 25.6 28.59 25.6ZM31.27 23.38C31.19 23.28 31.19 23.19 31.26 23.11C31.33 23.02 31.41 22.98 31.5 22.98H41.79C42.71 22.98 43.48 22.98 44.1 22.97C44.71 22.97 45.03 22.95 45.05 22.93C45.2 22.83 45.35 22.69 45.48 22.48C45.61 22.28 45.75 22.05 45.9 21.8C46.04 21.55 46.18 21.31 46.32 21.08C46.45 20.85 46.6 20.66 46.75 20.5L46.89 20.44C46.99 20.48 47.2 20.63 47.54 20.9C47.88 21.17 48.23 21.47 48.59 21.79C48.95 22.12 49.28 22.42 49.57 22.71C49.86 23 50 23.17 50 23.23C50 23.33 49.95 23.37 49.86 23.37H43.95C43.76 23.37 43.66 23.47 43.66 23.66V27.69C43.66 27.79 43.7 27.85 43.78 27.88C43.86 27.91 43.93 27.92 44.01 27.92C44.43 27.92 44.8 27.81 45.12 27.6C45.44 27.39 45.7 27.15 45.91 26.89C46.12 26.63 46.29 26.4 46.43 26.18C46.56 25.97 46.68 25.86 46.78 25.86C46.86 25.86 47.05 25.97 47.36 26.19C47.67 26.41 47.99 26.66 48.34 26.94C48.69 27.22 48.99 27.48 49.26 27.73C49.53 27.98 49.66 28.13 49.66 28.19C49.66 28.27 49.61 28.33 49.5 28.39C49.39 28.45 49.28 28.51 49.15 28.56C49.02 28.62 48.91 28.68 48.8 28.75C48.69 28.82 48.64 28.9 48.64 29V46.12C48.64 46.35 48.54 46.53 48.34 46.67C48.14 46.81 47.9 46.9 47.63 46.96C47.36 47.02 47.09 47.05 46.81 47.06C46.53 47.06 46.31 47.07 46.13 47.07C45.94 47.07 45.79 47.07 45.7 47.08C45.6 47.08 45.48 47.02 45.33 46.86C45.31 46.84 45.29 46.69 45.27 46.41C45.25 46.13 45.24 45.79 45.23 45.37C45.23 44.96 45.21 44.51 45.2 44.03C45.2 43.55 45.19 43.09 45.19 42.65V40.81C45.19 40.62 45.19 40.32 45.22 39.93C45.24 39.54 45.25 39.12 45.26 38.69C45.26 38.26 45.26 37.86 45.26 37.49C45.26 37.13 45.23 36.88 45.19 36.77C45.13 36.6 45.04 36.44 44.9 36.31C44.84 36.25 44.67 36.21 44.38 36.19C44.09 36.17 43.78 36.16 43.46 36.16C43.14 36.16 42.81 36.16 42.49 36.17C42.17 36.18 41.96 36.18 41.84 36.18C41.8 36.18 41.73 36.14 41.64 36.05C41.54 35.96 41.45 35.86 41.35 35.75C41.25 35.63 41.16 35.52 41.06 35.42C40.96 35.31 40.91 35.24 40.89 35.2C40.89 34.1 40.89 33.01 40.88 31.9C40.88 30.8 40.87 29.7 40.87 28.6C40.87 28.47 40.8 28.37 40.67 28.3C40.54 28.23 40.38 28.19 40.21 28.19C40.04 28.19 39.87 28.21 39.72 28.28C39.57 28.35 39.47 28.44 39.43 28.55C39.39 28.65 39.37 28.78 39.36 28.94C39.36 29.1 39.35 29.28 39.35 29.46C39.35 29.64 39.35 29.82 39.34 29.98C39.34 30.14 39.33 30.28 39.33 30.4C39.31 31 39.28 31.52 39.24 31.98C39.2 32.44 39.12 32.87 39 33.28C38.87 33.68 38.7 34.08 38.47 34.48C38.24 34.87 37.92 35.3 37.52 35.76C37.46 35.82 37.38 35.91 37.28 36.03C37.17 36.16 37.06 36.28 36.93 36.4C36.8 36.53 36.69 36.64 36.57 36.73C36.45 36.82 36.36 36.87 36.28 36.87C36.2 36.87 36.14 36.87 36.08 36.84C36.02 36.82 35.99 36.76 35.99 36.67C35.99 35.34 36.09 34.04 36.28 32.77C36.47 31.49 36.57 30.19 36.57 28.87C36.57 28.7 36.52 28.56 36.43 28.45C36.33 28.34 36.22 28.28 36.1 28.25C35.97 28.22 35.84 28.23 35.7 28.28C35.56 28.33 35.43 28.41 35.31 28.53L35.22 28.73V31.21C35.22 32.19 35.25 33.17 35.32 34.15C35.39 35.13 35.42 36.11 35.42 37.09C35.42 37.19 35.39 37.37 35.33 37.64C35.27 37.91 35.23 38.18 35.2 38.45C35.17 38.72 35.18 38.96 35.21 39.17C35.25 39.38 35.36 39.49 35.56 39.49H44.49C44.59 39.49 44.63 39.54 44.63 39.63C44.63 39.72 44.58 39.77 44.49 39.77H35.53L35.33 39.83C35.33 39.83 35.26 39.89 35.24 39.95C35.22 40.01 35.21 40.06 35.21 40.09C35.21 40.53 35.22 40.96 35.25 41.39C35.28 41.81 35.29 42.25 35.29 42.69C35.29 42.84 35.29 43.13 35.28 43.54C35.28 43.95 35.25 44.39 35.22 44.84C35.19 45.29 35.15 45.71 35.1 46.09C35.05 46.47 34.99 46.7 34.91 46.75C34.64 46.96 34.29 47.1 33.86 47.17C33.43 47.24 33.04 47.27 32.69 47.27C32.52 47.27 32.4 47.27 32.34 47.26C32.28 47.25 32.21 47.16 32.14 46.99C32.1 46.89 32.08 46.75 32.07 46.57C32.07 46.39 32.07 46.2 32.07 45.99C32.07 45.79 32.09 45.59 32.1 45.4C32.1 45.21 32.11 45.05 32.11 44.94C32.11 41.9 32.08 38.88 32.02 35.88C31.96 32.87 31.93 29.85 31.93 26.82C31.93 26.74 31.94 26.67 31.97 26.6C32 26.53 32.06 26.5 32.16 26.5C32.24 26.5 32.4 26.56 32.66 26.69C32.92 26.82 33.22 26.95 33.57 27.11C33.92 27.26 34.29 27.4 34.68 27.53C35.07 27.66 35.43 27.72 35.76 27.72C35.95 27.72 36.07 27.72 36.12 27.71C36.17 27.71 36.25 27.62 36.36 27.47C36.4 27.41 36.43 27.21 36.45 26.86C36.47 26.51 36.49 26.13 36.51 25.69C36.53 25.26 36.54 24.84 36.54 24.45V23.69C36.54 23.54 36.47 23.46 36.34 23.46H31.47L31.27 23.37V23.38ZM35.85 44.42H44.52L44.61 44.51L44.52 44.6H35.85L35.76 44.51L35.85 44.42ZM40.78 23.67C40.78 23.61 40.71 23.56 40.56 23.51C40.42 23.46 40.26 23.43 40.1 23.42C39.94 23.42 39.78 23.42 39.64 23.46C39.5 23.5 39.42 23.57 39.42 23.66V27.69C39.42 27.75 39.49 27.8 39.64 27.85C39.78 27.9 39.94 27.92 40.1 27.92C40.26 27.92 40.42 27.89 40.56 27.82C40.7 27.75 40.78 27.64 40.78 27.49V23.66V23.67ZM45.19 28.45C45.19 28.37 45.11 28.32 44.94 28.28C44.78 28.24 44.6 28.22 44.42 28.22C44.24 28.22 44.06 28.24 43.9 28.28C43.74 28.32 43.66 28.38 43.66 28.45V33.06C43.66 33.18 43.7 33.26 43.78 33.32C43.86 33.38 43.95 33.42 44.07 33.44C44.19 33.46 44.31 33.47 44.43 33.47H44.73C44.81 33.47 44.9 33.47 45.02 33.44C45.14 33.42 45.19 33.36 45.19 33.27V28.46V28.45Z" fill="#B18B6C"/>
</svg>
