<svg width="341" height="515" viewBox="0 0 341 515" fill="none" xmlns="http://www.w3.org/2000/svg">
<path d="M33.43 240.63C30.96 241.55 38.3301 245.11 38.5601 241.79C38.7801 238.71 34.98 240.06 33.43 240.63Z" fill="#DCDDDD"/>
<path d="M30.56 242.75C32.55 242.61 31.74 246.3 30.15 246.14C28.53 245.98 29.23 242.84 30.56 242.75Z" fill="#DCDDDD"/>
<path d="M143.1 275.66C141.65 276.31 140.19 277.31 138.69 278.27C135.22 279.64 130.79 281.07 129.35 281.29H129.33C126.17 281.23 123.7 280 121.19 277.25C120.86 276.88 120.48 276.53 120.07 276.19C119.3 275.38 118.51 274.54 117.65 273.74C116.55 272.74 115.78 272.56 115.01 271.26C114.68 270.7 115.06 269.12 114.68 268.75C114.64 268.72 114.61 268.68 114.58 268.65C114.47 268.13 114.15 267.71 113.31 267.51C112.47 267.31 110.1 268.97 108.57 269.78C107.28 270.18 105.79 270.52 104.29 270.7H104.27C102.82 270.8 101.34 270.76 100.12 270.54C97.13 269.98 96.09 268.09 94.75 266.56C94.38 265.82 93.96 265.17 93.28 264.8C92.86 264.57 92.2901 264.53 91.6801 264.57C89.8201 264.15 86.09 264.2 84.16 264.04C82.05 263.85 80.51 263.72 78.66 265.07C74.69 267.98 74.43 273.69 69.72 276.48C68.32 277.03 66.27 276.84 64.63 277.55C62.9 278.3 62.39 279.45 60.33 279.52C55.33 279.7 55.8399 274.93 54.5699 271.88C53.5499 269.43 51.68 268.45 49.92 267.19C48.75 266.36 47.68 265.48 46.35 265.19C45 264.9 43.32 266.67 42.45 265.01C41.7 263.6 46.2599 260.66 46.4399 259.33C46.6599 257.65 44.7701 257.26 44.8101 255.47C44.8401 254.15 46.8 253.78 46.78 252.29C46.75 250.27 44.17 249.85 43.72 248.3C42.78 245.09 44.42 246.6 45.24 244.61C45.97 242.85 47.3799 245.09 45.6899 242.39C44.9599 241.21 42.73 241.49 42.16 239.85C41.56 238.13 43.17 235.7 43 233.85C42.86 232.36 41.9 230.56 41.67 228.93C41 224.2 39.26 220.65 39.8 215.59C40.05 213.13 39.23 204.57 37.7 210.93C36.91 214.26 38.76 217.96 33.87 215.22C31.84 214.08 31.46 213.43 30.74 211.07C30.44 210.06 30.82 206.25 29.33 205.9C26.96 205.35 31.75 216.03 32.13 217.05C33.53 220.93 34.66 224.96 36.08 228.88C37.41 232.55 39.24 238 33.75 237.64C29.06 237.35 28.48 231.87 27.88 228.14C27.54 225.97 28.23 222.45 27.37 220.48C26.69 218.96 24.65 218.55 24.17 217.4C23.38 215.47 25.28 214.79 25.26 212.95C25.22 210.4 24.26 211.48 23.36 209.66C22.6 209.63 22.07 209.25 21.8 208.53C21.67 207.8 21.74 207.1 22.05 206.43C21.45 205.24 23.27 204.33 21.09 204.16C18.68 203.99 17.25 210.7 13.74 208.94C10.13 207.13 17.2 205.28 17.19 203.96C17.16 202.03 14.58 200.81 12.93 201.66C11.73 202.27 12.6 204.69 11.16 205.26C8.74997 206.2 10.33 203.91 10.05 203.33C10.37 203.98 9.75001 199.74 9.64001 200.23C9.98001 198.52 11.15 196.8 12.32 195.42C14.28 193.11 10.87 193.7 14.21 192.99C14.81 192.86 16.43 195.94 17.53 194.17C17.7 193.88 14.18 183.88 17.55 184.27C19.81 184.54 18.47 190.15 22.01 188.77C23.43 188.21 24.24 176.12 25.87 177.06C25.93 180.13 27.86 183.72 27.49 186.69C27.32 188.1 23.72 192.3 26.12 193.47C28.01 194.4 27.61 192.41 28.82 191.26C29.64 190.5 30.76 190.38 31.51 189.47C32.11 188.76 31.27 187.83 32.05 187.28C33.56 186.21 36.97 187.14 37.01 184.51C37.07 181.56 34.03 182.99 32.64 181.64C32.4 181.42 28.33 175.83 28.21 175.99C28.21 173.44 31.65 173.22 33.65 173.18C35.95 173.13 37.6501 173.47 39.4301 174.9C39.9101 175.27 41.01 177.78 41.26 177.83C43.39 178.22 42.65 177.97 42.48 176.18C42.23 173.61 39.01 172.46 41.33 169.52C42.6 167.9 43.97 168.23 45.66 168.84C45.5 168.84 48.69 171.12 48.88 171.25C49.31 171.56 50.51 171.62 51.08 171.94C54.26 173.74 53.48 174.66 57.33 175.16C58.27 175.28 59.4 174.82 60.33 174.92C61.35 175.04 64.57 176.21 65.83 176.71C72.76 179.46 69.19 186.22 71.62 191.06C72.49 192.79 72.78 192.27 73.62 191.13C75.27 188.91 73.51 187.29 77.27 185.69C82 183.66 86.5999 182.71 91.4399 181.16C92.2499 180.93 93.06 180.67 93.88 180.33C93.94 180.31 94 180.29 94.05 180.26C94.27 180.18 94.51 180.09 94.74 179.97C94.82 179.95 94.89 179.91 94.97 179.87C94.99 179.87 95.02 179.85 95.04 179.84C97.68 178.66 99.88 179.25 101.97 180.43C102.61 181.11 103.22 181.83 103.96 182.22C104.76 182.66 105.45 182.91 106.07 183.13C107.07 183.8 108.1 184.41 109.21 184.85C109.45 185.07 109.7 185.33 109.96 185.62C110.34 186.04 110.68 186.47 111.03 186.92C111.79 190.45 118.15 193.38 120.26 195.62C120.72 196.1 121.45 197.17 121.95 198.32C121.98 198.43 122.01 198.54 122.04 198.66C122.29 199.84 122.72 201.6 121.44 202.31C120.14 203.03 119.91 201.46 118.89 201.48H118.84C118.33 201.15 117.74 200.91 116.98 201.09C115.86 201.35 114.91 202.96 114.17 204.65C114.17 204.67 114.15 204.68 114.15 204.7C113.06 206.56 112.97 207.79 111.41 207.69C111.89 207.86 112.36 208 112.83 208.07C112.78 208.2 112.73 208.31 112.7 208.4C112.58 208.66 112.47 208.92 112.37 209.15C112.32 209.27 112.27 209.38 112.23 209.48C112.18 209.59 112.14 209.69 112.1 209.8C112.05 209.9 112.02 210 111.98 210.1C111.92 210.24 111.88 210.39 111.83 210.51C111.79 210.61 111.76 210.71 111.73 210.8C111.67 210.99 111.62 211.17 111.58 211.33C111.53 211.5 111.5 211.66 111.47 211.82C111.34 212.53 111.37 213.14 111.51 213.81C111.58 214.3 111.68 214.88 111.8 215.59C111.95 216.44 112.86 220.6 113.46 221.27C113.77 221.62 114.19 221.82 114.67 221.95C114.69 221.97 114.71 221.98 114.73 222.01C115.48 222.69 116.83 222.22 117.8 222.61C117.83 222.63 117.86 222.64 117.9 222.66C117.96 222.69 118.02 222.73 118.07 222.76C118.13 222.8 118.18 222.85 118.24 222.9C118.35 223 118.44 223.11 118.52 223.24C118.58 223.34 118.64 223.45 118.69 223.58C118.59 223.61 118.5 223.65 118.41 223.69C117.44 224.12 117.39 224.82 117.64 225.57C117.79 226.55 118.37 227.67 118.86 228.51C118.86 228.53 118.88 228.55 118.9 228.57C118.99 228.73 119.07 228.87 119.15 229.01C119.44 229.98 119.86 231.69 120.33 232.04C120.95 232.49 121.38 232.26 121.78 231.97C121.8 231.97 121.83 231.99 121.85 231.99C122.59 232.2 122.87 231.84 123.23 231.57C124.65 231.95 125.06 231.8 126.11 233.13C126.33 233.8 126.46 234.52 126.81 235C126.86 235.06 126.9 235.13 126.94 235.18C127.23 236.16 127.61 237.12 128.62 237.3C129.31 237.43 129.78 237.3 130.11 237.01C130.28 236.95 130.48 236.88 130.69 236.8C131.71 236.39 131.6 231.96 133.18 235.82C133.35 236.22 133.43 236.61 133.44 237C133.18 238.57 132.33 240.43 131.83 241.49C131.83 241.51 131.83 241.51 131.81 241.52C131.52 242.04 131.25 242.54 131.05 243.02C130.45 244.44 128.8 248.15 129.06 249.87C129.12 250.23 129.19 250.53 129.27 250.78C129.85 252.54 131.13 251.88 132.84 253.33C132.9 253.37 132.96 253.43 133.02 253.48C133.09 253.54 133.16 253.62 133.23 253.69C133.34 253.83 133.44 253.95 133.53 254.1C133.9 254.72 134.01 255.42 134.37 256.06C134.55 256.53 134.77 256.99 135.12 257.39C135.89 258.3 136.68 258.42 137.34 258.79C138.82 260.85 137.88 261.55 138.03 264.73C138.09 266.06 139.51 269.44 140.93 272.09C141.52 273.48 142.18 274.84 143.07 275.61L143.1 275.66Z" fill="#DCDDDD"/>
<path d="M91.67 264.57C90.53 264.64 89.22 264.99 88.37 264.95C83.53 264.71 80.52 262.33 77.08 267.11C74.82 270.26 73.77 274.88 69.71 276.47C74.43 273.68 74.68 267.97 78.65 265.06C80.5 263.71 82.03 263.84 84.15 264.03C86.08 264.2 89.81 264.14 91.67 264.56V264.57Z" fill="#DCDDDD"/>
<path d="M93.86 180.34C93.04 180.67 92.23 180.94 91.42 181.17C92.22 180.92 93.04 180.64 93.86 180.34Z" fill="#DCDDDD"/>
<path d="M101.95 180.44C99.86 179.26 97.67 178.67 95.02 179.85C96.54 179.17 98.23 178.35 99.79 178.82C100.63 179.07 101.3 179.74 101.94 180.44H101.95Z" fill="#DCDDDD"/>
<path d="M104.27 270.7C101.61 271.03 98.88 270.87 96.95 269.68C95.81 268.97 95.33 267.69 94.75 266.57C96.09 268.1 97.13 269.99 100.12 270.55C101.34 270.77 102.83 270.81 104.27 270.71V270.7Z" fill="#DCDDDD"/>
<path d="M109.2 184.88C108.1 184.44 107.06 183.82 106.06 183.16C107.13 183.53 108.05 183.84 109.2 184.88Z" fill="#DCDDDD"/>
<path d="M114.57 268.65C112.7 266.83 113.02 268.07 110.45 269.11C109.89 269.34 109.25 269.56 108.56 269.78C110.09 268.97 112.46 267.31 113.3 267.51C114.14 267.72 114.46 268.13 114.57 268.65Z" fill="#DCDDDD"/>
<path d="M118.84 201.51C116.58 201.56 116.74 201.27 115.13 203.3C114.74 203.79 114.43 204.25 114.17 204.68C114.92 203 115.86 201.38 116.98 201.12C117.74 200.94 118.33 201.18 118.84 201.51Z" fill="#DCDDDD"/>
<path d="M121.95 198.35C121.45 197.2 120.72 196.13 120.26 195.65C118.15 193.42 111.79 190.48 111.03 186.96C111.6 187.71 112.17 188.53 112.89 189.45C115.18 192.38 120.8 194.41 121.95 198.35Z" fill="#DCDDDD"/>
<path d="M129.32 281.29C129.19 281.31 129.08 281.31 129.01 281.31C124.82 281.14 122.53 278.79 120.06 276.19C120.47 276.52 120.85 276.87 121.18 277.25C123.69 280 126.16 281.24 129.32 281.29Z" fill="#DCDDDD"/>
<path d="M134.4 256.1C134.04 255.46 133.92 254.76 133.56 254.14C133.94 254.74 134.14 255.43 134.4 256.1Z" fill="#DCDDDD"/>
<path d="M140.96 272.14C139.54 269.49 138.12 266.1 138.06 264.78C137.91 261.6 138.85 260.9 137.37 258.84C137.94 259.14 138.41 259.62 138.7 260.91C139.42 264.15 137.89 265.72 139.56 268.92C140.03 269.81 140.47 270.99 140.96 272.14Z" fill="#DCDDDD"/>
<path d="M138.69 278.27C140.18 277.31 141.65 276.31 143.1 275.66C143.12 275.68 143.14 275.71 143.16 275.72C143.63 276.11 141.46 277.17 138.69 278.27Z" fill="#DCDDDD"/>
<path d="M36.62 166.87C38.36 167.22 40.2701 170.38 37.4301 170.24C35.5001 170.14 34.94 166.54 36.62 166.87Z" fill="#DCDDDD"/>
<path d="M22.51 325.39C20.72 326.41 21.3799 321.11 23.9099 320.32C29.2199 318.64 24.47 324.28 22.51 325.39Z" fill="#DCDDDD"/>
<path d="M3.21002 347.75C5.24002 350.21 0.700024 349.21 0.900024 349.12C0.440024 349.34 0.370021 344.31 3.21002 347.75Z" fill="#DCDDDD"/>
<path d="M83.49 482.81C84.5 485.63 81.26 485.18 80.53 483.48C79.7 481.57 82.72 480.65 83.49 482.81Z" fill="#DCDDDD"/>
<path d="M68.12 477.52C62.45 478.1 57.74 479.01 52.43 480.88C47.96 482.45 43.88 481.43 39.29 483.29C32.38 486.08 26.2 487.24 20.83 492.79C18.22 495.49 14.24 498.31 13.83 502.1C13.31 506.78 17.12 510.22 20.59 512.66C26.21 516.62 23.5 511.09 28.05 509.82C28.41 509.72 31.97 510.3 32.42 510.34C33.74 510.45 34.72 510.25 36.28 510.54C36.89 510.65 38.15 510.45 38.86 510.5C39.32 511.12 39.92 511.48 40.67 511.6C41.45 511.1 42.28 510.69 43.15 510.37C46.59 510.02 49.63 511.57 52.88 510.03C53.62 509.2 54.34 508.35 55.05 507.49C55.93 506.76 56.87 506.67 57.87 507.22C59.07 506.8 60.86 506.34 62.29 505.9C62.88 505.72 64.98 505.41 65.43 505.31C65.57 504.23 66.22 503.77 67.38 503.94C68.4 504.4 69.4199 504.44 70.4499 504.06C73.2799 502.86 73.78 499.64 75.31 497.51C77.56 494.38 80.07 493.67 79.54 489.43C79.14 486.28 77.93 482.7 75.3 481.07C74.93 480.84 72.38 480.32 71.73 480.01C70.14 479.26 70.6 477.26 68.15 477.51L68.12 477.52Z" fill="#DCDDDD"/>
<path d="M26.55 91.8101C26.41 91.9401 20.09 94.1701 20.08 94.1701C17.33 93.8201 17.16 91.4001 18.77 89.3001C20.86 86.5801 31.86 86.9401 26.55 91.8101Z" fill="#DCDDDD"/>
<path d="M17.23 103.77C16.84 104.05 13.48 103.5 13.29 102.92C12.37 100.07 20.65 101.28 17.23 103.77Z" fill="#DCDDDD"/>
<path d="M22.32 107.36C23.26 104.91 18.63 104.27 18.78 106.04C18.84 106.75 21.91 108.43 22.32 107.36Z" fill="#DCDDDD"/>
<path d="M28.35 99.82C29.68 101.11 33.77 101.46 31.1 104.45C28.51 107.35 28.51 103.74 27.45 102.67C26.08 101.29 24.58 100.92 24.37 98.6201C24.31 97.9601 25.42 92.93 27.2 93.98C28.8 94.93 26.99 98.5 28.35 99.82Z" fill="#DCDDDD"/>
<path d="M33.94 118.55C33.83 117.47 26.94 113.81 26.54 116.71C26.63 116.07 29.39 120.36 29 120.2C29.71 120.5 34.04 119.68 33.93 118.55H33.94Z" fill="#DCDDDD"/>
<path d="M40.38 117.94C40.49 116.48 37.57 116.68 37.08 116.98C36.23 117.51 36.7801 118.67 36.5601 118.93C36.5301 118.97 35.76 121.24 35.37 121.84C34.67 122.9 31.94 123.53 31.56 124.84C30.6 128.08 34.23 128.83 36.92 129.48C38.4 129.83 39.1 130.98 40.66 130.04C42.27 129.08 41 126.67 42.07 125.76C43.81 124.28 44.77 125.66 46.76 124.65C47.61 124.22 49.67 122.05 48.88 120.68C47.83 118.86 46.57 120.41 45.33 120.18C44.22 119.98 43.5901 118.64 42.3001 119.17C41.2901 119.59 41.39 120.92 40.83 121.18C36.25 123.35 40.23 119.87 40.37 117.94H40.38Z" fill="#DCDDDD"/>
<path d="M35.47 135.61C36.99 137.74 38.73 133.01 36 131.57C33.02 130 34.46 134.18 35.47 135.61Z" fill="#DCDDDD"/>
<path d="M24.46 145.52C20.9 147.32 28.67 150.03 29.52 149.45C32.41 147.49 25.33 145.07 24.46 145.52Z" fill="#DCDDDD"/>
<path d="M37.5699 145.24C39.1999 143.2 44.39 144.62 41.28 148.29C38.36 151.74 34.9499 148.51 37.5699 145.24Z" fill="#DCDDDD"/>
<path d="M10.4 148.22C8.19001 145.17 6.12997 146.63 7.47997 149.93C9.18997 154.14 10.75 151.4 12.85 151.3C13.17 151.28 17.21 154.92 15.63 150.94C14.94 149.2 11.19 149.3 10.41 148.22H10.4Z" fill="#DCDDDD"/>
<path d="M9.04998 154.85C10.23 156.03 10.1 158.59 7.80999 157.2C5.81999 155.99 7.15998 152.96 9.04998 154.85Z" fill="#DCDDDD"/>
<path d="M45.5501 104.88C46.1601 106.07 45.8601 110.57 44.6601 111.39C43.3301 112.31 38.89 110.98 37.2 110.85C35.51 110.73 32.96 111.34 32.09 109.25C30.93 106.47 33.45 107.73 33.85 106.02C34.7 102.43 33.3 102.3 31.23 99.71C28.13 95.84 28.46 88.95 34.15 87.34C37.6 86.36 41.78 88.6 43.64 91.84C45.93 95.84 43.4101 100.64 45.5501 104.86V104.88Z" fill="#DCDDDD"/>
<path d="M24.3 156.84C23.17 154.5 18.63 155.04 20.63 157.51C21.29 158.33 25.33 158.99 24.3 156.84Z" fill="#DCDDDD"/>
<path d="M5.11998 164.49C4.93998 162.51 7.38001 162.24 8.33001 163.5C9.25001 164.73 5.32998 166.84 5.11998 164.49Z" fill="#DCDDDD"/>
<path d="M158.73 116.33C158.66 116.7 158.55 117.01 158.4 117.27C158.4 117.27 158.4 117.29 158.38 117.29C157.67 118.47 156.16 118.65 155.1 119.31C155.08 119.33 155.06 119.33 155.04 119.35C154.47 119.72 154.04 120.23 153.94 121.14C153.94 121.19 153.92 121.23 153.92 121.28C153.88 121.7 153.92 122.2 154.04 122.8C154.61 125.66 156.59 127.27 156.22 129.97C156.18 130.3 156.11 130.64 156 130.99C155.96 131.12 155.91 131.25 155.86 131.4C155.8 131.54 155.75 131.67 155.69 131.81C155.59 132.02 155.51 132.21 155.41 132.39C153.66 135.98 152.47 135.94 152.81 140.77C152.9 142.01 152.98 143.3 152.84 144.52C152.84 144.56 152.84 144.6 152.84 144.65C152.63 146.37 152.02 147.93 150.44 149C150.44 149.02 150.42 149.02 150.41 149.02C150.34 149.08 150.26 149.12 150.18 149.16C150.16 149.18 150.13 149.19 150.11 149.2C150.07 149.22 150.02 149.25 149.98 149.27C149.86 149.34 149.74 149.4 149.61 149.46C150.16 149.2 150.2 150.29 150.05 151.61C149.93 152.73 149.68 154.02 149.51 154.77C149.49 154.85 149.47 154.93 149.45 155C149.42 155.13 149.39 155.23 149.37 155.3C148.39 158.34 146.92 160.07 144.68 159.46C144.58 159.43 144.48 159.4 144.38 159.36C144.24 159.31 144.1 159.26 143.96 159.19C143.85 159.14 143.74 159.09 143.63 159.02C143.08 158.73 142.5 158.32 141.87 157.77C141.8 157.81 141.73 157.86 141.68 157.91C141.4 158.19 141.28 158.66 141.24 159.24C141.1 160.91 141.58 163.47 140.72 165.11C140.57 165.4 140.38 165.65 140.15 165.86C139.28 166.66 138.28 166.65 137.31 166.74C136.68 166.8 136.06 166.88 135.48 167.26C134.29 168.05 134.26 169.42 133.05 170C131.64 170.68 130.07 169.76 128.69 170.33C127.75 170.71 127.32 171.35 126.93 172.02C126.57 172.62 126.27 173.24 125.68 173.71C125.68 173.71 125.673 173.71 125.66 173.71C124.43 174.69 123.05 175.09 121.82 175.62C121.03 175.96 120.31 176.35 119.74 176.98C119.72 177 119.72 177.01 119.7 177.03C119.13 177.71 119.47 178.75 119.14 179.7C119.02 180.03 118.83 180.35 118.5 180.65C117.73 181.33 116.74 181.26 115.84 181.45C115.57 181.51 115.31 181.59 115.06 181.72C114.96 181.78 114.86 181.83 114.77 181.9C113.65 182.64 112.98 183.89 112.09 184.4C110.45 185.34 111.37 185.83 111 185.62C110.83 185.53 110.41 185.31 109.4 184.92C109.34 184.9 109.27 184.87 109.2 184.84C108.1 184.4 107.06 183.78 106.06 183.12C104.66 182.2 103.34 181.18 101.96 180.41C99.87 179.23 97.68 178.64 95.03 179.82C95.01 179.82 94.98 179.84 94.96 179.85C94.88 179.88 94.81 179.92 94.73 179.95C94.5 180.05 94.27 180.15 94.04 180.24C93.98 180.27 93.93 180.3 93.87 180.31C93.05 180.64 92.2401 180.91 91.4301 181.14C88.9801 181.83 86.52 182.17 83.87 182.65C84.77 181.28 85.03 179.28 84.35 177.77C82.07 178.56 83.36 182.31 80.13 183.04C77.81 183.57 74.54 181.15 73.15 179.47C72.47 178.64 72.2 176.83 71.39 176.19C70.87 175.78 69.49 175.82 69.22 175.59C67.24 173.77 67.44 174.86 70.24 173.02C69.5 170.87 66.84 172.77 65.6 172.01C62.38 170.05 65.49 170.41 65.85 167.89C66.04 166.57 65.1 164.4 65.48 163.29C66.18 161.3 68.36 161.29 68.95 159.72C69.96 157.04 67.49 156.08 65.34 156.51C63.48 156.88 62.5801 159.58 61.6801 160.77C56.2201 168.05 60.24 158.28 59.53 157.66C58.81 157.64 58.16 157.87 57.58 158.34C56.62 158.01 56.2001 157.32 56.3101 156.26C54.7101 154.12 56.1799 151.22 52.6899 150.79C51.2899 150.62 47.38 156.1 45.98 152.13C45.98 152.05 47.13 147.73 47.23 147.51C48.44 144.53 47.44 143.75 51.11 144.28C50.64 144.28 54.05 146.08 54.05 145.87C54.76 146.79 54.38 149.48 55.54 149.69C57.93 146.95 54.37 144.75 58.65 143.82C59.17 143.71 65.96 146.68 66.17 143.2C66.34 140.25 58.58 141.78 58.11 139.04C57.77 137.06 62.31 135.73 61.03 134.33C60.78 134.4 60.51 134.47 60.23 134.54C59.79 134.64 58.06 134.2 57.35 134.19C56.37 134.19 56.41 135.92 55.14 135.76C50.96 135.22 54.48 132.21 53.77 130.1C52.93 127.6 50.7499 127.62 50.3199 124.37C50.0799 122.63 49.93 119.9 50.29 118.13C50.52 116.97 50.5801 116.33 50.6801 115.91C50.6301 115.93 50.58 115.94 50.54 115.96C49.8 111.01 46.43 107.35 46.13 102.2C46.03 100.44 45.6 95.44 47.09 94.14C48.06 93.29 50.59 94.5101 51.7 94.3101C56.69 93.3801 56.31 91.2801 57.25 98.1801C57.9 102.95 59.35 106.96 65.13 107.73C63.98 105.37 61.97 105.15 60.49 103.5C58.35 101.11 58.8199 102.41 58.6899 98.47C58.5799 95.12 57.99 90.24 58.88 87C59.14 86.04 60.87 86.05 60.95 85.33C61 84.81 59.2001 82.35 59.0601 81.78C58.6901 80.26 58.85 77.6799 59.08 76.1899C59.64 72.5899 58.67 73.78 61.62 72.48C65.77 70.65 69.3601 70.82 72.4301 66.89C74.8901 63.74 74.95 59.6401 77.63 56.6801C78.75 55.4401 82.58 53.77 83.28 52.37C83.91 51.13 82.6799 49.15 83.0699 47.91C83.8099 45.51 86.3899 44 88.3199 42.37C88.4399 42.49 88.55 42.61 88.65 42.74C90.43 44.84 90.72 47.67 92.55 49.65C93 50.14 93.5299 50.83 94.0699 51.54C95.0199 52.77 96.05 54.11 96.95 54.79C99.12 56.43 100.17 56.47 100.68 55.74C101.35 54.77 101.09 52.51 101.17 50.7V50.6801C101.2 49.8901 101.3 49.2 101.57 48.76C101.6 48.7 101.65 48.64 101.7 48.59C101.78 48.59 101.86 48.61 101.94 48.64C101.98 48.64 102.03 48.6601 102.07 48.6801C102.15 48.7001 102.23 48.74 102.31 48.78C102.38 48.81 102.45 48.85 102.52 48.9C102.6 48.96 102.67 49.0099 102.74 49.0699L102.91 49.24C102.99 49.32 103.06 49.41 103.12 49.5C103.16 49.55 103.19 49.6 103.22 49.65C103.28 49.74 103.34 49.8301 103.39 49.9301L103.41 49.95C103.51 50.11 103.59 50.2701 103.67 50.4301C103.77 50.6001 103.85 50.7601 103.95 50.9301C104.01 51.0701 104.09 51.1901 104.16 51.3101C104.22 51.4101 104.27 51.49 104.33 51.58C104.38 51.65 104.43 51.72 104.49 51.79C104.59 51.93 104.71 52.05 104.85 52.15C104.91 52.21 104.98 52.25 105.06 52.29C105.1 52.32 105.15 52.35 105.19 52.37C105.28 52.42 105.37 52.45 105.47 52.48C105.92 52.62 106.34 52.58 106.73 52.42C106.79 52.4 106.85 52.37 106.9 52.35C107.07 52.27 107.23 52.1801 107.39 52.0601C107.47 52.0001 107.55 51.95 107.63 51.89C107.92 51.68 108.21 51.41 108.5 51.14C108.6 51.04 108.71 50.94 108.81 50.85C109.06 50.6 109.31 50.37 109.56 50.16C109.63 50.1 109.71 50.03 109.79 49.98C110.08 49.76 110.38 49.58 110.69 49.5C110.76 49.48 110.83 49.46 110.9 49.45C110.99 49.43 111.07 49.4301 111.15 49.4301C111.4 49.4301 111.65 49.49 111.92 49.62C111.87 49.76 111.82 49.92 111.76 50.09C111.16 51.9 110.31 53.7401 111.19 55.4301C111.45 55.9401 113.43 57.27 114.61 57.8C114.69 57.84 114.76 57.86 114.82 57.89C114.89 57.91 114.96 57.94 115.02 57.96C115.02 57.96 115.04 57.96 115.05 57.96C115.09 57.96 115.12 57.98 115.15 57.98C115.21 58 115.26 58 115.31 58H115.35C115.65 57.98 115.99 57.79 116.33 57.52C117.37 56.76 118.48 55.3099 119.33 55.4399C119.35 55.4399 119.36 55.4399 119.39 55.4399C119.41 55.4399 119.42 55.46 119.45 55.46C119.49 55.46 119.53 55.48 119.57 55.52C119.63 55.55 119.67 55.59 119.73 55.64C119.75 55.66 119.76 55.67 119.79 55.7C119.81 55.72 119.83 55.75 119.85 55.77C119.89 55.82 119.93 55.8799 119.97 55.9399C120 55.9899 120.03 56.04 120.05 56.1C120.08 56.16 120.11 56.2301 120.14 56.3101C120.16 56.3401 120.17 56.38 120.18 56.42C120.2 56.45 120.21 56.5 120.22 56.54C120.24 56.6 120.26 56.66 120.28 56.72C120.33 56.89 120.37 57.07 120.41 57.27C120.43 57.37 120.45 57.48 120.47 57.59C120.49 57.68 120.5 57.76 120.51 57.85C120.53 57.94 120.54 58.03 120.55 58.13C120.84 57.84 121.11 57.6 121.38 57.39C122.92 56.11 123.84 56.15 124.4 56.87C124.42 56.89 124.43 56.9 124.44 56.92C125.1 57.8 125.26 59.62 125.35 61.35C125.54 64.94 126.01 65.96 128.2 66.87C128.7 67.09 129.3 67.31 130.03 67.54C131.48 68.02 132.36 67.26 133.29 67.6C133.32 67.6 133.36 67.63 133.39 67.65C133.76 67.81 134.12 68.15 134.54 68.8C134.99 69.52 134.13 70.59 134.21 71.46C134.21 71.67 134.29 71.86 134.44 72.03C135.65 73.44 138.2 73.7901 139.53 75.1801C140.2 75.8901 140.56 76.85 140.29 78.33C140.14 79.18 139.73 79.84 139.18 80.39C139.06 80.51 138.94 80.62 138.81 80.72C138.75 80.77 138.7 80.82 138.64 80.86C138.54 80.93 138.45 80.9999 138.35 81.0699C138.2 81.1699 138.04 81.27 137.87 81.36C137.71 81.46 137.54 81.55 137.36 81.65C135.93 82.4 134.29 82.95 133.18 83.77C133.14 83.79 133.1 83.83 133.07 83.86C132.97 83.93 132.89 84 132.81 84.09C132.46 84.4 132.18 84.7699 132.03 85.1899C131.32 87.1299 133.36 89.02 133.25 90.91C133.21 91.64 132.81 92.24 132.46 92.83C132.23 93.22 132.02 93.61 131.94 94.04C131.94 94.07 131.92 94.1 131.92 94.14C131.69 94.89 130.61 95.9 130.54 96.79C130.54 96.81 130.54 96.83 130.54 96.85C130.54 96.98 130.56 97.1 130.6 97.22C131.2 98.84 132.05 97.93 132.89 97.77H132.91C133.27 97.7 133.63 97.77 133.97 98.25C135.46 100.35 133.7 102.01 133.17 104.15C132.48 106.95 132.01 107.54 134.38 107.41C134.55 107.41 134.75 107.39 134.94 107.37C134.98 107.37 135.01 107.37 135.05 107.37C136.16 107.27 137.05 107.04 137.85 106.85C139.37 106.5 140.6 106.32 142.5 107.54C142.52 107.56 142.56 107.57 142.58 107.59C142.64 107.63 142.7 107.67 142.76 107.72C142.93 107.85 143.12 107.97 143.31 108.13C145.88 110.12 146.67 111.59 149.5 112.32C149.83 112.41 150.18 112.49 150.55 112.56C150.76 112.6 150.99 112.62 151.26 112.65C151.39 112.65 151.55 112.67 151.7 112.67C151.88 112.67 152.07 112.69 152.28 112.69C155.11 112.83 159.28 112.98 158.67 116.34L158.73 116.33Z" fill="#DCDDDD"/>
<path d="M154.05 160C156.56 161.08 164.62 159.41 166.56 157.33C168.81 154.93 167.65 146.5 173.14 148.85C174.94 149.62 175.33 152.4 176.74 153.54C179.8 156 179.55 154.09 182.1 152.89C182.61 151.99 183.34 151.31 184.3 150.83C185.51 150.65 186.43 151.06 187.06 152.07C188.86 151.48 188.41 149.51 190.68 149.57C193.25 149.64 194.12 152.63 196.89 152.51C198.78 152.43 201.83 149.54 200.81 153.35C200.15 155.81 194.46 157.68 199.7 159.55C201.65 160.25 203.54 158.36 205.47 158.72C208.05 159.2 206.93 160.56 208.78 161.37C212.61 163.05 215.54 161.3 219.74 163.5C223.47 165.45 227.79 165.73 231.27 167.91C234.09 169.68 235.86 174.04 238.98 170.26C241.54 167.16 237.51 160.79 242.98 160.53C248.64 160.27 246.59 167.24 250.2 168.35C251.48 168.74 253.39 166.63 254.49 166.34C256.78 165.74 258.36 166.41 260.56 166.62C265.4 167.08 268.67 163.19 273.01 165.6C276.51 167.55 277.36 172.49 281.65 168C284.95 164.55 285.15 160.46 290.49 158.63C287.69 154.72 290.56 149.03 287.54 144.53C285.91 142.1 283.8 140.71 282.66 137.93C282.07 136.48 282.9 135.42 281.86 133.87C281.09 132.73 279.23 132.57 278.28 131.57C276.76 129.97 276.64 127.82 275.48 126.03C274.11 123.91 271.8 122.75 270.83 120.2C269.83 117.59 270.72 114.96 269.25 112.59C267.58 109.91 265.24 109.33 264.37 106.03C263.66 103.32 264.82 103.09 262.4 100.23C260.42 97.89 258.04 96.16 255.98 93.92C251.28 88.83 248.15 82.82 244.9 77.11C241.5 71.13 235.06 67.0899 232.11 60.6899C230.86 57.9699 230.08 56.8899 228.23 54.5699C225.83 51.5599 226.5 48.85 225.36 45.41C223.35 39.36 219.43 32.53 216.38 26.86C213.24 21 211.18 15.02 208.87 8.84997C208.05 6.66997 205.54 0.0299375 202.73 1.06994C199.75 2.16994 201.11 7.11994 200.94 9.19994C200.68 12.3299 199.9 16.15 198.57 19.04C195.64 25.41 189.47 28.48 183.7 31.53C181.59 32.64 180.1 33.75 177.79 34.27C173.41 35.26 169.05 33.04 164.72 33.5C161.9 33.8 160.08 35.19 157.15 34.65C154.08 34.08 152.26 33.1299 148.8 33.1899C145.32 33.2599 141.9 32.8399 138.41 32.6899C137.05 32.6299 135.76 32.31 134.42 32.66C133.14 32.99 132.04 34.53 130.86 34.71C127.73 35.18 124.73 32.32 121.33 32.21C117.63 32.1 114.49 33.27 110.79 32.98C107.26 32.71 105.38 34.62 102.05 34.97C97.61 35.44 96.0301 35.92 92.3101 39.01C91.5901 39.61 88.49 41.77 88.35 42.35C88.5 41.69 90.78 48.2 90.66 48.03C91.88 49.77 94.4 51.61 95.9 53.24C97.1 54.54 99.49 57.59 101.33 55.09C102.7 53.22 100.12 50.48 101.75 48.55C103.79 48.82 103.73 51.9199 105.52 52.4399C108.12 53.1999 109.61 48.3699 112 49.5699C111.57 50.9599 110.28 53.3999 110.79 54.9499C111.06 55.7499 114.69 58.03 115.43 57.97C117.21 57.81 119.87 52.17 120.59 58.1C123.65 55.1 125.24 56.4599 125.52 60.0699C125.9 65.0399 125.4 66.04 130.08 67.51C131.47 67.95 132.81 66.58 134.06 68.17C135 69.36 133.77 70.54 134.29 71.47C135.75 74.1 140.18 73.2 140.32 77.36C140.5 82.53 133.61 81.69 132.1 85.16C131.16 87.33 133.27 90.63 132.41 93.34C132.17 94.11 130.23 96.17 130.66 97.18C131.42 98.97 132.48 96.9601 133.54 98.0601C135.61 100.2 133.8 101.52 133.22 104.12C131.74 110.85 137.99 104.56 142.63 107.55C145.88 109.65 146.6 111.77 150.6 112.51C152.8 112.91 158.45 111.98 158.84 115.58C159.21 118.99 153.84 117.8 153.9 121.83C153.95 125.59 157.64 127.5 155.7 131.77C154.12 135.27 152.29 135.41 152.58 139.7C152.83 143.31 153.85 147.41 149.61 149.42C149.3 149.57 152.09 159.12 154.04 159.96L154.05 160Z" fill="#DCDDDD"/>
<path d="M164.85 284.7C164.85 284.7 164.85 284.8 164.85 284.84C164.85 284.88 164.83 284.94 164.83 284.98C164.83 285.04 164.81 285.11 164.8 285.17C164.76 285.36 164.7 285.54 164.63 285.73C164.05 287.11 162.6 287.52 162.02 289.24C162.08 290.49 162.04 291.73 161.91 292.97C161.74 293.14 161.55 293.3 161.36 293.43H161.34C160.66 293.9 159.86 294.06 158.97 293.93C158.18 294.4 157.48 294.88 156.79 295.38C156.13 295.85 155.47 296.34 154.61 297C154.18 297.3 153.78 297.6 153.39 297.88C152.14 298.76 150.79 299.64 149.63 300.51C148.73 301.18 145.64 302.53 145.06 303.2C144.77 303.54 144.59 303.92 144.5 304.31C144.5 304.31 144.5 304.33 144.5 304.34C144.22 305.54 144.7 306.9 144.47 308.15C144.26 309.22 143.75 310.38 143.16 311.53C143.16 311.55 143.14 311.55 143.14 311.57C142.5 312.83 141.79 314.1 141.36 315.25C141.15 315.83 140.9 316.43 140.65 317.04C140.63 317.08 140.61 317.13 140.59 317.18C140.07 318.44 139.54 319.75 139.16 321.04C139.1 321.19 139.06 321.34 139.03 321.49C139.01 321.59 138.98 321.69 138.96 321.79C138.9 321.99 138.86 322.19 138.82 322.39C138.79 322.54 138.76 322.7 138.74 322.84C138.31 325.33 138.7 326.25 139.49 327.41C139.97 328.12 140.61 328.94 141.28 330.29C141.49 330.72 141.63 331.15 141.71 331.56C142.06 333.49 141.19 335.23 141.73 336.91V336.93C141.94 337.47 143.79 338.96 143.88 338.96C143.88 339.04 143.9 339.12 143.91 339.2C144.32 342.64 142.21 341.13 141.19 343.71C141.14 343.83 141.1 343.95 141.07 344.07C141.04 344.19 141.01 344.3 140.99 344.42C140.69 345.94 141.26 347.45 141.22 348.98V349.01C141.2 349.65 141.08 350.29 140.74 350.93C140.24 351.87 136.94 354.48 135.67 353.96C135.67 353.96 135.61 353.93 135.58 353.9C135.14 353.47 134.41 351.21 134.08 350.74C132.95 349.14 131.36 347.77 129.49 347.17C129.47 347.17 129.45 347.15 129.43 347.15C129.32 347.11 129.2 347.08 129.09 347.05C128.34 346.85 127.56 346.78 126.76 346.86C126.74 346.86 126.72 346.86 126.7 346.86C126.68 346.86 126.64 346.86 126.62 346.86C123.39 347.27 123.09 350.46 120.66 351.2C119.8 351.46 119.22 351.05 118.62 350.74C118.22 350.54 117.83 350.38 117.31 350.49C116.47 350.66 115.85 351.72 115.21 351.99C115.15 352.01 115.09 352.03 115.04 352.05C114.1 352.22 113.08 352.3 112.01 352.34C110.42 352.39 108.75 352.31 107.14 352.19H107.12C106.46 352.13 105.83 352.08 105.21 352.02C104.78 351.98 104.29 352.3 103.76 352.43C103.57 352.49 103.37 352.52 103.16 352.49C102.73 352.45 102.61 351.74 102.29 351.24C102.12 350.97 101.89 350.76 101.54 350.71C99.98 350.5 98.55 351.44 97 352C97 352 96.9933 352 96.98 352C95.88 352.39 94.73 352.58 93.45 352C93.43 352 93.39 351.98 93.37 351.97C92.55 351.58 92.04 351.29 91.74 351.04C91.42 350.79 91.34 350.59 91.37 350.39C91.45 349.91 92.26 349.46 92.13 348.3C92.13 348.26 92.13 348.22 92.13 348.18C92.13 347.54 92.54 347 92.64 346.37C92.7 346 92.66 345.61 92.36 345.15C91.99 344.56 91.16 344.51 90.41 344.37C89.9 344.26 89.43 344.11 89.16 343.7C88.82 343.18 88.8 342.6 88.91 341.98C89.08 341.04 89.51 340.05 89.55 339.14C89.55 339.14 89.55 339.14 89.55 339.12C89.59 338.37 89.34 337.67 88.45 337.12C82.91 333.67 84.73 347.22 78.02 339.3C76.8 337.86 75.5 336.77 74.21 336.08C74.21 336.08 74.2099 336.08 74.1899 336.08C70.6799 334.22 67.1001 335.28 64.6801 340.23C63.5601 342.53 63.08 345.02 61.15 346.96C61.28 347.99 61.13 348.55 60.7 348.63C60.51 348.67 60.2499 348.61 59.9399 348.45C59.6899 348.31 59.4299 348.25 59.1899 348.26C59.1899 348.26 59.1834 348.26 59.17 348.26C58.92 348.26 58.65 348.36 58.41 348.54C57.55 349.2 56.81 349.73 56.17 350.52C56.11 350.59 56.04 350.66 55.99 350.74C55.84 350.92 55.6999 351.12 55.5699 351.34C55.5399 351.27 55.5 351.2 55.47 351.13C55.42 351.03 55.37 350.94 55.33 350.85C55.25 350.7 55.18 350.56 55.1 350.42C54.49 349.36 53.97 348.9 53.5 348.85C52.66 348.75 51.97 349.94 51.15 351.15C50.09 352.69 48.84 354.23 46.79 353.22C46.79 353.22 46.79 353.22 46.77 353.22C46.54 353.1 46.3 352.95 46.05 352.77C42.89 350.43 43.22 345.31 41.21 342.1C41.14 342 41.08 341.9 41 341.8C40.12 340.55 38.82 339.65 36.72 339.38C38.4 335.19 40.16 330.84 44.66 328.99C47.74 327.73 52.8 328.03 54.87 324.95C55.69 323.73 57.34 324.87 55 323.1C53.46 321.94 48.68 322.99 47.08 323.22C44.03 323.66 37.2199 323.38 39.0699 318.28C39.4199 317.3 43.5 315.71 44.5 314.88C46.3 313.38 47.53 311.91 49.47 310.64C51.34 309.4 52.36 309.37 53.38 307.22C55.02 303.75 53.1 302.44 57.86 301.77C60.1 301.45 66.16 304.07 67.03 303.4C69.42 301.57 61.6399 299.09 61.0699 298.1C58.0999 293.02 64.2101 295.67 66.5601 294.8C67.4301 294.48 71.38 290.02 70.52 289.36C68.85 288.09 67.03 291.39 65.64 291.69C64 292.05 63.1099 291.25 61.5699 291.2C59.3099 291.12 54.87 293.66 53.15 291.8C51.71 290.25 53.44 287.96 52.01 286.49C51.06 285.53 48.9999 286.33 47.6899 285.54C43.3899 282.93 48.9 282.96 51.17 282.7C55.38 282.23 60.65 282.2 64.47 280.28C64.47 280.22 67.75 277.88 67.96 277.74C67.66 278.01 71.77 277.57 69.84 276.51C74.56 273.72 74.81 268.01 78.78 265.1C80.63 263.75 82.16 263.88 84.28 264.07C86.21 264.24 89.94 264.18 91.8 264.6C91.88 264.62 91.96 264.63 92.04 264.66C93.33 265.01 94.14 265.75 94.88 266.6C96.22 268.13 97.26 270.02 100.25 270.58C101.47 270.8 102.96 270.84 104.4 270.74H104.42C105.62 270.65 106.79 270.47 107.78 270.22C108.02 270.16 108.34 270.01 108.7 269.82C110.23 269.01 112.6 267.35 113.44 267.55C114.28 267.76 114.6 268.17 114.71 268.69C114.92 269.65 114.49 270.99 115.35 272.11C116.53 273.65 118.56 274.83 120.2 276.23C120.61 276.56 120.99 276.91 121.32 277.29C123.83 280.04 126.3 281.28 129.46 281.33H129.48C130.65 281.36 131.92 281.22 133.32 280.93C135.23 280.54 137.05 279.45 138.82 278.31C140.31 277.35 141.78 276.35 143.23 275.7C143.29 275.67 143.36 275.64 143.42 275.61C143.73 275.47 144.05 275.36 144.37 275.26C144.89 275.09 145.43 274.99 145.95 274.97C146.1 274.97 146.26 274.97 146.42 274.97C146.54 275.4 146.63 275.84 146.71 276.28C146.73 276.43 146.75 276.58 146.77 276.73C147.6 277.46 148.53 277.56 149.55 277.02C149.55 277.02 149.57 277.02 149.58 277.02C149.95 277.19 153.5 279.03 153.5 279.05C154.87 279.12 155.86 278.75 156.72 278.38C157.47 278.06 158.13 277.75 158.88 277.74H158.9C159.61 277.74 160.41 278.02 161.44 278.81C161.52 278.87 161.6 278.95 161.69 279.02C161.83 279.13 161.98 279.26 162.13 279.4C162.16 279.42 162.19 279.46 162.22 279.48C163.46 280.62 164.81 282.17 164.96 283.94C164.98 284.23 164.99 284.5 164.96 284.73L164.85 284.7Z" fill="#DCDDDD"/>
<path d="M230.66 167.45C230.66 167.45 230.61 167.5 230.59 167.52C230.22 167.91 229.8 168.18 229.38 168.39C229.38 168.39 229.38 168.39 229.36 168.39C228.56 168.77 227.68 168.91 226.86 169.13C226.82 169.13 226.77 169.15 226.73 169.17C226.14 169.33 225.56 169.54 225.05 169.93C223.54 171.05 223.64 171.54 223.1 172.69C223.1 172.69 223.1 172.71 223.08 172.72C222.96 172.98 222.81 173.28 222.6 173.62C220.53 177.04 218.61 177.58 215.21 179.73C209.75 183.19 211.74 184.21 211.49 189.8C211.47 190.07 211.44 190.34 211.39 190.6C211.06 192.09 210.06 193.52 208.72 194.55C208.68 194.57 208.64 194.59 208.6 194.61C207.13 195.7 205.26 196.32 203.46 196.09C203.44 196.09 203.43 196.09 203.4 196.09C203.23 196.07 203.07 196.04 202.91 196.01C200.33 195.45 199.93 192.57 198.15 191.05C198.1 191.01 198.06 190.97 198.01 190.93C197.36 190.43 196.53 190.1 195.37 190.12C194.97 190.12 194.58 190.18 194.19 190.27C194.16 190.27 194.14 190.27 194.12 190.29C191.45 190.96 188.89 193.39 186.04 193.9H185.98C185.98 193.9 185.94 193.92 185.9 193.93C184.68 194.12 183.18 194.05 181.72 194.19H181.7C180.02 194.34 178.42 194.76 177.38 196.16C176.87 196.84 176.68 197.57 176.71 198.31C176.71 198.93 176.88 199.55 177.1 200.15C177.1 200.17 177.1 200.17 177.12 200.18C177.99 202.44 179.84 204.51 179.26 205.38C179.26 205.38 179.17 205.36 179 205.36C178.86 205.36 178.7 205.34 178.49 205.32C178.27 205.3 177.99 205.28 177.66 205.26C177.52 205.24 177.37 205.23 177.21 205.22C177.05 205.2 176.87 205.19 176.67 205.17C176.43 205.15 176.18 205.13 175.92 205.11C175.63 205.08 175.35 205.05 175.05 205.02C174.31 204.94 173.53 204.84 172.81 204.73C172.57 204.69 172.33 204.65 172.11 204.61C171.44 204.49 170.86 204.36 170.43 204.19C170.3 204.14 170.17 204.09 170.06 204.03C170.03 204.01 170 203.99 169.97 203.97C169.89 203.92 169.83 203.87 169.79 203.81C169.76 203.77 169.74 203.74 169.73 203.7C169.73 203.94 169.71 204.15 169.67 204.36C169.38 206.39 168.04 206.61 166.65 206.92C166.63 206.92 166.6 206.92 166.58 206.92C165.91 207.07 165.25 207.25 164.67 207.65C162.47 209.18 163.72 209.72 162.41 212.03C162.31 212.21 162.18 212.38 162.03 212.54C162.03 212.54 162.03 212.54 162.03 212.56C161.26 213.36 160.01 213.85 158.86 214.32C158.84 214.32 158.83 214.32 158.82 214.32C156.97 215.07 155.38 215.76 156.6 217.58C156.64 217.64 156.7 217.7 156.74 217.76C156.87 217.93 157.03 218.13 157.22 218.32C158.32 219.5 159.78 220.28 161.08 221.13C161.08 221.13 161.08 221.13 161.1 221.13C162.04 221.73 162.89 222.38 163.51 223.23C163.51 223.23 163.53 223.25 163.53 223.27C164.03 223.97 164.36 224.81 164.43 225.89C164.45 226.03 164.45 226.18 164.45 226.33C164.45 226.54 164.45 226.74 164.43 226.95C164.26 230.05 163.01 233.38 162.73 236.49C162.71 236.69 162.7 236.88 162.68 237.07C162.68 237.09 162.68 237.11 162.68 237.13C162.66 237.43 162.63 237.74 162.61 238.04C162.61 238.08 162.61 238.12 162.61 238.17C162.44 240.42 162.3 242.45 161.63 244.63C161.57 244.86 161.49 245.08 161.41 245.31C159.63 250.36 160.37 250.41 162.24 250.15H162.26C163.53 249.98 165.33 249.66 167.21 250.65C167.3 250.69 167.39 250.75 167.49 250.8C167.88 251.04 168.18 251.51 168.5 251.98C168.82 252.44 169.14 252.89 169.6 253.04C169.73 253.09 169.86 253.12 169.98 253.14C170.95 253.31 171.46 252.71 172.32 252.86C172.48 252.89 172.62 252.89 172.75 252.88C173.39 252.85 173.77 252.47 174.39 252.55C174.66 252.58 174.98 252.7 175.37 252.97C175.75 253.22 176.12 253.93 176.4 254.69C176.56 255.1 176.7 255.54 176.81 255.92C176.84 256.05 176.87 256.17 176.91 256.28C176.94 256.42 176.97 256.54 177 256.66C177.05 256.87 177.12 257.04 177.21 257.18C177.69 258.11 178.64 258.09 177.21 259.21C177.13 259.27 177.04 259.34 176.95 259.41C176.37 259.83 175.12 259.41 174.42 259.38H174.4C174.22 259.38 174.07 259.4 173.99 259.46C171.92 260.97 173.26 260.99 172.93 263.55C172.57 266.29 171.64 269.43 170.06 271.84C168.96 273.55 167.53 274.89 165.76 275.48C165.15 275.69 164.51 276.28 163.91 276.97H163.89C163.15 277.83 162.49 278.83 162.07 279.42C161.88 279.25 161.7 279.09 161.54 278.94C161.45 278.87 161.37 278.8 161.29 278.73C160.02 277.66 159.46 277.49 158.75 277.66H158.73C158.21 277.78 157.6 278.07 156.57 278.3C156.42 278.33 156.26 278.36 156.09 278.4C153.26 278.89 154.53 278.44 152.04 277.64C151.21 277.37 150.3 277.15 149.43 276.95C149.43 276.95 149.41 276.95 149.4 276.95C148.37 276.71 147.37 276.49 146.56 276.21C146.56 276.21 146.14 275.3 145.81 274.9C145.75 274.83 145.69 274.77 145.64 274.75C145.12 274.46 144.63 274.84 144.23 275.19C143.9 275.47 143.63 275.73 143.42 275.63C143.38 275.61 143.33 275.58 143.29 275.54C142.73 275.13 141.84 273.75 140.96 272.11C139.54 269.46 138.12 266.07 138.06 264.75C137.91 261.57 138.85 260.87 137.37 258.81C137.22 258.6 137.04 258.37 136.82 258.11C136.32 257.51 135.33 257.27 134.74 256.58C134.6 256.42 134.49 256.25 134.4 256.08C134.04 255.44 133.92 254.74 133.56 254.12C133.48 253.98 133.38 253.84 133.26 253.71C133.21 253.65 133.15 253.58 133.08 253.52L133.06 253.5C133 253.44 132.93 253.39 132.88 253.35C131.17 251.9 129.89 252.56 129.31 250.8C129.23 250.55 129.16 250.25 129.1 249.89C128.84 248.17 130.48 244.47 131.09 243.04C131.3 242.56 131.57 242.06 131.85 241.54C131.85 241.54 131.85 241.52 131.87 241.51C132.66 240.09 133.56 238.57 133.48 237.02C133.46 236.63 133.38 236.23 133.22 235.84C131.63 231.97 131.75 236.41 130.73 236.82C130.52 236.91 130.32 236.98 130.15 237.03C128.42 237.59 128.16 236.83 126.99 235.2C126.95 235.14 126.91 235.08 126.86 235.02C126.51 234.54 126.38 233.81 126.16 233.15C125.98 232.59 125.73 232.08 125.22 231.79C124.09 231.13 123.64 231.31 123.27 231.58C122.91 231.85 122.63 232.22 121.89 232C121.87 232 121.84 231.98 121.82 231.98C119.72 231.38 120.77 231.69 119.51 229.57C119.43 229.44 119.32 229.26 119.18 229.04C119.1 228.9 119.01 228.75 118.93 228.6C118.91 228.58 118.9 228.56 118.89 228.54C118.4 227.7 117.82 226.58 117.67 225.6C117.54 224.8 117.71 224.09 118.44 223.72C118.53 223.68 118.61 223.64 118.72 223.61C118.67 223.48 118.62 223.36 118.55 223.27C118.47 223.13 118.38 223.02 118.27 222.93C118.21 222.88 118.16 222.83 118.1 222.79C118.04 222.76 117.98 222.72 117.93 222.69C117.9 222.67 117.87 222.66 117.83 222.64C116.96 222.2 115.71 222.26 114.69 221.98C114.21 221.84 113.79 221.65 113.48 221.3C112.88 220.63 111.97 216.47 111.82 215.62C111.7 214.91 111.61 214.33 111.53 213.84C111.43 213.07 111.39 212.49 111.49 211.85C111.52 211.69 111.55 211.53 111.6 211.36C111.64 211.19 111.7 211.01 111.75 210.83C111.78 210.73 111.81 210.64 111.85 210.54C111.9 210.41 111.95 210.27 112 210.13C112.04 210.03 112.07 209.93 112.12 209.83C112.16 209.73 112.2 209.62 112.25 209.51C112.3 209.41 112.35 209.3 112.39 209.18C112.49 208.95 112.6 208.7 112.72 208.43C112.76 208.33 112.81 208.22 112.85 208.1C113.17 207.3 113.6 205.99 114.17 204.72C114.17 204.7 114.17 204.69 114.19 204.67C114.94 202.99 115.88 201.37 117 201.11C117.76 200.93 118.35 201.17 118.86 201.5C119.89 202.17 120.65 203.2 122.01 201.94C122.85 201.15 122.57 199.69 121.97 198.34C121.47 197.19 120.74 196.12 120.28 195.64C118.17 193.41 111.81 190.47 111.05 186.95C111 186.7 110.97 186.45 110.98 186.2C110.98 186.01 111 185.82 111.03 185.64C111.32 183.68 112.97 182.71 114.79 181.92C115.14 181.76 115.5 181.62 115.86 181.47C117.1 180.96 118.32 180.47 119.16 179.73C119.38 179.54 119.57 179.33 119.74 179.11C119.63 178.42 119.61 177.74 119.72 177.05C119.75 176.81 119.8 176.57 119.86 176.34C120.42 175.78 121.09 175.55 121.85 175.64C121.95 175.64 122.05 175.66 122.15 175.69C123.13 175.83 124.01 175.57 124.76 174.92C125.09 174.54 125.4 174.14 125.69 173.73C125.69 173.73 125.697 173.73 125.71 173.73C126.01 173.29 126.29 172.82 126.54 172.35C126.69 172.23 126.83 172.13 126.97 172.04C129.14 170.51 129.77 171.33 132.39 170.38C133.78 169.89 135.77 167.82 137.07 166.93C137.17 166.87 137.25 166.81 137.34 166.76C138.69 165.94 139.87 165.95 140.76 165.13C141.21 164.71 141.59 164.07 141.86 163.01C142.09 162.13 141.34 160.52 141.27 159.26C141.24 158.71 141.34 158.24 141.71 157.93C141.77 157.87 141.83 157.83 141.9 157.79C142.53 158.35 143.11 158.75 143.66 159.04C143.77 159.1 143.88 159.16 143.99 159.21C144.13 159.27 144.27 159.33 144.41 159.38C144.51 159.41 144.61 159.44 144.71 159.48C147.2 160.12 148.63 157.84 149.48 155.02C149.5 154.95 149.52 154.87 149.54 154.79C149.79 153.92 149.98 153.01 150.13 152.12C150.2 152.25 150.27 152.38 150.34 152.51C150.34 152.51 150.34 152.51 150.34 152.53C152.91 157.45 152.04 161.24 159.28 159.87C160.88 159.58 163.32 159.22 165.09 158.38C165.19 158.33 165.27 158.28 165.36 158.24C165.53 158.15 165.69 158.07 165.84 157.95C165.9 157.92 165.97 157.88 166.03 157.82C166.24 157.68 166.42 157.52 166.58 157.35C166.64 157.28 166.71 157.21 166.75 157.14C167.28 156.5 167.54 155.75 167.7 154.97V154.95C167.7 154.95 167.7 154.91 167.72 154.89C168.02 153.4 168 151.79 168.85 150.54C168.94 150.41 169.02 150.3 169.1 150.19C171.55 146.91 173.39 149.4 175.45 151.74C176.74 153.21 178.1 154.63 179.77 154.54C180.1 154.54 180.43 154.46 180.78 154.32C181.42 154.07 181.77 153.5 182.11 152.93C182.18 152.82 182.25 152.72 182.3 152.62C182.32 152.6 182.32 152.59 182.33 152.57C182.53 152.26 182.74 151.97 183.02 151.75C183.04 151.75 183.04 151.73 183.06 151.72C183.19 151.62 183.34 151.54 183.5 151.47C184.49 151.09 186.15 151.74 186.56 151.6C186.59 151.6 186.62 151.58 186.66 151.57C187.25 151.34 187.97 150.9 188.76 150.55C189.64 150.15 190.62 149.84 191.61 150.01C193.25 150.29 194.04 152.36 195.68 152.67C195.89 152.71 196.23 152.65 196.63 152.55H196.69C198.1 152.13 200.22 151.05 200.35 151.13C201.35 151.7 201.31 152.4 200.89 153.08C200.33 154 199.1 154.9 198.82 155.45C198.65 155.78 198.51 156.07 198.39 156.34C196.53 160.65 200.84 158.93 204.23 158.79H204.25C205 158.76 205.72 158.81 206.3 159.02C206.51 159.1 206.71 159.19 206.89 159.31C206.89 159.31 206.92 159.33 206.93 159.34C207.86 159.91 208.38 160.85 209.15 161.56C209.15 161.56 209.157 161.56 209.17 161.56C209.58 161.93 210.04 162.24 210.66 162.41C211.68 162.68 212.6 162.49 213.57 162.26H213.64C214.92 161.97 216.21 161.6 217.67 162.12C218.93 162.56 219.97 163.36 221.03 164.12C222.05 164.86 223.11 165.58 224.44 165.93C225.69 166.26 226.97 166.25 228.2 166.47C229.06 166.63 229.89 166.89 230.67 167.45H230.66Z" fill="#DCDDDD"/>
<path d="M119.17 229.05C119.09 228.91 119 228.77 118.92 228.61C118.9 228.59 118.89 228.57 118.88 228.55C118.9 228.51 118.92 228.48 118.94 228.44C119 228.54 119.08 228.76 119.17 229.05Z" fill="#DCDDDD"/>
<path d="M123.26 231.61C122.9 231.88 122.62 232.25 121.88 232.03C121.86 232.03 121.83 232.01 121.81 232.01C122.19 231.74 122.55 231.41 123.02 231.54C123.11 231.56 123.19 231.59 123.27 231.61H123.26Z" fill="#DCDDDD"/>
<path d="M126.97 235.23C126.93 235.17 126.89 235.11 126.84 235.05C126.49 234.57 126.36 233.84 126.14 233.18C126.19 233.23 126.22 233.28 126.26 233.32C126.59 233.75 126.76 234.5 126.97 235.23Z" fill="#DCDDDD"/>
<path d="M131.84 241.58C131.71 241.86 131.6 242.08 131.54 242.22C130.15 245.26 129.89 248.14 129.3 250.83C129.22 250.58 129.15 250.28 129.09 249.92C128.83 248.2 130.47 244.5 131.08 243.07C131.29 242.59 131.56 242.09 131.84 241.57V241.58Z" fill="#DCDDDD"/>
<path d="M133.47 237.06C133.45 236.67 133.37 236.27 133.21 235.88C131.62 232.01 131.74 236.45 130.72 236.86C130.51 236.95 130.31 237.02 130.14 237.07C131.14 236.24 130.9 234.14 131.97 234.24C133.46 234.38 133.71 235.6 133.47 237.06Z" fill="#DCDDDD"/>
<path d="M112.85 208.11C112.8 208.22 112.75 208.33 112.7 208.44C112.74 208.34 112.79 208.23 112.83 208.11H112.85Z" fill="#DCDDDD"/>
<path d="M114.67 221.98C114.19 221.84 113.77 221.65 113.46 221.3C112.86 220.63 111.95 216.47 111.8 215.62C111.68 214.91 111.59 214.33 111.51 213.84C111.71 214.8 112.15 215.88 112.77 217.53C113.63 219.81 112.77 220.26 114.66 221.98H114.67Z" fill="#DCDDDD"/>
<path d="M118.94 228.44C118.94 228.5 118.92 228.55 118.92 228.61C118.9 228.59 118.89 228.57 118.88 228.55C118.39 227.71 117.81 226.59 117.66 225.61C118.03 226.67 119.01 227.83 118.95 228.44H118.94Z" fill="#DCDDDD"/>
<path d="M196.62 423.91C199.83 423.13 194.48 419.07 192.88 420.26C189.84 422.51 194.93 424.32 196.62 423.91Z" fill="#DCDDDD"/>
<path d="M190.3 413.9C192.52 415.13 189.89 416.46 188.41 415.91C186.54 415.22 188.71 413.02 190.3 413.9Z" fill="#DCDDDD"/>
<path d="M188.96 398.45C191.84 397.55 190.58 403.19 187.96 401.32C186.62 400.36 187.79 398.81 188.96 398.45Z" fill="#DCDDDD"/>
<path d="M191.35 402.34C191.13 405.46 196.09 406.53 195.72 403.38C195.68 403.08 191.52 400.02 191.35 402.34Z" fill="#DCDDDD"/>
<path d="M175 394.65C176.2 390.8 170.25 394.6 169.81 397.26C169.5 399.14 170.22 401.46 172.31 402C172.78 402.12 177.29 401.83 177.37 401.81C179.04 401.47 179.39 402.83 180.2 400.63C180.7 399.27 178.52 399.82 178.26 399.19C177.96 398.45 178.99 396.62 178.05 396C175.78 394.53 176.21 397.52 174.75 397.97C173.14 398.47 175.06 394.43 174.99 394.65H175Z" fill="#DCDDDD"/>
<path d="M165.2 396.26C169.12 393.58 164.84 387.5 160.78 392.19C159.95 393.15 159.97 394.67 159.25 395.64C158.59 396.53 157.23 396.87 156.62 397.91C154.91 400.87 156.83 402.45 158.12 404.87C158.57 405.7 159.51 406.17 159.78 407.13C159.99 407.86 158.93 409.06 159.15 409.87C159.8 412.33 162.1 414.13 164.36 412C165.46 410.96 164.11 409.08 165.72 408.5C169 407.3 167.19 411.09 168.03 412.45C169.68 415.13 170.61 413.38 173.01 413.81C174.54 414.09 175.4 416.91 177.08 414.75C177.66 414 176.82 412.16 177.06 411.24C177.6 409.18 179.59 407.97 178.59 405.31C176.36 399.33 171.19 406.1 167.86 404.57C168.36 404.8 165.59 401.07 165.67 401.23C164.97 399.86 162.78 397.92 165.19 396.27L165.2 396.26Z" fill="#DCDDDD"/>
<path d="M203.8 401.29C207.37 402.46 201.99 404.04 202.4 403.31C202.54 403.06 201.16 400.42 203.8 401.29Z" fill="#DCDDDD"/>
<path d="M206.3 400.72C207.68 402.91 206.38 401.69 206.46 403.09C206.54 404.53 203.83 405.56 207.17 407.89C209.51 409.52 208.57 408.92 209.92 406.72C210.32 406.07 211.1 404.32 211.27 403.47C211.42 402.74 210.52 401.31 210.59 401.06C210.85 400.06 215.71 394.71 212.44 394.81C212.01 394.82 206.46 400.96 206.31 400.71L206.3 400.72Z" fill="#DCDDDD"/>
<path d="M215.95 404.62C215.44 403.44 213.21 406.88 213.45 406.3C213.07 407.25 212.73 407.23 212.7 408.54C212.71 407.67 215.13 412.13 214.24 411.51C215.79 412.58 214.59 412.75 216.02 412.07C214.78 412.66 217.05 407.74 217.05 409.05C217.05 407.69 216.69 406.33 215.95 404.61V404.62Z" fill="#DCDDDD"/>
<path d="M216.91 388.4C217.53 384.47 218.91 388.04 219.09 388.8C220.24 393.59 216.7 389.76 216.91 388.4Z" fill="#DCDDDD"/>
<path d="M244.32 384.59C244.47 383.11 240.97 375.05 246.15 377.91C247.42 378.61 246.62 381.6 246.27 382.56C246.59 381.7 244.03 387.41 244.32 384.59Z" fill="#DCDDDD"/>
<path d="M233.9 384.18C235.69 382.45 234.7 379.85 232.26 380.98C230.99 381.57 230.63 385.85 229.1 387.2C227.97 388.2 225.49 388.12 224.75 389.19C223.1 391.58 228.92 391.96 226.57 394.42C223.48 390.97 224.48 394.61 222.18 394.64C220.44 394.66 221.13 392.8 218.87 393.1C217.9 393.23 216.56 394.64 215.96 395.34C213.05 398.72 214.43 399.82 216.63 401.92C218.88 404.07 217.72 403.47 219.77 402.52C220.76 402.06 222.35 399.11 223.93 400.5C226.99 403.16 222.51 404.13 221.78 405.08C218.35 409.54 222.87 406.77 223.55 407.57C224.65 408.86 223.46 409.72 223.47 411.4C223.47 411.36 225.01 412.65 225.06 412.84C225.33 413.77 222.63 413.54 223.94 415.12C225.91 417.49 227.67 414.69 228.6 412.8C229.59 410.8 229.73 408.94 230.76 406.95C231.1 406.29 230.96 405.13 231.57 404.65C232.3 404.07 234.06 405.44 234.72 404.82C236.46 403.2 234.29 402.57 234.77 400.76C235.04 399.74 237.38 400.56 237.3 398.6C237.26 397.6 235.98 397.36 235.87 397.09C235.77 396.84 234.37 398.11 233.82 397.22C232.93 395.79 234.99 394.78 235.27 393.44C235.73 391.23 232.37 385.66 233.89 384.19L233.9 384.18Z" fill="#DCDDDD"/>
<path d="M297.73 331.27C297.47 332.64 298.01 335.57 295.8 335.73C292.79 335.92 295.87 331.75 293.62 331.43C292.83 331.32 290.69 341.18 290.77 342.41C291.11 347.59 291.05 345.59 288.46 348.14C287.16 349.43 286.57 351.81 284.24 351.5C280.84 351.06 282.14 355.95 281.79 358.27C281.15 362.55 280.19 364.82 277.06 367.32C275.88 368.27 274.52 368.61 273.27 369.74C272.58 370.37 271.28 372.14 271.1 372.27C269.39 373.66 270.34 374.22 267.37 373.94C266.22 373.83 265.72 371.63 264.45 372.65C262.31 374.38 268.37 376.18 265.9 378.15C264.68 379.12 263.95 376.05 263.29 376.14C260.98 376.47 262.45 377.13 261.1 378.28C259.68 379.5 259.02 381.27 256.73 379.67C255.67 378.93 255.94 375.44 254.88 375.21C253.35 374.86 252.93 377.32 252.03 377.07C251.25 376.86 251.05 375.24 250.98 375.21C251.1 375.24 249.78 374.1 249.49 374.03C249.92 374.12 248.52 375.84 248.05 375.9C247.4 375.98 246.56 375.53 245.76 374.81C245.9 375 246.01 375.16 246.1 375.29C244.25 375.39 242.9 374.57 241.43 374.5C240.72 374.48 239.14 374.81 238.41 374.75C236.69 374.6 235.83 374.98 234.34 373.84C233.01 372.82 233.7 370.63 232.23 369.74C230.83 368.89 229.01 370.5 227.44 369.85C225.65 369.12 227.44 366.57 224.6 366.82C220.36 367.19 226.32 372.19 226.78 373.12C228.54 376.68 226.68 378.51 223.47 378.66C219.87 378.83 221.81 378.72 221.18 376.45C221.02 375.9 222.41 376.11 221.66 374.84C220.79 373.38 219.88 373.62 218.67 373.43C218.76 373.43 216.22 374.47 215.81 374.46C214.21 374.44 212.74 372.23 211.2 374.36C217.78 378.17 214.33 377.82 209.87 377.94C206.56 378.03 202.99 382.52 207.2 381.97C209.37 381.68 214.2 375.95 215.47 381.76C216.69 387.36 209.46 383.48 208.62 385.67C208.83 386.33 210.8 386.43 211.13 387.21C211.39 387.82 210.3 390.96 210.18 391.66C209.5 395.39 206.89 399.68 201.87 397.92C196.34 395.97 204.32 393.54 202.04 389.75C199.5 385.51 199.75 393.88 196.46 393.23C194.43 392.83 195.42 390.41 192.34 390.83C189.08 391.27 191.47 392.63 189.92 394.09C185.85 397.93 181.96 392.88 179.37 391.6C177.14 390.5 176.33 391.75 175.72 388.88C175.43 387.54 176.54 385.04 176.74 383.69C176.87 382.82 178.42 377.08 176.49 377.33C175.32 377.47 175.69 380.63 174.04 381.15C174.09 380 171.71 379.13 171.51 380.24C171.3 381.38 177.55 383.7 172.42 386.34C168.08 388.56 169.08 383.38 167.62 382.86C165.41 382.07 165.66 387.38 164.26 388.61C163.13 389.6 157.93 390.48 156.41 390.38C152.35 390.13 152.37 388.97 152.8 386.05C153.51 384.08 153.94 381.24 153.32 379.78C152.53 377.93 150.79 377.6 149.45 376.34C147.77 374.78 147.72 373.44 146.47 371.66C145.52 370.31 144.32 369.57 143.08 368.86C142.78 368.6 142.44 368.34 142.08 368.07C138.07 365.12 137.74 362.91 136.63 358.14C136.5 357.25 136.32 356.37 136.09 355.5C135.99 355.35 135.9 355.21 135.84 355.08C135.76 354.75 135.67 354.41 135.58 354.08C135.58 354.02 135.6 353.98 135.62 353.93C136.89 354.45 140.19 351.84 140.69 350.9C141.03 350.26 141.16 349.61 141.17 348.98V348.95C141.19 348.88 141.2 348.81 141.21 348.74C141.45 347.16 140.67 345.91 140.94 344.4C140.96 344.28 140.99 344.17 141.02 344.05C141.05 343.93 141.09 343.81 141.14 343.69C141.66 342.32 144.64 342.71 144.44 340.27C144.39 339.74 144.17 339.41 143.86 339.18C143.86 339.1 143.84 339.02 143.83 338.94C143.74 338.94 141.88 337.45 141.68 336.91C141.73 335.96 142.24 334.96 142.19 334.05C142.13 333.09 141.93 332.27 141.66 331.54C141.58 331.12 141.45 330.69 141.23 330.26C140.55 328.92 139.92 328.1 139.44 327.38C138.81 326.14 138.4 324.77 138.69 322.81C138.71 322.67 138.74 322.51 138.77 322.36C138.81 322.16 138.85 321.96 138.91 321.76C138.93 321.66 138.96 321.55 138.98 321.46C139.01 321.31 139.05 321.16 139.11 321.01C139.49 319.72 140.02 318.41 140.54 317.15C140.56 317.1 140.58 317.05 140.6 317.01C141.42 315.17 142.34 313.36 143.09 311.54C143.09 311.52 143.11 311.52 143.11 311.5C143.7 310.35 144.21 309.19 144.42 308.12C144.65 306.87 144.17 305.51 144.45 304.31C144.45 304.29 144.45 304.29 144.45 304.28C145.28 302.73 146.21 303.56 147.44 302.5C149.56 300.69 151.27 299.35 153.33 297.85C153.72 297.57 154.12 297.27 154.55 296.97C155.34 296.41 156.04 295.87 156.73 295.35C157.42 294.85 158.11 294.37 158.91 293.9C159.8 294.03 160.59 293.87 161.28 293.4H161.3C161.83 293.2 162.17 292.76 162.05 291.61C162.53 291.74 162.96 291.92 163.34 292.13C163.52 292.29 163.72 292.46 163.95 292.65C164.47 293.06 164.9 293.31 165.3 293.44C165.76 293.72 166.26 293.96 166.86 294.11C167.69 293.58 168.62 293.3 169.6 293.27C169.7 293.31 169.8 293.36 169.89 293.41C170 293.47 170.1 293.54 170.2 293.6C170.7 293.97 171.03 294.47 171.2 295.13C171.38 295.27 171.55 295.4 171.69 295.54C172.28 296.64 172.87 297.77 174.43 298.31C174.8 298.44 175.22 298.48 175.65 298.45C175.82 298.47 176.01 298.48 176.21 298.5C177.6 298.59 179.71 297.36 181.28 297.45C181.44 297.49 181.6 297.55 181.74 297.63C183.37 298.6 181.77 299.71 182.61 300.78C182.69 301.84 183.22 302.3 184.22 302.18C185.28 303.71 187.2 304.94 188.18 307.47C188.97 309.52 188.37 314.94 189.1 316.17C189.86 317.46 191.74 317.69 193.46 317.69H193.49C194.59 317.83 195.73 317.72 196.87 317.63C199.19 317.66 200.78 317.87 203.12 318.72C203.55 318.87 203.9 319.01 204.19 319.13C204.96 319.55 205.37 319.81 205.95 319.78C206.42 319.81 206.95 319.56 208.62 319C210.76 318.29 212.94 317.15 215.17 316.81C217.7 316.74 220.01 317.69 221.83 320.05C222.5 321.58 222.96 323.39 224.03 323.97C224.05 323.97 224.07 323.99 224.09 323.99C225.15 324.43 229.3 323.44 231.54 323.43C234.12 324.14 237.09 326.21 239.36 325.73C239.54 325.69 239.71 325.63 239.86 325.56C241.05 325.08 243.47 323.66 244.51 323.05C245.22 323.03 245.94 323 246.5 322.73C246.52 322.73 246.54 322.71 246.56 322.7C246.79 322.6 247.01 322.47 247.22 322.29C247.24 322.27 247.25 322.27 247.27 322.26C249.28 320.79 249.08 318.86 252.42 318.61C252.47 318.61 252.52 318.61 252.57 318.61C254.06 318.83 255.54 319.51 257.01 319.79C257.38 319.86 257.74 319.9 258.09 319.93C258.97 320.16 259.83 320.3 260.62 320.21C260.72 320.21 260.8 320.19 260.89 320.17C262.22 318.8 263.55 318.71 264.68 317.99C265.22 317.66 265.7 317.19 266.13 316.36C267.08 314.53 265.77 312.98 267.91 311.13C268.08 310.98 268.27 310.84 268.47 310.71C268.56 310.65 268.64 310.6 268.73 310.55C270.68 309.52 273.26 309.49 275.34 309.64C276.35 309.72 277.44 309.75 278.45 310.03C278.52 310.05 278.59 310.08 278.66 310.1C279.93 310.6 280.71 311.41 281.31 312.29C281.63 312.94 281.86 313.62 282.52 314.28C283.17 315.34 283.94 316.23 285.44 316.52C287.28 316.88 289.33 315.23 291.19 315.02C291.25 315.02 291.32 315 291.4 315C291.47 315 291.54 315 291.61 315C293.11 314.95 294.45 315.25 296.07 315.34C296.09 315.34 296.12 315.34 296.14 315.34C297.08 315.53 298.01 315.8 298.94 316.1C298.08 318.1 298.26 319.36 299.81 320.79C300.85 321.76 298.01 329.51 297.68 331.22L297.73 331.27Z" fill="#DCDDDD"/>
<path d="M135.88 355.11C135.66 354.71 135.57 354.38 135.62 354.11C135.72 354.44 135.8 354.78 135.88 355.11Z" fill="#DCDDDD"/>
<path d="M140.56 317.19C140.04 318.45 139.51 319.76 139.13 321.05C139.49 319.73 140 318.45 140.56 317.19Z" fill="#DCDDDD"/>
<path d="M141.21 349.01C141.19 349.65 141.07 350.29 140.73 350.93C140.23 351.87 136.93 354.48 135.66 353.96C135.83 353.48 136.5 353.27 137.68 353.32C139.37 351.6 140.71 351.89 141.22 349.02L141.21 349.01Z" fill="#DCDDDD"/>
<path d="M141.69 331.56C141.09 329.96 140.15 328.76 139.47 327.41C139.95 328.12 140.59 328.94 141.26 330.29C141.47 330.72 141.61 331.15 141.69 331.56Z" fill="#DCDDDD"/>
<path d="M143.9 339.2C143.22 338.67 142.12 338.62 141.82 337.77C141.72 337.5 141.7 337.22 141.72 336.94C141.93 337.48 143.78 338.97 143.87 338.97C143.87 339.05 143.89 339.13 143.9 339.21V339.2Z" fill="#DCDDDD"/>
<path d="M144.44 308.16C144.23 309.23 143.72 310.39 143.13 311.54C143.42 310.81 143.7 310.06 143.92 309.32C144.35 307.91 143.83 305.71 144.35 304.58C144.39 304.49 144.43 304.42 144.47 304.35C144.19 305.55 144.67 306.91 144.44 308.16Z" fill="#DCDDDD"/>
<path d="M153.06 384.55C153.86 378.64 152.31 379.71 148.8 375.83C146.27 373.03 145.77 371.14 143.12 368.89C144.36 369.6 145.57 370.34 146.51 371.69C147.76 373.47 147.81 374.81 149.49 376.37C150.83 377.62 152.56 377.96 153.36 379.81C153.99 381.27 153.55 384.11 152.84 386.08C152.91 385.62 152.99 385.11 153.06 384.56V384.55Z" fill="#DCDDDD"/>
<path d="M161.31 293.43C160.63 293.9 159.83 294.06 158.94 293.93C159.64 293.52 160.62 293.67 161.31 293.43Z" fill="#DCDDDD"/>
<path d="M165.33 293.46C164.93 293.33 164.5 293.09 163.98 292.67C163.75 292.49 163.55 292.31 163.37 292.15C164.08 292.55 164.67 293.04 165.33 293.45V293.46Z" fill="#DCDDDD"/>
<path d="M175.69 298.48C175.25 298.5 174.84 298.46 174.47 298.34C172.91 297.8 172.32 296.66 171.73 295.57C173.19 296.9 173.18 298.17 175.69 298.48Z" fill="#DCDDDD"/>
<path d="M182.65 300.8C181.82 299.74 183.41 298.62 181.78 297.65C181.64 297.57 181.48 297.51 181.32 297.47C181.71 297.49 182.07 297.59 182.37 297.82C182.83 298.78 182.93 299.77 182.65 300.8Z" fill="#DCDDDD"/>
<path d="M196.91 317.65C195.77 317.74 194.63 317.84 193.53 317.71C194.47 317.71 195.36 317.65 196 317.65C196.32 317.65 196.62 317.65 196.91 317.65Z" fill="#DCDDDD"/>
<path d="M205.99 319.8C205.41 319.83 205.01 319.57 204.23 319.15C205.22 319.56 205.58 319.79 205.99 319.8Z" fill="#DCDDDD"/>
<path d="M221.87 320.07C220.05 317.71 217.74 316.76 215.21 316.83C216.96 316.55 218.72 316.77 220.51 318.08C221.11 318.51 221.51 319.25 221.87 320.07Z" fill="#DCDDDD"/>
<path d="M239.4 325.75C237.13 326.23 234.16 324.16 231.58 323.45C231.92 323.45 232.22 323.47 232.45 323.51C234.54 323.94 237.25 326.12 239.4 325.75Z" fill="#DCDDDD"/>
<path d="M246.54 322.76C245.98 323.03 245.27 323.05 244.55 323.08C244.71 322.99 244.83 322.91 244.92 322.87C245.52 322.98 246.06 322.95 246.54 322.77V322.76Z" fill="#DCDDDD"/>
<path d="M252.6 318.63C252.54 318.63 252.5 318.63 252.45 318.63C249.11 318.88 249.31 320.81 247.3 322.28C247.5 322.11 247.68 321.9 247.86 321.66C248.38 320.61 249.08 319.68 249.93 318.88C250.82 318.51 251.71 318.48 252.6 318.63Z" fill="#DCDDDD"/>
<path d="M260.66 320.24C259.87 320.34 259.01 320.19 258.13 319.96C259.06 320.03 259.93 320.02 260.66 320.24Z" fill="#DCDDDD"/>
<path d="M305.4 290.5C304.79 294.59 304.45 298.1 303.3 302.21C302.38 305.51 301.93 311.67 299.77 314.24C298.01 316.34 299.23 315.57 296.19 315.38C296.17 315.38 296.14 315.38 296.12 315.38C294.49 315.29 293.16 314.99 291.66 315.04C291.6 315.04 291.53 315.04 291.45 315.04C290.97 315.06 290.48 315.12 289.95 315.23C286.03 316.07 285.54 317.3 282.57 314.32C281.91 313.66 281.68 312.98 281.36 312.33C281.02 311.64 280.59 310.99 279.47 310.43C279.22 310.3 278.97 310.21 278.71 310.14C278.64 310.12 278.57 310.08 278.5 310.07C277.49 309.79 276.4 309.76 275.39 309.68C273.31 309.52 270.73 309.55 268.78 310.59C268.69 310.64 268.61 310.69 268.52 310.75C267.77 311.19 267.14 311.79 266.69 312.61C265.52 314.68 265.59 316.6 264.74 318.03C263.61 318.74 262.29 318.83 260.95 320.21C260.86 320.23 260.78 320.24 260.68 320.25C259.89 320.35 259.03 320.2 258.15 319.97C256.27 319.48 254.29 318.57 252.63 318.64C252.57 318.64 252.53 318.64 252.48 318.64C249.14 318.89 249.34 320.82 247.33 322.29C247.31 322.29 247.3 322.31 247.28 322.32C247.08 322.46 246.87 322.6 246.62 322.73C246.6 322.73 246.58 322.75 246.56 322.76C246 323.03 245.29 323.05 244.57 323.08C243.87 323.1 243.16 323.12 242.58 323.38C241.48 323.86 241.01 325.08 239.93 325.59C239.78 325.66 239.61 325.72 239.43 325.76C237.16 326.24 234.19 324.17 231.61 323.46C231.19 323.34 230.78 323.26 230.38 323.23C229.37 323.15 224.96 324.25 224.16 324.02C224.14 324.02 224.11 324 224.1 324C223.6 323.73 222.61 321.12 222.45 320.86C222.28 320.58 222.08 320.32 221.9 320.08C220.08 317.72 217.77 316.77 215.24 316.84C213.35 316.88 211.35 317.49 209.33 318.5C207.52 319.41 206.66 319.79 206.02 319.81C205.44 319.84 205.04 319.58 204.26 319.16C203.67 318.83 202.87 318.41 201.6 317.94C200.09 317.39 198.51 317.51 196.94 317.65C195.8 317.74 194.66 317.84 193.56 317.71H193.53C193.42 317.69 193.32 317.68 193.21 317.66C188.56 316.87 189.89 315.71 189.5 311.83C189.21 308.99 187.46 304.42 185.39 302.36C184.2 301.18 183.98 302.46 182.68 300.8C181.85 299.74 183.44 298.62 181.81 297.65C181.67 297.57 181.51 297.51 181.35 297.47C179.91 297.14 177.61 298.37 175.72 298.47C175.28 298.49 174.87 298.45 174.5 298.33C172.94 297.79 172.35 296.65 171.76 295.56C171.36 294.83 170.97 294.11 170.27 293.62C170.17 293.56 170.07 293.48 169.96 293.43C169.87 293.38 169.78 293.33 169.67 293.29C167.82 292.53 167.02 294 165.37 293.46C164.97 293.33 164.54 293.09 164.02 292.67C163.79 292.49 163.59 292.31 163.41 292.15C160.84 289.89 162.73 290 163.95 287.24C164.23 286.6 164.48 286.16 164.65 285.71C164.73 285.53 164.79 285.34 164.82 285.15C164.84 285.09 164.84 285.02 164.85 284.96C164.85 284.92 164.87 284.87 164.87 284.82C164.87 284.77 164.87 284.72 164.87 284.68C164.89 284.45 164.89 284.19 164.87 283.89C164.73 282.25 162.15 280.52 162.12 279.45V279.43C162.1 278.31 162.92 277.56 163.95 276.99C163.95 276.99 163.95 276.99 163.97 276.99C165.27 276.27 166.9 275.85 167.51 275.33C168.65 274.39 169.46 273.19 170.12 271.86C170.9 270.26 171.44 268.49 171.99 266.77C172.55 264.98 172.36 260.41 173.55 259.55C173.84 259.34 174.15 259.34 174.48 259.4H174.5C175.25 259.56 176.11 260.11 177.03 259.43C177.13 259.36 177.21 259.29 177.29 259.23C179.43 257.63 177.95 258.18 177.29 257.2C177.19 257.06 177.12 256.89 177.08 256.68C177.06 256.56 177.02 256.43 176.99 256.3C176.97 256.18 176.93 256.06 176.89 255.94C176.87 255.84 176.83 255.74 176.8 255.64C176.76 255.49 176.71 255.34 176.65 255.19C176.65 255.16 176.63 255.13 176.62 255.11C176.59 254.97 176.53 254.84 176.48 254.71C176.09 253.77 175.51 252.92 174.63 252.62C174.57 252.6 174.52 252.58 174.46 252.57C173.78 252.4 173.28 252.62 172.82 252.9C172.25 253.23 171.72 253.64 170.99 253.49C170.65 253.42 170.34 253.31 170.05 253.16C169.49 252.87 169.02 252.45 168.57 252.01C168.14 251.57 167.73 251.1 167.28 250.68C166.62 250.05 165.87 249.54 164.82 249.42C163.96 249.32 163.1 249.78 162.33 250.18H162.31C160.98 250.89 159.98 251.37 159.86 248.25C159.83 247.24 160.95 245.88 161.7 244.66C161.96 244.23 162.18 243.83 162.28 243.46C162.75 241.79 162.58 239.93 162.68 238.2C162.68 238.15 162.68 238.11 162.68 238.07C162.68 238.01 162.68 237.94 162.68 237.88C162.7 237.64 162.72 237.4 162.74 237.17C162.74 237.15 162.74 237.13 162.74 237.11C163.13 233.76 164.34 230.28 164.49 226.99C164.49 226.78 164.51 226.58 164.51 226.37C164.51 226.21 164.51 226.07 164.49 225.93C164.44 224.68 164.12 223.94 163.59 223.31C163.59 223.29 163.57 223.28 163.57 223.27C162.98 222.59 162.16 222.05 161.16 221.17C161.16 221.17 161.16 221.17 161.14 221.17L161.12 221.15C160.22 220.36 157.99 219.11 156.81 217.8C156.76 217.74 156.71 217.67 156.67 217.62C156.18 217.03 155.92 216.43 156.11 215.86C156.46 214.76 157.67 214.54 158.89 214.37C158.89 214.37 158.91 214.37 158.93 214.37C159.85 214.24 160.76 214.13 161.29 213.66C161.66 213.33 161.91 212.98 162.1 212.61V212.59C162.9 210.99 162.44 209.14 163.88 207.73C164.58 207.04 165.64 207.03 166.66 206.98C166.68 206.98 166.71 206.98 166.73 206.98C168.14 206.89 169.48 206.68 169.75 204.42C169.78 204.21 169.8 204 169.81 203.76C169.81 203.8 169.83 203.83 169.87 203.87C169.91 203.93 169.97 203.98 170.05 204.03C170.07 204.05 170.11 204.07 170.14 204.09C170.24 204.15 170.36 204.2 170.51 204.25C170.83 204.38 171.24 204.48 171.7 204.58C171.85 204.62 172 204.64 172.16 204.68H172.18C172.4 204.73 172.63 204.77 172.88 204.8C172.9 204.8 172.93 204.8 172.96 204.82C173.24 204.86 173.52 204.9 173.81 204.94C173.87 204.94 173.93 204.96 173.99 204.96C174.37 205.01 174.74 205.06 175.12 205.1C175.41 205.13 175.7 205.16 175.99 205.19C176.24 205.21 176.5 205.24 176.74 205.25C176.93 205.27 177.12 205.28 177.3 205.3C177.45 205.3 177.6 205.32 177.74 205.34C178.06 205.36 178.34 205.38 178.57 205.4C178.67 205.4 178.77 205.42 178.85 205.42C178.94 205.42 179.02 205.42 179.08 205.44C179.25 205.44 179.34 205.46 179.34 205.46C179.57 205.13 177.97 202.36 177.2 200.26C177.2 200.26 177.18 200.24 177.18 200.23C176.9 199.49 176.73 198.82 176.79 198.4C176.79 198.4 176.79 198.34 176.79 198.3C177.37 195.72 178.92 195.02 181.44 194.34C181.55 194.31 181.65 194.28 181.77 194.26H181.79C183.22 193.94 184.63 194.01 186.04 193.97H186.11C187.17 193.94 188.23 193.83 189.29 193.45C191.18 192.75 192.4 191 194.19 190.36C194.21 190.36 194.23 190.34 194.26 190.34C194.84 190.13 195.49 190.06 196.25 190.18C197.04 190.31 197.62 190.6 198.08 191C198.14 191.04 198.18 191.08 198.22 191.12C199.66 192.5 199.79 194.89 201.42 195.83C201.92 196.12 202.64 196.21 203.47 196.16C203.49 196.16 203.51 196.16 203.53 196.16C205.2 196.06 207.26 195.41 208.67 194.68C208.71 194.66 208.75 194.64 208.79 194.62C209.31 194.34 209.74 194.06 210.01 193.79C211.15 192.68 211.47 191.69 211.46 190.68C211.44 189.06 210.57 187.43 210.82 185.28C211.17 182.29 212.85 181.26 215.28 179.8C217.84 178.28 220.41 177.82 222.18 175.22C222.82 174.27 222.98 173.5 223.15 172.8C223.15 172.78 223.15 172.78 223.17 172.77C223.4 171.81 223.65 170.98 225.12 170.01C225.48 169.77 226.09 169.51 226.8 169.25C226.84 169.23 226.89 169.22 226.93 169.21C227.73 168.92 228.64 168.66 229.43 168.47H229.45C230.4 168.25 231.19 168.12 231.47 168.21C231.6 168.25 231.72 168.3 231.84 168.35C232.48 168.66 232.96 169.2 233.43 169.78C233.45 169.8 233.46 169.8 233.47 169.82C233.47 169.82 233.47 169.82 233.47 169.84C234.41 170.98 235.3 172.23 237.13 171.93C243.48 170.87 236.19 159.6 243.96 160.87C248.07 161.54 246.64 164.78 248.36 166.64L248.47 166.76C250.66 168.88 250.21 168.05 253.1 167.24C253.13 167.24 253.16 167.22 253.19 167.22C256.84 166.21 259.05 167.22 262.7 167.05C264.08 166.99 265.35 166.3 266.6 165.64C267.85 164.97 269.1 164.35 270.44 164.46C271.45 164.54 272.29 165.04 273.06 165.71C275.4 167.76 277.06 171.37 280.54 169.41C281.37 168.93 282.14 167.92 282.87 166.71C282.87 166.71 282.89 166.69 282.89 166.68C284.81 163.53 286.61 159.07 289.41 159.21C290.04 159.24 290.7 159.49 291.44 160.04C292.19 160.6 291.88 162.32 292.3 163.09C293.09 164.56 294.88 165.68 295.48 167.07C296.58 169.6 296.02 172.42 295.94 175.32C295.73 183.21 297.5 188.56 300.09 195.61C301.04 198.19 301.64 201.7 301.26 204.45C300.83 207.5 299.19 207.99 297.73 210.32C294.32 215.8 297.44 219.04 298.37 224.44C299.47 230.74 297.67 235.61 294.74 240.65C291.56 246.14 292.25 253.86 293.4 259.73C293.88 262.18 294.21 264.11 295.12 266.33C296.33 269.27 297.75 269.32 295.74 272.39C293.58 275.68 292.86 273.93 294.22 276.44C294.47 276.9 297.52 280.38 298.19 280.49C301.16 280.97 307.51 269.1 308.79 272.12C311.43 278.35 306.36 284.44 305.43 290.6L305.4 290.5Z" fill="#DCDDDD"/>
<path d="M278.49 310.06C277.48 309.78 276.39 309.75 275.38 309.67C273.3 309.51 270.72 309.54 268.77 310.58C271.35 309.11 275.86 309.11 278.49 310.06Z" fill="#DCDDDD"/>
<path d="M282.56 314.32C281.9 313.66 281.67 312.98 281.35 312.33C281.8 312.98 282.16 313.68 282.56 314.32Z" fill="#DCDDDD"/>
<path d="M296.19 315.39C296.19 315.39 296.14 315.39 296.12 315.39C294.49 315.3 293.16 315 291.66 315.05C293.2 314.91 294.71 315.07 296.2 315.4L296.19 315.39Z" fill="#DCDDDD"/>
<path d="M327.99 234.88C326.23 235.8 326 230 329.37 230.28C334.78 230.73 329.92 233.87 327.99 234.88Z" fill="#DCDDDD"/>
<path d="M340.22 238.13C341.3 237.56 341.45 241.15 339.37 240.97C336.03 240.69 339.03 238.75 340.22 238.13Z" fill="#DCDDDD"/>
</svg>
