<svg width="166" height="18" viewBox="0 0 166 18" fill="none" xmlns="http://www.w3.org/2000/svg">
<path d="M0.77002 11.71L0.5 11.35C2.03 10.47 3.63001 9.08 4.64001 7.84C5.67001 6.56 6.66004 5 7.29004 3.88H4.68005L3.15002 4.78L1.34998 3.7L1.53003 3.34L4.68005 3.48H7.10999L8.01001 2.98L9.54004 3.52C8.17004 5.82 7.05999 7.39 5.98999 8.56C4.99999 9.64 2.84002 10.86 0.77002 11.71ZM13.77 11.48L13.1899 15.91L13.55 16.63V16.81H7.72998L6.44995 17.53H6.27002L5.93005 12.65L5.09998 11.39L5.18994 11.21L7.72998 11.44H11.37L12.45 10.94L13.76 11.48H13.77ZM11.74 11.84H7.73999V16.41H11.74V11.84ZM14.1 1.52L14.01 2.42V6.78C14.01 7.99 13.7001 9.53 13.3101 10.69H12.7C12.5 9.63 12.3 8.28 12.3 7.2V6.77L10.72 6.84L9.81995 7.65L8.02002 6.66L8.10999 6.39L10.63 6.46L12.3 6.39V2.47L10.8199 1.07L11 0.799997L14.1 1.54V1.52Z" fill="#CBCCCC"/>
<path d="M24.17 10.23C23.63 9.49 22.57 8.14 21.67 6.95C21.06 7.98 20.39 8.93 19.78 9.53C19.04 10.25 17.82 10.88 16.92 11.08L16.7 10.76C17.56 10.24 18.27 9.46 18.86 8.64C19.6 7.6 20.66 5.65 21.27 4.1L20.53 2.97L20.73 2.79L23.23 3.98C22.87 4.75 22.4 5.69 21.88 6.59L22.2 7L23.59 7.16C24.08 8.01 24.65 9.18 24.9 9.79L24.16 10.24L24.17 10.23ZM29.27 11.51L30.55 11.87L30.3 14.82C30.21 15.86 29.7601 17.03 29.5601 17.52H29.02C28.89 17.03 28.71 15.68 28.71 14.82L28.6899 12.32L24.3101 12.41L22.6899 13.4L20.62 12.23L20.8 11.87L24.3101 12.01L28.1801 11.92L29.26 11.51H29.27ZM30.8 1.52L30.71 2.42V7.17C30.71 8.38 30.37 9.96 29.97 11.13H29.4301C29.2301 10.05 29.03 8.66 29.03 7.58V6.97H27.3199V7.31C27.3199 8.52 27.01 9.99 26.62 11.14H26.0601C25.8801 10.08 25.7 8.78 25.7 7.7V3.34L24.22 1.94L24.4 1.67L27.41 2.41L27.3199 3.31V6.57H29.03V2.45L27.55 1.05L27.73 0.779999L30.79 1.52H30.8Z" fill="#CBCCCC"/>
<path d="M46.6801 1.52L46.59 2.42V12.67C46.59 13.88 46.23 16.23 45.83 17.53H45.29C45.09 16.32 44.88 14.29 44.88 13.21V7.88H41.9301C41.9501 7.97 41.95 8.08 41.95 8.17C41.95 10.46 40.19 11.9 37.9 11.9C35.61 11.9 33.85 10.46 33.85 8.17C33.85 5.88 35.61 4.44 37.9 4.44C39.95 4.44 41.57 5.59 41.9 7.48H44.89V2.46L43.41 1.06L43.59 0.789999L46.6899 1.53L46.6801 1.52ZM40.1 8.16C40.1 6.67 39.45 4.79 37.89 4.79C36.33 4.79 35.6899 6.66 35.6899 8.16C35.6899 9.66 36.32 11.53 37.89 11.53C39.46 11.53 40.1 9.66 40.1 8.16Z" fill="#CBCCCC"/>
<path d="M53.6899 9.17H60.98L62.6 8.13L65.03 8.85L64.9399 9.57H53.6899L51.89 10.47L49.37 9.3L49.55 8.85L53.6899 9.17ZM52.02 2.26L55.4 2.4H59.38L60.46 2.08L61.8101 2.44L61.27 4.24L61.63 4.96V5.14H54.45V7.19H59.08L60.45 6.29L62.38 6.81L62.29 7.58H52.71V5.67L51.8101 4.77L51.9 4.59L54.46 4.73H59.75V2.79H55.41L53.95 3.73L51.84 2.7L52.02 2.25V2.26ZM52.1801 11.29L55.51 11.43H59.36L60.4399 11.11L61.79 11.47L61.25 13.36L61.61 14.08V14.26H54.75V16.4H59.11L60.55 15.45L62.71 15.9L62.62 16.8H53.04V14.8L52.09 13.9L52.1801 13.72L54.75 13.86H59.72V11.83H55.51L53.98 12.73L52 11.65L52.1801 11.29Z" fill="#CBCCCC"/>
<path d="M73.33 9.01C71.19 9.01 69.51 7.82 69.51 5.88C69.51 3.94 71.18 2.73 73.33 2.73C75.48 2.73 77.16 3.94 77.16 5.88C77.16 7.82 75.49 9.01 73.33 9.01ZM73.33 8.65C74.77 8.65 75.33 7.12 75.33 5.88C75.33 4.64 74.77 3.09 73.33 3.09C71.89 3.09 71.33 4.62 71.33 5.88C71.33 7.14 71.91 8.65 73.33 8.65ZM79.52 10.11L81.84 10.42L81.75 11.32V16.81L80.42 17.35H80.15V16.81H75.36L74.03 17.35H73.76V11.62L73.04 10.83L73.13 10.65L75.45 10.96L75.36 11.86V13.21H80.15V11.09L79.4301 10.3L79.52 10.12V10.11ZM80.15 16.41V13.6H75.36V16.41H80.15ZM82.14 1.52L82.05 2.42V6.17C82.05 7.38 81.69 8.82 81.29 9.97H80.75C80.55 8.91 80.34 7.63 80.34 6.55V2.46L78.86 1.06L79.04 0.789999L82.14 1.53V1.52Z" fill="#CBCCCC"/>
<path d="M98.52 1.52L98.4301 2.42V7.08C98.4301 8.29 98.07 9.87 97.67 11.04H97.13C96.99 10.23 96.82 9.28 96.75 8.38L94.95 8.47L94.7 8.63V8.67L94.3199 8.87L94.23 8.92H94.21C91.55 10.2 87.93 10.59 86.61 10.59V6.97L85.89 6.16L85.98 5.98L88.3199 6.12H91.29L91.47 3.55H88.95L87.71 4.45L85.8199 3.37L85.91 3.01L88.95 3.15H90.9301L92.01 2.74L93.54 3.19L93.13 4.58L94.86 4.65L96.71 4.58V2.46L95.23 1.06L95.41 0.789999L98.51 1.53L98.52 1.52ZM96.86 11.51L98.14 11.87L97.89 14.82C97.8 15.86 97.35 17.03 97.15 17.52H96.61C96.48 17.03 96.3 15.68 96.3 14.82L96.28 12.32L91.9 12.41L90.28 13.4L88.21 12.23L88.39 11.87L91.9 12.01L95.77 11.92L96.85 11.51H96.86ZM96.73 8.02C96.71 7.84 96.71 7.66 96.71 7.5V4.94L94.95 5.03L94.23 5.48L93.02 4.96L92.79 5.72L93.15 6.26V6.53H88.3199V9.79C89.5399 9.77 91.99 9.45 93.79 8.73L92.78 8.3L92.87 8.03L94.85 8.1L96.72 8.03L96.73 8.02Z" fill="#CBCCCC"/>
<path d="M108.07 5.44L109.76 6.09L109.67 6.63H104.09L102.65 7.51L100.94 6.52L101.12 6.16L104.09 6.27H106.84L108.06 5.44H108.07ZM109.03 10.36C109.03 11.98 107.48 13.1 105.86 13.1C104.24 13.1 102.69 11.98 102.69 10.36C102.69 8.74 104.24 7.62 105.86 7.62C107.48 7.62 109.03 8.74 109.03 10.36ZM104.54 5.05L102.92 3.61L103.01 3.43L104.9 3.7L107.51 3.79L107.42 4.51L104.54 5.05ZM107.32 10.36C107.32 9.19 106.94 7.93 105.86 7.93C104.78 7.93 104.4 9.19 104.4 10.36C104.4 11.53 104.78 12.79 105.86 12.79C106.94 12.79 107.32 11.53 107.32 10.36ZM115.18 1.52L115.09 2.42V12.67C115.09 13.88 114.77 16.23 114.37 17.53H113.83C113.63 16.32 113.45 14.29 113.45 13.21V8.78H111.88V12.07C111.88 13.28 111.57 15.36 111.2 16.63H110.66C110.46 15.46 110.3 13.64 110.3 12.56V3.72L108.82 2.32L109 2.05L111.97 2.79L111.88 3.69V8.39H113.45V2.47L111.97 1.07L112.15 0.799997L115.17 1.54L115.18 1.52Z" fill="#CBCCCC"/>
<path d="M132.99 10.02H126.26V12.96C126.26 14.11 125.9 16.33 125.52 17.53H124.98C124.76 16.4 124.55 14.47 124.55 13.44V10.02H121.74L119.94 10.92L117.42 9.75L117.6 9.3L121.74 9.62H129.03L130.65 8.58L133.08 9.3L132.99 10.02ZM118.29 7.87C119.87 7.31 121.37 6.65 122.56 5.96C124.05 5.1 126.41 3.49 127.28 2.7H123.3L121.77 3.69L119.79 2.61L119.97 2.16L123.3 2.3H127.28L128.36 1.89L130.16 2.52C129.1 3.42 127.57 4.48 126.18 5.35L126.99 5.6L128.88 5.33C129.76 5.74 130.99 6.34 131.8 6.77L131.31 7.56C129.47 6.89 127.64 6.26 125.76 5.63V5.59C124.95 6.08 124.23 6.49 123.71 6.76C122.27 7.5 120 7.95 118.56 8.22L118.29 7.86V7.87Z" fill="#CBCCCC"/>
<path d="M139.8 9.24C140.21 10.16 140.77 11.36 141.04 12.07L140.14 12.57C139.35 11.31 138.54 10.12 137.69 8.86C137.4 9.35 137.15 9.74 136.99 9.98C136.18 11.13 134.7 12.14 133.24 12.68L132.97 12.32C134.07 11.64 134.81 10.77 135.45 9.73C136.19 8.56 137.3 6.6 137.92 5.08L137.38 3.82L137.56 3.73L140.04 4.72C139.61 5.58 138.67 7.2 137.92 8.47L138.19 8.85L139.79 9.25L139.8 9.24ZM141.14 2.04L144.15 2.78L144.06 3.68V12.07C144.06 13.28 143.75 15.36 143.36 16.63H142.82C142.62 15.46 142.44 13.64 142.44 12.56V7.59L141.52 7.63L140.73 8.24L139.13 7.45L139.22 7.18L141.43 7.25L142.44 7.21V3.72L140.96 2.32L141.14 2.05V2.04ZM147.62 1.52L147.53 2.42V12.67C147.53 13.88 147.19 16.23 146.79 17.53H146.25C146.05 16.32 145.85 14.29 145.85 13.21V2.46L144.37 1.06L144.55 0.789999L147.61 1.53L147.62 1.52Z" fill="#CBCCCC"/>
<path d="M165.48 13.89L165.39 14.61H154.14L152.34 15.51L149.82 14.34L150 13.89L154.14 14.21H154.54V11.51L153.82 10.7L153.91 10.52L156.3 10.88L156.21 11.6V14.21H159.22V11.33L158.5 10.52L158.59 10.34L160.99 10.7L160.9 11.42V14.21H161.44L163.06 13.17L165.49 13.89H165.48ZM153.23 6.7C153.23 4.45 155.14 3.06 157.64 3.06C160.14 3.06 162.05 4.45 162.05 6.7C162.05 8.95 160.14 10.34 157.64 10.34C155.14 10.34 153.23 8.94 153.23 6.7ZM155.12 6.7C155.12 8.14 155.86 9.98 157.64 9.98C159.42 9.98 160.18 8.14 160.18 6.7C160.18 5.26 159.42 3.42 157.64 3.42C155.86 3.42 155.12 5.24 155.12 6.7Z" fill="#CBCCCC"/>
</svg>
