<svg width="140" height="32" viewBox="0 0 140 32" fill="none" xmlns="http://www.w3.org/2000/svg">
<path d="M0.970001 4.02002H7.7L7.63 4.92004C7.49 5.24004 7.34 5.64001 7.34 5.64001V9.42004H10.15V5.78003C10.15 5.02003 10.04 4.98995 8.85001 4.69995L9.21001 3.66003H15.51L15.4 4.63C15.22 4.92 15.08 5.34998 15.08 5.34998V13.88C15.01 15.86 14.79 17.4101 14.5 18.3101H10.36C10.29 18.0601 10.29 17.5499 10.25 17.1899H7.08C7.01 17.6199 7.00999 17.73 7.00999 17.8C6.96999 17.87 6.94 17.94 6.83 18.34H2.62C2.48 17.62 2.39999 15.5 2.39999 15.5V6.31995C2.39999 5.48995 1.90001 5.17006 0.710007 5.06006L0.960007 4.02002H0.970001ZM15.33 22.05C15.69 21.08 15.33 20.4999 13.96 20.0699L14.54 18.88L22.1 19.89C21.74 21.58 21.02 22.84 20.12 24.17C21.96 24.85 23.4 25.0699 24.69 25.0699C25.98 25.0699 27.17 24.85 28.51 24.6L32.18 29.14L29.52 31.37L18.58 26.04C14.66 29.53 8.57 31.19 4.58 31.58L3.28 29.92C7.06 28.37 14.04 25.38 15.34 22.04L15.33 22.05ZM10.15 15.29V10.36H7.34V13.8199C7.34 14.7199 7.3 15.48 7.2 16.27H10.19C10.15 15.66 10.15 15.3 10.15 15.3V15.29ZM15.73 1.75H23.11V2.71997L22.93 3.21997V9.27002H25.85V3.07996C25.85 1.85996 23.94 1.34998 23.04 1.09998L23.4 0.160034H31.57V1.09998C31.03 1.59998 31.03 2.10999 31.03 2.10999V14.49C31.03 16.36 30.85 18.27 30.42 20.21H26.17C25.95 18.95 25.95 17.5801 25.85 16.4301V10.24H22.93V13.26C22.93 14.77 22.79 16.5 22.32 17.9H17.93C17.71 17.07 17.64 15.88 17.64 14.77V4.62C17.64 3.68 16.63 3.03996 15.23 2.70996L15.73 1.73999V1.75Z" fill="#0E2E40"/>
<path d="M42.33 7.21997C42.44 5.81997 41.9 5.53 41.29 5.38C40.25 5.78 39.13 6.81995 39.13 6.81995C37.29 5.98995 35.53 4.62 35.53 4.62L36.14 3.65002C36.14 3.65002 38.7 4.43994 40.86 4.43994H47.63C49.9 4.43994 51.09 2.59998 51.09 2.59998L54.65 3.64001L54.33 5.55005L49.29 5.22998H48.82C48.5 7.85998 47.7 10.67 46.73 13.33C48.28 14.77 50.83 16.93 53.64 17.29L54.79 23.55L51.08 25.42L45.57 15.77C43.66 19.59 40.85 23.98 37.51 26.1L35.53 25.09C40.32 18.93 41.9 11.77 42.33 7.19995V7.21997ZM63.86 0.170044L63.79 1.14001C63.57 1.43001 63.39 1.85999 63.39 1.85999V22.27C63.39 24.14 62.81 30.08 62.35 31.59H57.85C57.71 30.94 57.49 25.47 57.49 25.47V3.01001C57.49 2.04001 55.15 1.42996 53.96 1.20996L54.32 0.170044H63.86Z" fill="#0E2E40"/>
<path d="M77.22 9.84998H82.98L84.1 10.14H85.54V4.84998H84.68C83.06 4.84998 81.55 6.54004 81.55 6.54004C79.25 5.82004 77.63 4.48999 77.63 4.48999L77.95 3.63C79.97 3.92 80.97 3.94999 81.8 3.98999H83.82L85.91 2.83997L91.56 3.63L91.49 4.48999C91.49 4.48999 91.31 4.70995 91.17 5.06995L90.59 8.70996L91.89 9.46997L91.57 10.98H84.26V16.88H85.27C86.85 16.88 87.72 14.47 87.72 14.47L92.83 15.87L92.43 18.35L87.14 17.7H85.38L80.59 18.67L78.14 17.12L79.11 15.39L79 11.86C79 11.28 77.13 10.67 77.13 10.67L77.24 9.83997L77.22 9.84998ZM94.35 19.4301C99.79 19.4301 107.34 21.84 107.34 25.59C107.34 29.34 99.78 31.64 94.35 31.64C88.92 31.64 81.39 29.37 81.39 25.59C81.39 21.81 88.88 19.4301 94.35 19.4301ZM101.01 25.55C101.01 22.27 96.8 20.37 94.31 20.37C91.82 20.37 87.65 22.28 87.65 25.55C87.65 28.82 91.9 30.73 94.31 30.73C96.72 30.73 101.01 28.89 101.01 25.55ZM91.83 1.75H99.21V2.71997L99.03 3.21997V9.27002H101.95V3.07996C101.95 1.85996 99.97 1.34998 99.14 1.09998L99.54 0.160034H107.68V1.09998C107.14 1.59998 107.14 2.10999 107.14 2.10999V13.8101C107.14 15.6101 107 17.16 106.56 19.03H102.28C102.06 17.81 102.06 16.8701 101.96 15.6801V10.24H99.04V13.41C99.04 14.92 98.9 16.65 98.43 18.05H94.04C93.82 17.22 93.75 16.03 93.75 14.88V4.62C93.75 3.68 92.67 3.03996 91.34 2.70996L91.84 1.73999L91.83 1.75Z" fill="#0E2E40"/>
<path d="M120.45 9.95996H117.68C116.46 9.95996 114.26 11.36 114.26 11.36C112.64 10.57 111.34 9.63 111.34 9.63L111.88 8.51001C111.88 8.51001 113.64 9.01001 116.88 9.01001H120.95C121.67 7.64001 122.21 6.24 122.5 4.62H118.4C117.18 4.62 115.38 6.13 115.38 6.13C113.51 5.23 112.64 4.65004 111.85 4.04004L112.35 3.18005C112.35 3.18005 114.37 3.60999 117.61 3.60999H122.36L124.09 2.17004C124.09 2.17004 128.99 3.25005 129.24 3.43005C129.82 3.83005 128.92 4.73003 128.74 5.41003C126.98 12.46 121.04 17.79 112.43 20.13L110.99 18.76C114.01 17.07 118.05 14.1199 120.46 9.93994L120.45 9.95996ZM127.47 17.59C133.01 17.59 138.74 20.9701 138.74 24.6801C138.74 28.3901 133.02 31.63 127.47 31.63C121.92 31.63 116.24 28.4601 116.24 24.6801C116.24 20.9001 122.04 17.59 127.47 17.59ZM132.37 24.65C132.37 21.37 129.96 18.42 127.44 18.42C124.92 18.42 122.62 21.37 122.62 24.65C122.62 27.93 125.03 30.84 127.44 30.84C129.85 30.84 132.37 28.03 132.37 24.65ZM129.67 0.170044H139.06L138.95 1.14001C138.73 1.46001 138.55 1.90002 138.55 1.90002V11.55C138.55 13.42 138.12 15.4 137.69 17.02H132.94C132.8 16.26 132.65 13.96 132.65 13.96V2.66003C132.65 1.80003 130.31 1.39997 129.37 1.21997L129.66 0.180054L129.67 0.170044Z" fill="#0E2E40"/>
</svg>
