<svg width="167" height="135" viewBox="0 0 167 135" fill="none" xmlns="http://www.w3.org/2000/svg">
<path d="M19.67 42.4C20.44 46.98 11.46 44.86 14.38 40.4C14.85 39.68 19.99 34.7799 21.05 36.0799C21.69 36.8699 19.43 40.97 19.67 42.4Z" fill="#0E2E40"/>
<path d="M23.92 46.6599C23.05 46.1899 17.65 45.6399 22.5 44.3099C26.23 43.2999 27.13 48.3799 23.92 46.6599Z" fill="#0E2E40"/>
<path d="M20.31 50.2899C17.1 49.9299 21.09 46.3199 23.67 49.0399C24.61 50.0299 25.59 51.0399 23.92 52.0499C22.47 52.9199 21.75 50.4499 20.31 50.2899Z" fill="#0E2E40"/>
<path d="M32.5 50.1699C33.86 50.5699 33.6 52.2598 32.28 52.4798C29.86 52.8898 30.74 49.6599 32.5 50.1699Z" fill="#0E2E40"/>
<path d="M7.32 74.6599C6.31 75.2899 4.87999 74.8598 3.99999 75.7098C3.28999 76.3998 4.40001 77.9999 3.40001 78.7899C0.780014 80.8399 -1.11001 76.3898 0.749989 74.3798C1.55999 73.4998 2.78001 74.2298 3.58001 73.6998C4.01001 73.4098 5.18998 72.1398 5.61998 71.9598C6.92998 71.4398 7.48998 69.2298 8.61998 71.0698C9.10998 71.8698 7.97 74.2499 7.32 74.6499V74.6599Z" fill="#0E2E40"/>
<path d="M5.42001 80.9799C4.54001 81.7799 3.35005 81.11 2.71005 82.29C1.51005 84.51 3.69003 85.22 5.32003 85.17C9.94003 85.02 9.59001 77.1899 5.42001 80.9799Z" fill="#0E2E40"/>
<path d="M12.3 94.9498C9.69999 95.2998 9.05 88.4899 12.06 88.7399C11.38 88.6799 13.21 92.0098 13.15 91.6998C13.34 92.6898 15.41 94.5398 12.29 94.9598L12.3 94.9498Z" fill="#0E2E40"/>
<path d="M15.97 92.3899C16.26 94.4399 11.07 100.83 16.55 96.5199C18.08 95.3099 19.39 94.3399 18.57 91.8899C18.69 92.2599 15.13 88.5598 15.46 88.6998C12.84 87.5998 16 92.6099 15.97 92.3899Z" fill="#0E2E40"/>
<path d="M21.44 86.1998C20.58 87.5498 19.07 88.2099 20.94 89.6699C20.49 89.3199 24.53 89.2299 24.17 89.5199C26.5 87.6099 23.27 83.2898 21.45 86.1998H21.44Z" fill="#0E2E40"/>
<path d="M15.94 63.1298C15.5 64.8498 13.4999 65.1299 12.2199 64.0399C10.2999 62.4099 12.53 60.3398 13.09 59.6298C16.77 55.0098 16.92 59.2598 15.94 63.1298Z" fill="#0E2E40"/>
<path d="M22.79 62.7899C24.23 63.4799 20.99 67.3299 19.53 64.3799C18.31 61.9199 21.45 62.1499 22.79 62.7899Z" fill="#0E2E40"/>
<path d="M18.17 66.1999C17.59 66.3799 12.84 65.9099 15.3 68.6299C17.82 71.4199 20.94 65.3399 18.17 66.1999Z" fill="#0E2E40"/>
<path d="M19.74 73.4199C16.03 74.7099 20.98 69.9799 22.26 70.2599C23.54 70.5399 24.18 71.3399 23.78 72.8299C23.07 75.4099 21.21 72.9099 19.75 73.4199H19.74Z" fill="#0E2E40"/>
<path d="M16.9 78.3798C17.51 79.8998 18.65 78.7398 19.55 79.1098C18.78 78.7998 22.87 80.4198 22.17 80.4798C23.48 80.3798 24.98 80.7499 24.36 78.0399C23.64 74.9199 15.08 73.8698 16.9 78.3898V78.3798Z" fill="#0E2E40"/>
<path d="M30.87 57.7099C32.63 59.1899 29.2801 59.9898 28.3401 59.1898C28.1301 59.0098 26.14 56.0399 27.93 56.3399C28 56.3499 30.83 57.6699 30.88 57.7099H30.87Z" fill="#0E2E40"/>
<path d="M34.45 55.1998C33.33 51.1698 31.41 57.3498 33.94 57.4698C34.61 56.8998 34.78 56.1398 34.45 55.1998Z" fill="#0E2E40"/>
<path d="M36.03 59.4299C35.34 59.6199 33.73 62.8799 32.73 63.6499C31.36 64.6999 26.79 65.8799 31.19 66.7799C32.52 67.0499 37.07 65.0699 37.81 64.1499C39.09 62.5499 39.2 58.5499 36.04 59.4299H36.03Z" fill="#0E2E40"/>
<path d="M40.64 67.7499C41.02 65.5799 40.88 62.0698 38.74 65.4498C37.05 68.1198 39.77 72.6999 40.64 67.7499Z" fill="#0E2E40"/>
<path d="M35.81 73.7599C36 72.3099 38.45 72.8 38.2 74.15C37.98 75.35 35.64 75.0999 35.81 73.7599Z" fill="#0E2E40"/>
<path d="M35.11 44.9898C34.48 45.2498 31.78 45.7399 31.65 45.7699C30.86 45.9599 31.58 47.4798 30.03 47.3198C29.51 47.2698 29.48 45.1798 29.09 44.8698C27.99 43.9798 26.49 44.5098 25.2 43.3698C23.25 41.6598 23.42 39.9698 26.12 39.3598C27.19 39.1198 28.95 40.7399 29.82 40.2799C30.8 39.7699 30.34 38.4999 30.85 38.0499C32.26 36.7999 29.67 37.0099 32.88 35.6599C33.64 35.3399 34.21 35.7099 34.94 35.6499C36.82 35.4899 38.06 35.5298 39.03 36.9698C40.34 38.9098 38.58 40.6799 38.27 41.2899C38.45 40.9399 37.03 41.4099 36.83 41.6399C35.78 42.8199 37.36 44.0298 35.11 44.9798V44.9898Z" fill="#0E2E40"/>
<path d="M8.96995 119.18C7.56995 120.53 11.65 120.73 12.08 121.17C13.67 122.78 11.12 124.35 14.46 124.81C16.77 125.13 18.71 123.44 17.58 121.55C16.94 120.47 9.76995 118.41 8.96995 119.18Z" fill="#0E2E40"/>
<path d="M35.42 96.0099C34.92 94.4199 32.27 92.9999 30.92 94.4999C30.22 95.2799 31.8 96.9199 31.18 98.0399C30.71 98.9099 27.62 100.04 26.64 100.83C25.22 101.97 23.7 103.47 22.14 104.7C19.16 107.05 15.31 111 19.22 114.38C19.5 114.63 23.15 116.3 23.39 116.34C25.7 116.72 25.42 115.96 27.44 115.57C28.58 115.35 29.77 114.88 31.14 114.92C30.7 114.91 34.92 115.21 33.97 115.4C36.34 114.93 37.25 113.19 39.13 110.96C39.78 110.18 40.88 109.25 41.31 108.24C41.52 107.75 42.25 102.59 42.15 102.15C41.54 99.4399 38.76 97.1899 35.43 96.0099H35.42Z" fill="#0E2E40"/>
<path d="M60.8 133.94C62.06 132.97 63.24 134.67 63.03 131.77C62.87 129.62 59.37 128.99 58.02 130.26C55.49 132.66 57.92 136.16 60.8 133.94Z" fill="#0E2E40"/>
<path d="M69.9301 122.32C62.0701 118.44 66.18 107.6 71.85 112.9C73.22 114.18 72.47 115.44 72.99 117.02C73.42 118.33 74.81 119.73 75.1 121.02C76.07 125.3 72.5501 123.62 69.9301 122.32Z" fill="#0E2E40"/>
<path d="M76.13 119.2C75.39 120.65 78.6801 120.48 79.0601 120.64C79.7401 120.62 80.42 120.54 81.09 120.38C81.98 120.53 82.35 120.99 82.21 121.75C83.34 122 82.77 122.84 84.82 121.97C84.43 122.14 86.47 119.3 86.24 120.06C86.49 119.26 86.87 117.08 84.12 116.99C82.56 116.94 82.37 118.56 81.03 118.87C79.6 119.19 77.12 117.29 76.14 119.2H76.13Z" fill="#0E2E40"/>
<path d="M81.2 115.02C73.09 116.18 73.9801 110.94 79.9201 109.19C82.3501 108.48 83.11 108.92 83.19 111.63C83.22 112.6 84.25 114.58 81.2 115.02Z" fill="#0E2E40"/>
<path d="M85.1201 114.75C85.8901 116.57 90.51 117.79 91.58 115.68C93.3 112.28 83.6401 111.27 85.1201 114.75Z" fill="#0E2E40"/>
<path d="M97.53 120.76C96.91 118.2 92.06 118.1 92.74 121.15C93.19 123.14 97.89 122.26 97.53 120.76Z" fill="#0E2E40"/>
<path d="M102.83 117.78C102.63 116.53 96.0099 114 97.2099 117.2C97.6499 118.37 103.3 120.78 102.83 117.78Z" fill="#0E2E40"/>
<path d="M101.44 106.61C103.54 107.44 102.79 110.75 100.74 110.06C98.32 109.25 98.5199 105.44 101.44 106.61Z" fill="#0E2E40"/>
<path d="M114.23 109.2C111.95 109.88 106.78 110.06 105.46 107.62C104.09 105.08 106.07 103.94 108.41 103.27C108.71 103.19 111.38 103.21 111.95 103.22C113.28 103.22 113.84 102.29 115.22 103.32C117.19 104.78 116.57 108.51 114.23 109.21V109.2Z" fill="#0E2E40"/>
<path d="M140.23 106.27C146.51 107.71 142.58 114.37 138.4 111.52C138.63 111.68 136.88 107.26 136.81 107.79C137.02 106.19 137.34 105.61 140.23 106.28V106.27Z" fill="#0E2E40"/>
<path d="M135.61 98.5599C135.91 98.4299 136.22 98.2999 136.52 98.1799C137.76 98.7399 136.15 100.97 136.9 101.85C137.4 102.43 139.36 101.08 140.11 102.36C140.66 103.29 130.83 104.29 135.6 98.5599H135.61Z" fill="#0E2E40"/>
<path d="M159.76 101.04C158.18 99.99 157.38 97.4899 159.51 96.4499C161.97 95.2499 161.03 97.3499 162.04 98.3899C164.93 101.37 164.19 104 159.76 101.04Z" fill="#0E2E40"/>
<path d="M158.62 60.9498C162.34 60.8798 158.26 63.5299 158.26 63.3899C158.27 63.0699 155.7 60.9998 158.62 60.9498Z" fill="#0E2E40"/>
<path d="M158.27 57.9099C158.11 58.7199 161.91 60.6398 162.74 59.5698C163.66 58.3798 158.82 55.1199 158.27 57.9099Z" fill="#0E2E40"/>
<path d="M162.18 83.0599C161.86 86.4599 156.22 86.1899 158.72 91.1399C158.28 90.2699 161.34 92.3999 161.04 92.2399C162.59 93.0699 163.14 95.7499 165.08 93.3999C165.65 92.7099 166.16 86.2799 165.97 85.6699C165.91 85.4899 162.03 82.5799 162.43 82.0599C162.35 82.3899 162.26 82.7199 162.18 83.0499V83.0599Z" fill="#0E2E40"/>
<path d="M162.29 80.0599C163.03 80.1499 167.22 82.7599 164.49 79.4299C161.94 76.3199 161.12 79.9099 162.29 80.0599Z" fill="#0E2E40"/>
<path d="M162.8 71.1299C162.14 73.4199 161.97 75.98 159.92 77.8C155.36 81.85 156.75 75.54 154.38 75.92C154.76 75.92 150.16 81.1499 150.14 81.2399C149.53 83.5899 154.9 89.2099 149.77 89.0899C148.4 89.0599 144.29 85.83 143.9 84.55C142.61 80.22 148.83 78.85 146.44 74.04C145.68 72.51 144.03 71.9999 143.09 70.7199C142.1 69.3699 141.99 67.79 141.25 66.4C139.07 62.37 140.81 65.05 138.26 66.65C136.54 67.73 132.45 67.5199 130.85 68.1399C129.26 68.7699 129.9 66.6899 128.59 68.6899C128.65 68.6899 129.95 71.35 130.02 71.66C130.62 74.07 128.86 76.69 129.71 79.18C131.13 83.37 146.4 91.3599 135.96 93.2099C133.62 93.6199 134.26 93.7699 131.67 92.9799C129.92 92.4399 123.04 92.7599 126.9 95.3899C127.2 95.5899 128.5 94.1799 128.81 94.3199C129.23 94.4999 130.29 95.4799 130.33 95.4899C130.35 95.4899 133.01 96.8199 133.07 96.9499C134.1 99.2399 130.25 102.33 128.38 103.28C127.01 103.97 125.9 103.69 124.62 104.5C123.89 104.95 124.65 106.85 123.1 106.9C122.47 106.92 120.3 102.83 119.96 102.43C117.25 99.25 115.97 100.34 111.88 100.14C109.48 100.02 106.19 99.25 106.53 95.91C106.72 94.05 108.96 93.55 109.78 92.43C110.19 91.87 110.75 90.7899 111.1 90.3299C111.81 89.3799 110.89 88.42 112.4 87.65C113.52 87.07 114.43 88.7499 115.22 88.3299C117.4 87.1499 116.23 80.7499 118.78 80.3299C121.47 79.8899 120.07 85.4199 123.37 84.1999C126.52 83.0299 125.4 76.6099 122.47 76.5799C122.42 76.5799 121.35 78.0699 120.46 78.0999C118.97 78.1499 117.76 76.07 117.49 76.06C114.63 75.96 115.01 80.92 111.4 82.06C107.37 83.33 108.46 81.16 105.17 83.93C102.51 86.16 97.35 88.04 96.12 91.28C95.52 92.86 95.7899 95.13 95.3299 96.78C95.1199 97.56 94.1 98.2399 93.86 99.0799C93.59 100.01 94.55 101 94.13 102.01C93.28 104.09 92.16 103.55 90.91 104.83C90.22 105.54 90.44 107.37 89.52 107.76C88.6 108.16 87.77 106.66 87.03 106.89C85.57 107.34 86.0699 108.73 84.1999 108.79C83.5899 108.81 80.25 106.61 79.85 106.22C77.92 104.38 78.0099 103.54 77.8299 100.72C77.7699 99.7399 78.43 90.6299 77.01 90.4599C75.95 90.3299 76.18 98.93 75.93 99.81C75.07 102.86 72.6399 106.33 70.1899 108.36C66.8699 111.1 64.23 110.49 63.22 115.15C62.32 119.31 62.85 119 59.5 120.69C59.13 120.5 58.75 120.32 58.38 120.13C57.67 120.42 57.18 120.92 56.9 121.65C56.07 121.84 55.75 124.18 54.3 122.71C52.82 121.22 56.66 117.71 54.62 116.48C52.63 115.3 51.14 120.36 50.68 115.82C50.56 114.62 53.03 112.35 53.22 111.47C53.97 107.92 52.58 111.27 50.55 108.93C48.47 106.53 50.75 103.05 48.37 100.19C46.02 97.3599 42.39 96.9799 39.36 95.5799C35.87 93.9699 34.59 91.5899 33.38 87.6299C32.52 84.8499 31.69 80.6499 33.51 77.9999C36.89 73.0999 37.54 77.89 38.54 80.56C40.06 84.62 41.8299 94.4199 48.4399 92.0799C46.6099 87.5099 38.49 88.4999 42.89 81.8299C46.82 75.8699 47.6 83.2599 50.64 84.9799C55.68 87.8399 54.99 81.6599 50.78 79.7299C48.53 78.7099 38.97 79.09 43 75.04C45.11 72.92 53.4 75.0399 54.06 73.6999C55.95 69.8399 45.97 71.9899 45.12 72.0999C38.15 72.9799 43.31 68.6399 43.63 64.4499C43.75 62.8899 44.42 52.27 42.91 52.42C40.53 52.66 42.1 55.7399 40.48 56.9699C38.57 58.4099 36 56.9199 36.34 54.5799C36.6 52.7899 40.69 50.0799 41.57 48.8199C42.04 48.1399 43.83 48.07 42.89 46.17C42.15 44.65 40.72 46.5399 39.9 45.3499C39.07 44.1299 39.04 42.75 40.63 42.05C44.27 40.41 43.23 44.64 44.56 45.67C48.14 48.44 48.77 41.9799 46.73 39.4999C44.86 37.2299 43.07 33.9699 40.85 31.9999C38.13 29.5699 35.97 29.0999 36.47 24.9599C36.89 21.4699 39.92 20.5299 41.66 18.1099C43.35 15.7599 43.6 6.61989 46.63 5.33989C48.17 4.68989 49.67 5.99994 50.91 7.75994C50.98 7.85994 51.05 7.95999 51.12 8.05999C52.42 10.01 53.41 12.38 53.8 13.31C54.39 14.73 55.2499 17.7899 56.6899 19.1899C56.6899 19.1899 56.6899 19.1899 56.7099 19.1899C57.6899 20.1199 58.9499 20.2599 60.5699 18.5799C60.9699 18.1699 61.0399 17.6499 61.0699 17.1299C61.0999 16.2599 61.01 15.3699 62.05 14.8899C62.56 14.6499 63.02 14.6599 63.42 14.8299C64.08 15.0799 64.6 15.73 65.02 16.4C65.1 16.54 65.17 16.6799 65.25 16.8299C65.3 16.9199 65.35 17.0099 65.39 17.1099C65.42 17.1699 65.46 17.2499 65.49 17.3199C65.62 17.0999 65.76 16.8999 65.91 16.7199C65.97 16.6399 66.03 16.5699 66.09 16.4999C67.03 15.4399 68.01 15.1999 69.09 14.2399C69.09 14.2399 69.0966 14.2399 69.11 14.2399C69.86 14.7799 70.36 14.8999 70.63 14.6099C70.77 14.4499 70.84 14.17 70.85 13.78C70.9 13.49 70.9799 13.2099 71.0799 12.9499C71.2899 12.3899 71.62 11.8999 72.06 11.4499C73.41 8.97988 74.47 4.94993 76.38 2.99993C79.6 -0.280072 82.03 0.349875 84.12 2.06987C84.12 2.06987 84.12 2.06987 84.14 2.06987C87.13 4.55987 89.43 9.28995 92.35 8.01995C94.51 7.07995 94.45 0.699904 98.38 3.0999C99.56 3.8199 99.68 4.4699 99.48 5.0999V5.11992C99.23 5.92992 98.46 6.73988 98.77 7.69988C98.8 7.79988 98.83 7.86988 98.85 7.94988C99.29 9.26988 99.42 9.05997 100.3 10.29C100.32 10.31 100.32 10.3299 100.35 10.3499C101.22 11.4899 102.27 10.8699 102.57 12.3399C102.6 12.5199 102.63 12.7399 102.64 12.9899C102.66 13.4099 102.39 13.8 102.06 14.16C101.62 14.66 101.08 15.1099 101.11 15.5099C101.14 15.8399 101.21 16.1199 101.3 16.3699C101.4 16.6199 101.52 16.8299 101.67 17.0199C102.08 17.5299 102.68 17.8299 103.38 17.9799C104.46 18.2299 105.75 18.1499 106.91 17.9799C106.91 17.9799 106.91 17.9799 106.93 17.9799C107.45 17.9199 107.94 17.8299 108.36 17.7599C110.15 17.4499 110.8 17.0999 112.23 17.2299C112.28 17.2299 112.33 17.2299 112.38 17.2499C112.73 17.2899 113.02 18.13 113.7 18.43C113.83 18.49 113.96 18.53 114.11 18.54C115.11 18.61 116.06 18.3699 117.06 18.1899H117.08C117.94 18.0199 118.85 17.9 119.88 18.05C120.78 18.17 121.4 18.2799 121.94 18.3399C122.85 18.4499 123.56 18.42 124.97 18.05C125.03 18.03 125.09 18.0199 125.14 17.9899C126.01 17.6999 126.98 16.9599 127.9 16.7699C128.14 16.7199 128.35 16.7099 128.54 16.7299C129.45 16.8299 129.91 17.52 131.28 16.79C132.88 15.92 132.85 14.0199 134.89 13.2199C135.4 13.0199 135.96 12.8999 136.55 12.8499C136.57 12.8499 136.61 12.8499 136.63 12.8499C136.65 12.8499 136.66 12.8499 136.69 12.8499C137.47 12.7999 138.28 12.87 139.02 13.04C139.13 13.06 139.25 13.0999 139.36 13.1399C139.38 13.1399 139.4 13.14 139.42 13.16C139.63 13.22 139.83 13.2899 140.02 13.3599C143.28 14.6199 144.67 17.07 145.51 19.9C145.53 19.97 145.55 20.0399 145.57 20.1099C145.67 20.4399 145.75 20.7799 145.83 21.1099C146.81 25.1999 147 29.8099 149.92 32.7099C150.9 33.6699 152 34.2699 153.07 34.8899C154.31 35.5999 155.52 36.3399 156.46 37.6899C157.71 39.4699 157.76 40.8099 159.44 42.3699C160.78 43.6199 162.51 43.96 163.31 45.81C163.94 47.27 163.5 50.1099 162.79 52.0799C162.6 52.6099 162.39 53.0799 162.17 53.4499C160.87 55.6299 162.04 54.2499 159.55 55.5699C158.65 56.0499 157.93 55.6399 157.02 56.3199C155.53 57.4399 155.95 59.6899 153.87 60.4999C151.53 61.4199 150.37 58.6199 148.56 58.9799C146.23 59.4499 148.31 64.2399 149.21 65.5699C152.82 70.8799 154.52 65.8199 158.48 64.9899C163.56 63.9199 163.65 67.9899 162.75 71.1399L162.8 71.1299Z" fill="#0E2E40"/>
</svg>
