<svg width="115" height="31" viewBox="0 0 115 31" fill="none" xmlns="http://www.w3.org/2000/svg">
<path d="M9.09 15.1899C7.33 16.8499 3.87 18.49 0.479996 19.51L0 19.03C2.27 17.81 5.25 15.73 7.3 13.37C8.58 11.9 11.3 8.50995 12.68 6.06995H8.03999L5.64 7.67004L2.28 5.91003L2.60001 5.10999L8.03999 5.43005H12.52L14.18 4.46997L16.87 5.43005C15.14 8.28005 13.29 10.6799 11.59 12.5699L12.61 13.59L15.3 13.6899C15.84 14.4299 17.44 16.7599 18.08 18.0699L16.74 19.03C14.92 17.05 13.06 15.06 11.14 13.08C10.4 13.88 9.73 14.5799 9.09 15.1899ZM26.62 27.03L26.43 28.47H12.48L9.44 28.79V21.9399L7.62 20.28L7.78 19.96L12.48 20.4399V27.77H20.16L22.98 25.79L26.63 27.04L26.62 27.03ZM21.6 10.61V3.28003L18.98 0.780029L19.3 0.300049L24.8 1.60999L24.64 3.20996V15.37C24.64 17.51 24.03 20.84 23.33 23.02H22.31C21.96 21 21.61 18.09 21.61 16.17V11.24L19.11 11.37L17.61 12.59L14.63 11.05L14.79 10.5699L18.95 10.7L21.61 10.6L21.6 10.61Z" fill="#0E2E40"/>
<path d="M57.6 15.48H51.94V21.4301C51.94 23.5701 51.3 27.7699 50.6 30.0699H49.64C49.29 27.9299 48.9 24.31 48.9 22.39V18.61C43.3 21.36 38.6 22.26 32.13 22.55V14.52L30.85 13.08L31.01 12.76L35.17 13.02H40.61L40.93 6.83997H36.32L34.08 8.43994L30.72 6.52002L30.88 5.88L36.32 6.14001H39.97L41.89 5.40002L44.61 6.19995L43.27 12.28L43.91 13.24V13.72H35.17V21.11C40.48 21.08 45.63 19.61 48.9 18.01V3.29004L46.28 0.790039L46.6 0.310059L52.1 1.62L51.94 3.21997V14.9H52.96L54.88 12.76L57.92 13.88L57.6 15.48Z" fill="#0E2E40"/>
<path d="M86.08 12.6H80.48C80.32 14.39 79.87 16.34 79.33 17.91H78.24C77.92 16.25 77.6 14.17 77.54 12.37C73.6 14.23 68.52 15.4399 60.81 15.4399V7.15002L58.57 4.91003L58.73 4.58997L63.85 5.39001V14.16C69.64 14.13 74.35 13.2 77.55 11.73V3.28003L74.93 0.780029L75.25 0.300049L80.75 1.60999L80.59 3.20996V10.95C80.59 11.3 80.59 11.65 80.56 12.01H81.46L83.38 9.87L86.42 10.99L86.1 12.59L86.08 12.6ZM80.22 19.3199L79.2 27.1899L79.84 28.47V28.79H69.5L67.23 30.0699H66.91L66.3 21.4L64.83 19.16L64.99 18.84L69.5 19.26H75.96L77.88 18.36L80.22 19.3199ZM76.61 19.96H69.51V28.09H76.61V19.96Z" fill="#0E2E40"/>
<path d="M114.4 23.6L114.24 24.88H94.24L91.04 26.48L86.56 24.4L86.88 23.6L94.24 24.1801H99.26V19.38L97.5 17.78L97.66 17.46L102.4 18.26L102.24 19.54V24.1801H107.2L110.08 22.3199L114.4 23.6ZM91.81 7.51001L89.83 5.53003L89.99 5.20996L94.85 5.53003H104.1L106.66 3.98999L109.86 4.94995L109.7 6.22998H94.85V16.05H104.16L106.72 14.35L110.24 15.3101L110.08 16.75H94.85L91.81 17.45V7.5V7.51001Z" fill="#0E2E40"/>
</svg>
